<svg width="481" height="277" viewBox="0 0 481 277" fill="none" xmlns="http://www.w3.org/2000/svg">
<g clip-path="url(#clip0_13_687)">
<path d="M98.9001 164.321C98.024 163.464 96.9508 162.835 95.7747 162.49L87.1685 153.109L82.6295 157.459L91.8548 166.508C92.2469 167.662 92.9203 168.701 93.8142 169.531C96.0224 171.64 98.9494 172.183 100.353 170.743C101.757 169.302 101.113 166.43 98.9109 164.325H98.9025L98.9001 164.321Z" fill="#CFCFCF"/>
<path d="M95.312 160.099L90.7399 165.843L67.1083 147.965L67.0878 147.924L53.2784 122.169C52.7096 121.105 52.3648 119.936 52.2654 118.734C52.1659 117.531 52.3138 116.322 52.7 115.179C53.0863 114.036 53.7026 112.984 54.511 112.088C55.3195 111.193 56.3029 110.472 57.4007 109.971C58.4985 109.469 59.6874 109.198 60.8941 109.173C62.1008 109.149 63.2998 109.371 64.4171 109.828C65.5344 110.284 66.5464 110.964 67.3907 111.826C68.2349 112.688 68.8936 113.714 69.3261 114.84L78.2864 138.28L95.3131 160.091L95.312 160.099Z" fill="#9D50FB"/>
<path d="M56.3978 100.523H66.0318V115.798L55.4097 112.309L56.3978 100.523Z" fill="#CFCFCF"/>
<path d="M75.298 94.172C75.298 96.263 74.6776 98.3071 73.5153 100.046C72.3529 101.784 70.7008 103.14 68.7678 103.94C66.8349 104.74 64.708 104.949 62.656 104.541C60.604 104.133 58.7192 103.127 57.2398 101.648C55.7604 100.169 54.7529 98.2855 54.3447 96.2346C53.9366 94.1837 54.1461 92.0579 54.9467 90.126C55.7473 88.1941 57.1032 86.5429 58.8428 85.3812C60.5824 84.2194 62.6276 83.5994 64.7197 83.5994C67.5253 83.5994 70.2159 84.7133 72.1997 86.696C74.1835 88.6788 75.298 91.3679 75.298 94.172Z" fill="#CFCFCF"/>
<path d="M57.2302 100.935L56.1976 102.893L51.6418 94.2399C48.8986 85.8431 58.4792 81.0211 58.4792 81.0211C61.6046 77.3412 67.8884 81.6453 67.8884 81.6453C76.9508 79.6341 72.5765 87.2674 72.5765 87.2674C72.5765 87.2674 69.4842 87.3365 69.4842 89.833C69.4842 92.3296 66.1184 92.1584 66.1184 92.1584L63.481 96.7731L62.0235 95.0022C56.6057 92.7093 57.2302 100.935 57.2302 100.935Z" fill="#2F2E43"/>
<path d="M61.0426 257.042H52.4946V269.163H61.0426V257.042Z" fill="#CFCFCF"/>
<path d="M69.3664 276.499C65.6147 276.499 60.1368 276.108 60.096 276.103C58.6306 276.234 51.3154 276.809 50.9518 275.136C50.7598 274.013 50.8381 272.86 51.1802 271.772C51.8864 264.784 52.1479 264.702 52.3029 264.657C52.5517 264.584 53.2784 264.93 54.4582 265.689L54.5316 265.738L54.5478 265.823C54.5682 265.93 55.0887 268.496 57.5686 268.106C59.2665 267.837 59.8177 267.462 59.9932 267.278C59.8108 267.198 59.655 267.068 59.5442 266.902C59.4506 266.738 59.3937 266.555 59.3775 266.366C59.3614 266.177 59.3862 265.987 59.4505 265.809C59.7957 264.787 60.2358 263.8 60.7649 262.86L60.8749 262.664L70.5901 269.216L76.5908 270.93C76.8135 270.993 77.0191 271.105 77.1923 271.258C77.3655 271.412 77.5018 271.602 77.591 271.816C77.7148 272.111 77.7436 272.438 77.6734 272.751C77.6032 273.064 77.4374 273.347 77.1991 273.562C76.1094 274.541 73.9415 276.218 71.6696 276.426C71.0655 276.486 70.2655 276.504 69.367 276.504L69.3664 276.499Z" fill="#2F2E43"/>
<path d="M26.6638 248.216L33.2542 253.658L40.9796 244.312L34.3891 238.87L26.6638 248.216Z" fill="#CFCFCF"/>
<path d="M34.9786 264.598C32.0882 262.207 28.1166 258.417 28.0877 258.388C26.8754 257.56 20.8704 253.342 21.6566 251.82C22.2235 250.829 23.0202 249.99 23.9796 249.372C28.9803 244.431 29.2291 244.537 29.3805 244.602C29.621 244.704 29.96 245.43 30.3849 246.768L30.4095 246.85L30.3686 246.927C30.3085 247.025 29.0788 249.339 31.2383 250.612C32.7199 251.484 33.3816 251.546 33.6347 251.518C33.5442 251.339 33.5073 251.138 33.5283 250.938C33.5615 250.752 33.6344 250.575 33.7422 250.42C33.8499 250.264 33.99 250.134 34.1528 250.037C35.0707 249.47 36.0396 248.989 37.0468 248.601L37.2547 248.519L40.5604 259.753L44.0915 264.897C44.2223 265.088 44.3085 265.306 44.3439 265.535C44.3792 265.764 44.3628 265.997 44.2959 266.219C44.2022 266.526 44.0157 266.796 43.762 266.993C43.5083 267.189 43.1999 267.302 42.8792 267.316C41.4181 267.376 38.6786 267.287 36.7967 266.003C36.2985 265.66 35.6698 265.166 34.9762 264.595L34.9786 264.598Z" fill="#2F2E43"/>
<path d="M75.1754 163.566L62.1455 260.436H52.3726L45.8574 163.566H75.1796H75.1754Z" fill="#2F2E43"/>
<path d="M49.9318 216.479L30.472 241.713L38.7994 248.588L72.1955 216.842L75.1796 163.565L69.2077 168.902L49.9318 216.479Z" fill="#2F2E43"/>
<path d="M69.2071 106.582L75.179 163.566H45.8574L43.5836 145.072C42.183 133.649 44.5141 122.08 50.2293 112.09L54.7269 104.232L69.2071 106.582Z" fill="#9D50FB"/>
<path d="M71.836 179.76C71.3957 178.616 70.6807 177.599 69.754 176.797L65.8172 164.688L59.8778 166.765L64.5112 178.821C64.3861 180.035 64.5671 181.261 65.0377 182.387C66.1682 185.219 68.6097 186.928 70.4831 186.202C72.3565 185.475 72.9612 182.591 71.83 179.76H71.836Z" fill="#CFCFCF"/>
<path d="M70.3136 174.403L63.7701 177.732L49.6908 151.665V151.621L47.8174 122.461C47.7402 121.256 47.9111 120.048 48.3196 118.911C48.728 117.775 49.3652 116.734 50.1919 115.853C51.0186 114.972 52.0172 114.27 53.1261 113.79C54.2349 113.31 55.4305 113.063 56.6388 113.063C57.8471 113.063 59.0427 113.31 60.1515 113.79C61.2604 114.27 62.259 114.972 63.0857 115.853C63.9124 116.734 64.5496 117.775 64.958 118.911C65.3664 120.048 65.5374 121.256 65.4602 122.461L63.8807 147.5L70.3118 174.407L70.3136 174.403Z" fill="#9D50FB"/>
<path d="M475.801 216.982H167.942C165.073 216.982 162.747 214.914 162.744 212.365V5.11832C162.748 2.56949 165.073 0.504224 167.942 0.501221H475.801C478.671 0.501221 480.996 2.56949 480.999 5.11832V212.365C480.996 214.914 478.67 216.979 475.801 216.982ZM167.942 1.52604C165.711 1.52604 163.902 3.13475 163.899 5.11711V212.364C163.899 214.346 165.711 215.953 167.942 215.955H475.801C478.033 215.955 479.842 214.346 479.844 212.364V5.11711C479.844 3.13475 478.033 1.52844 475.801 1.52604H167.942Z" fill="#ACACAC"/>
<path d="M445.865 48.5759H198.077C196.698 48.5743 195.377 48.0264 194.403 47.0524C193.428 46.0784 192.88 44.7578 192.878 43.3803V25.4844C192.88 24.1069 193.428 22.7863 194.403 21.8123C195.377 20.8383 196.698 20.2904 198.077 20.2888H445.865C447.243 20.2904 448.565 20.8383 449.539 21.8123C450.514 22.7863 451.062 24.1069 451.064 25.4844V43.3803C451.062 44.7578 450.514 46.0784 449.539 47.0524C448.565 48.0264 447.243 48.5743 445.865 48.5759ZM198.077 21.4434C197.005 21.4447 195.977 21.8708 195.219 22.6284C194.461 23.3859 194.035 24.4131 194.033 25.4844V43.3803C194.035 44.4517 194.461 45.4788 195.219 46.2363C195.977 46.9939 197.005 47.4201 198.077 47.4213H445.865C446.937 47.4201 447.965 46.9939 448.723 46.2363C449.481 45.4788 449.907 44.4517 449.908 43.3803V25.4844C449.907 24.4131 449.481 23.3859 448.723 22.6284C447.965 21.8708 446.937 21.4447 445.865 21.4434H198.077Z" fill="#3F3D56"/>
<path d="M296.268 103.834H198.077C196.698 103.833 195.377 103.285 194.403 102.311C193.428 101.337 192.88 100.016 192.878 98.6389V80.743C192.88 79.3655 193.428 78.0449 194.403 77.0709C195.377 76.0969 196.698 75.549 198.077 75.5474H296.268C297.646 75.549 298.968 76.0969 299.942 77.0709C300.917 78.0449 301.465 79.3655 301.467 80.743V98.6389C301.465 100.016 300.917 101.337 299.942 102.311C298.968 103.285 297.646 103.833 296.268 103.834ZM198.077 76.7019C197.005 76.7032 195.977 77.1294 195.219 77.8869C194.461 78.6445 194.035 79.6716 194.033 80.743V98.6389C194.035 99.7102 194.461 100.737 195.219 101.495C195.977 102.252 197.005 102.679 198.077 102.68H296.268C297.34 102.679 298.368 102.252 299.126 101.495C299.884 100.737 300.31 99.7102 300.311 98.6389V80.743C300.31 79.6716 299.884 78.6445 299.126 77.8869C298.368 77.1294 297.34 76.7032 296.268 76.7019H198.077Z" fill="#3F3D56"/>
<path d="M445.866 103.834H347.674C346.296 103.833 344.975 103.285 344 102.311C343.026 101.337 342.477 100.016 342.476 98.6389V80.743C342.477 79.3655 343.026 78.0449 344 77.0709C344.975 76.0969 346.296 75.549 347.674 75.5474H445.866C447.244 75.549 448.565 76.0969 449.54 77.0709C450.514 78.0449 451.063 79.3655 451.064 80.743V98.6389C451.063 100.016 450.514 101.337 449.54 102.311C448.565 103.285 447.244 103.833 445.866 103.834ZM347.674 76.7019C346.602 76.7032 345.575 77.1294 344.817 77.8869C344.059 78.6445 343.632 79.6716 343.631 80.743V98.6389C343.632 99.7103 344.059 100.737 344.817 101.495C345.575 102.253 346.602 102.679 347.674 102.68H445.866C446.938 102.679 447.965 102.252 448.723 101.495C449.481 100.737 449.908 99.7102 449.909 98.6389V80.743C449.908 79.6716 449.481 78.6445 448.723 77.8869C447.965 77.1294 446.938 76.7032 445.866 76.7019H347.674Z" fill="#3F3D56"/>
<path d="M354.248 197.266H288.402C287.101 197.265 285.853 196.747 284.933 195.827C284.012 194.907 283.495 193.66 283.493 192.359V186.009C283.495 184.708 284.012 183.461 284.933 182.541C285.853 181.621 287.101 181.104 288.402 181.102H354.248C355.55 181.104 356.798 181.621 357.718 182.541C358.638 183.461 359.156 184.708 359.158 186.009V192.359C359.156 193.66 358.639 194.907 357.718 195.827C356.798 196.747 355.55 197.265 354.248 197.266Z" fill="#ACACAC"/>
<path d="M209.05 133.853C208.137 133.853 207.243 133.581 206.484 133.074C205.724 132.566 205.132 131.845 204.783 131.001C204.433 130.157 204.342 129.228 204.52 128.333C204.699 127.437 205.139 126.614 205.786 125.968C206.432 125.323 207.255 124.883 208.151 124.705C209.048 124.527 209.977 124.618 210.821 124.968C211.665 125.318 212.387 125.91 212.894 126.669C213.402 127.428 213.673 128.321 213.673 129.235C213.673 130.459 213.186 131.634 212.32 132.5C211.453 133.366 210.278 133.853 209.052 133.853H209.05ZM209.05 125.771C208.365 125.771 207.695 125.974 207.125 126.355C206.555 126.735 206.111 127.276 205.849 127.909C205.586 128.542 205.518 129.238 205.651 129.91C205.785 130.582 206.115 131.199 206.6 131.684C207.085 132.168 207.702 132.498 208.374 132.632C209.047 132.765 209.743 132.697 210.377 132.435C211.01 132.173 211.551 131.729 211.932 131.159C212.313 130.589 212.516 129.92 212.516 129.235C212.516 128.316 212.151 127.435 211.501 126.785C210.851 126.136 209.97 125.771 209.05 125.771Z" fill="#ACACAC"/>
<path d="M209.05 148.863C208.137 148.863 207.243 148.591 206.484 148.084C205.724 147.576 205.132 146.855 204.783 146.011C204.433 145.167 204.342 144.238 204.52 143.343C204.699 142.447 205.139 141.624 205.786 140.978C206.432 140.333 207.255 139.893 208.151 139.715C209.048 139.537 209.977 139.628 210.821 139.978C211.665 140.328 212.387 140.92 212.894 141.679C213.402 142.438 213.673 143.331 213.673 144.245C213.673 145.469 213.186 146.644 212.32 147.51C211.453 148.376 210.278 148.863 209.052 148.863H209.05ZM209.05 140.781C208.365 140.781 207.695 140.984 207.125 141.365C206.555 141.745 206.111 142.286 205.849 142.919C205.586 143.552 205.518 144.248 205.651 144.92C205.785 145.592 206.115 146.209 206.6 146.694C207.085 147.178 207.702 147.508 208.374 147.642C209.047 147.775 209.743 147.707 210.377 147.445C211.01 147.183 211.551 146.739 211.932 146.169C212.313 145.599 212.516 144.93 212.516 144.245C212.516 143.326 212.151 142.445 211.501 141.795C210.851 141.146 209.97 140.781 209.05 140.781Z" fill="#ACACAC"/>
<path d="M209.05 163.872C208.137 163.871 207.243 163.6 206.484 163.093C205.724 162.585 205.132 161.864 204.783 161.02C204.433 160.176 204.342 159.247 204.52 158.351C204.699 157.456 205.139 156.633 205.786 155.987C206.432 155.342 207.255 154.902 208.151 154.724C209.048 154.546 209.977 154.637 210.821 154.987C211.665 155.337 212.387 155.929 212.894 156.688C213.402 157.447 213.673 158.34 213.673 159.254C213.673 160.478 213.186 161.653 212.32 162.519C211.453 163.385 210.278 163.872 209.052 163.872H209.05ZM209.05 155.79C208.365 155.79 207.695 155.993 207.125 156.374C206.555 156.754 206.111 157.295 205.849 157.928C205.586 158.561 205.518 159.257 205.651 159.929C205.785 160.601 206.115 161.218 206.6 161.703C207.085 162.187 207.702 162.517 208.374 162.651C209.047 162.784 209.743 162.716 210.377 162.454C211.01 162.191 211.551 161.747 211.932 161.178C212.313 160.608 212.516 159.939 212.516 159.254C212.516 158.335 212.151 157.454 211.501 156.804C210.851 156.155 209.97 155.79 209.05 155.79Z" fill="#9D50FB"/>
<path d="M231.169 125.482C230.173 125.482 229.218 125.878 228.514 126.581C227.81 127.285 227.414 128.24 227.414 129.235C227.414 130.23 227.81 131.184 228.514 131.888C229.218 132.592 230.173 132.987 231.169 132.987H284.885C285.881 132.987 286.836 132.592 287.54 131.888C288.244 131.184 288.639 130.23 288.639 129.235C288.639 128.24 288.244 127.285 287.54 126.581C286.836 125.878 285.881 125.482 284.885 125.482H231.169Z" fill="#ACACAC"/>
<path d="M231.169 140.492C230.181 140.504 229.238 140.905 228.544 141.608C227.851 142.31 227.461 143.257 227.461 144.244C227.461 145.231 227.851 146.179 228.544 146.881C229.238 147.583 230.181 147.984 231.169 147.997H284.885C285.881 147.997 286.836 147.601 287.54 146.898C288.244 146.194 288.64 145.24 288.64 144.244C288.64 143.249 288.244 142.295 287.54 141.591C286.836 140.887 285.881 140.492 284.885 140.492H231.169Z" fill="#ACACAC"/>
<path d="M231.169 155.58C230.181 155.593 229.238 155.994 228.544 156.696C227.851 157.398 227.461 158.346 227.461 159.333C227.461 160.32 227.851 161.267 228.544 161.969C229.238 162.672 230.181 163.072 231.169 163.085H284.885C285.881 163.085 286.836 162.69 287.54 161.986C288.244 161.282 288.64 160.328 288.64 159.333C288.64 158.337 288.244 157.383 287.54 156.679C286.836 155.976 285.881 155.58 284.885 155.58H231.169Z" fill="#ACACAC"/>
<path d="M358.937 133.853C358.023 133.853 357.129 133.582 356.369 133.075C355.61 132.567 355.017 131.846 354.668 131.002C354.318 130.158 354.226 129.23 354.405 128.334C354.583 127.438 355.023 126.615 355.669 125.969C356.315 125.323 357.139 124.883 358.035 124.705C358.931 124.527 359.861 124.618 360.705 124.968C361.549 125.317 362.271 125.909 362.779 126.669C363.286 127.428 363.557 128.321 363.557 129.235C363.557 130.459 363.071 131.634 362.204 132.5C361.337 133.366 360.162 133.853 358.937 133.853ZM358.937 125.771C358.251 125.771 357.581 125.974 357.011 126.355C356.441 126.735 355.997 127.276 355.735 127.909C355.472 128.542 355.404 129.238 355.538 129.91C355.671 130.582 356.001 131.199 356.486 131.684C356.971 132.168 357.588 132.498 358.26 132.632C358.933 132.765 359.63 132.697 360.263 132.435C360.896 132.173 361.437 131.729 361.818 131.159C362.199 130.589 362.402 129.92 362.402 129.235C362.402 128.78 362.313 128.329 362.138 127.909C361.964 127.489 361.709 127.107 361.387 126.785C361.065 126.464 360.683 126.209 360.263 126.035C359.842 125.861 359.392 125.771 358.937 125.771Z" fill="#ACACAC"/>
<path d="M358.937 148.863C358.023 148.863 357.129 148.592 356.369 148.085C355.61 147.577 355.017 146.856 354.668 146.012C354.318 145.168 354.226 144.24 354.405 143.344C354.583 142.448 355.023 141.625 355.669 140.979C356.315 140.333 357.139 139.893 358.035 139.715C358.931 139.537 359.861 139.628 360.705 139.978C361.549 140.327 362.271 140.919 362.779 141.679C363.286 142.438 363.557 143.331 363.557 144.245C363.557 145.469 363.071 146.644 362.204 147.51C361.337 148.376 360.162 148.863 358.937 148.863ZM358.937 140.781C358.251 140.781 357.581 140.984 357.011 141.365C356.441 141.745 355.997 142.286 355.735 142.919C355.472 143.552 355.404 144.248 355.538 144.92C355.671 145.592 356.001 146.209 356.486 146.694C356.971 147.178 357.588 147.508 358.26 147.642C358.933 147.775 359.63 147.707 360.263 147.445C360.896 147.183 361.437 146.739 361.818 146.169C362.199 145.599 362.402 144.93 362.402 144.245C362.402 143.79 362.313 143.339 362.138 142.919C361.964 142.499 361.709 142.117 361.387 141.795C361.065 141.474 360.683 141.219 360.263 141.045C359.842 140.871 359.392 140.781 358.937 140.781Z" fill="#9D50FB"/>
<path d="M358.937 164.001C358.023 164.001 357.129 163.73 356.369 163.223C355.61 162.715 355.017 161.994 354.668 161.15C354.318 160.306 354.226 159.378 354.405 158.482C354.583 157.586 355.023 156.763 355.669 156.117C356.315 155.471 357.139 155.031 358.035 154.853C358.931 154.675 359.861 154.766 360.705 155.116C361.549 155.466 362.271 156.057 362.779 156.817C363.286 157.576 363.557 158.469 363.557 159.383C363.557 160.608 363.071 161.782 362.204 162.648C361.337 163.514 360.162 164.001 358.937 164.001ZM358.937 155.919C358.251 155.919 357.581 156.122 357.011 156.503C356.441 156.883 355.997 157.424 355.735 158.057C355.472 158.69 355.404 159.387 355.538 160.058C355.671 160.73 356.001 161.348 356.486 161.832C356.971 162.316 357.588 162.646 358.26 162.78C358.933 162.914 359.63 162.845 360.263 162.583C360.896 162.321 361.437 161.877 361.818 161.307C362.199 160.737 362.402 160.068 362.402 159.383C362.402 158.928 362.313 158.477 362.138 158.057C361.964 157.637 361.709 157.255 361.387 156.933C361.065 156.612 360.683 156.357 360.263 156.183C359.842 156.009 359.392 155.919 358.937 155.919Z" fill="#ACACAC"/>
<path d="M380.886 125.482C379.89 125.482 378.935 125.878 378.231 126.581C377.527 127.285 377.131 128.24 377.131 129.235C377.131 130.23 377.527 131.184 378.231 131.888C378.935 132.592 379.89 132.987 380.886 132.987H434.602C435.598 132.987 436.553 132.592 437.257 131.888C437.961 131.184 438.357 130.23 438.357 129.235C438.357 128.24 437.961 127.285 437.257 126.581C436.553 125.878 435.598 125.482 434.602 125.482H380.886Z" fill="#ACACAC"/>
<path d="M380.886 140.492C380.389 140.486 379.895 140.578 379.434 140.764C378.973 140.95 378.554 141.225 378.2 141.574C377.846 141.923 377.566 142.339 377.374 142.797C377.182 143.256 377.084 143.748 377.084 144.244C377.084 144.741 377.182 145.233 377.374 145.691C377.566 146.15 377.846 146.566 378.2 146.915C378.554 147.264 378.973 147.539 379.434 147.725C379.895 147.911 380.389 148.003 380.886 147.997H434.602C435.598 147.997 436.553 147.601 437.257 146.898C437.961 146.194 438.357 145.24 438.357 144.244C438.357 143.249 437.961 142.295 437.257 141.591C436.553 140.887 435.598 140.492 434.602 140.492H380.886Z" fill="#ACACAC"/>
<path d="M380.886 155.58C380.389 155.574 379.895 155.666 379.434 155.852C378.973 156.038 378.554 156.313 378.2 156.662C377.846 157.011 377.566 157.427 377.374 157.885C377.182 158.344 377.084 158.836 377.084 159.333C377.084 159.829 377.182 160.321 377.374 160.78C377.566 161.238 377.846 161.654 378.2 162.003C378.554 162.352 378.973 162.627 379.434 162.813C379.895 162.999 380.389 163.091 380.886 163.085H434.602C435.598 163.085 436.553 162.69 437.257 161.986C437.961 161.282 438.357 160.328 438.357 159.333C438.357 158.337 437.961 157.383 437.257 156.679C436.553 155.975 435.598 155.58 434.602 155.58H380.886Z" fill="#ACACAC"/>
<path d="M209.124 85.9386C208.128 85.9386 207.173 86.3339 206.469 87.0376C205.765 87.7413 205.369 88.6958 205.369 89.691C205.369 90.6862 205.765 91.6406 206.469 92.3443C207.173 93.048 208.128 93.4433 209.124 93.4433H273.237C274.233 93.4433 275.188 93.048 275.892 92.3443C276.596 91.6406 276.991 90.6862 276.991 89.691C276.991 88.6958 276.596 87.7413 275.892 87.0376C275.188 86.3339 274.233 85.9386 273.237 85.9386H209.124Z" fill="#ACACAC"/>
<path d="M209.124 30.6793C208.128 30.6793 207.173 31.0747 206.469 31.7784C205.765 32.4821 205.369 33.4365 205.369 34.4317C205.369 35.4269 205.765 36.3813 206.469 37.085C207.173 37.7887 208.128 38.1841 209.124 38.1841H273.237C274.233 38.1841 275.188 37.7887 275.892 37.085C276.596 36.3813 276.991 35.4269 276.991 34.4317C276.991 33.4365 276.596 32.4821 275.892 31.7784C275.188 31.0747 274.233 30.6793 273.237 30.6793H209.124Z" fill="#9D50FB"/>
<path d="M283.782 87.2806C283.731 87.2805 283.681 87.2938 283.637 87.3192C283.593 87.3445 283.557 87.3809 283.531 87.4249C283.506 87.4688 283.493 87.5187 283.493 87.5694C283.493 87.6201 283.506 87.6699 283.532 87.7138L285.983 91.9572C286.009 92.001 286.045 92.0373 286.089 92.0626C286.133 92.0878 286.183 92.1011 286.233 92.1011C286.284 92.1011 286.334 92.0878 286.378 92.0626C286.421 92.0373 286.458 92.001 286.483 91.9572L288.935 87.7138C288.96 87.6699 288.974 87.6201 288.974 87.5694C288.974 87.5187 288.961 87.4688 288.935 87.4249C288.91 87.3809 288.873 87.3445 288.829 87.3192C288.786 87.2938 288.736 87.2805 288.685 87.2806H283.782Z" fill="#9D50FB"/>
<path d="M358.721 85.9386C357.726 85.9386 356.771 86.3339 356.067 87.0376C355.363 87.7413 354.967 88.6958 354.967 89.691C354.967 90.6862 355.363 91.6406 356.067 92.3443C356.771 93.048 357.726 93.4433 358.721 93.4433H422.835C423.83 93.4433 424.785 93.048 425.489 92.3443C426.193 91.6406 426.589 90.6862 426.589 89.691C426.589 88.6958 426.193 87.7413 425.489 87.0376C424.785 86.3339 423.83 85.9386 422.835 85.9386H358.721Z" fill="#ACACAC"/>
<path d="M433.379 87.2806C433.328 87.2805 433.278 87.2938 433.234 87.3192C433.19 87.3445 433.154 87.3809 433.128 87.4249C433.103 87.4688 433.09 87.5187 433.09 87.5694C433.09 87.6201 433.103 87.6699 433.129 87.7138L435.58 91.9572C435.606 92.0011 435.642 92.0376 435.686 92.0629C435.73 92.0883 435.78 92.1016 435.831 92.1016C435.881 92.1016 435.931 92.0883 435.975 92.0629C436.019 92.0376 436.056 92.0011 436.081 91.9572L438.532 87.7138C438.557 87.6699 438.571 87.6201 438.571 87.5694C438.571 87.5187 438.558 87.4688 438.532 87.4249C438.507 87.3809 438.47 87.3445 438.426 87.3192C438.383 87.2938 438.333 87.2805 438.282 87.2806H433.379Z" fill="#9D50FB"/>
<path d="M358.938 146.554C360.214 146.554 361.248 145.52 361.248 144.245C361.248 142.969 360.214 141.936 358.938 141.936C357.662 141.936 356.627 142.969 356.627 144.245C356.627 145.52 357.662 146.554 358.938 146.554Z" fill="#9D50FB"/>
<path d="M209.052 161.642C210.328 161.642 211.362 160.608 211.362 159.333C211.362 158.058 210.328 157.024 209.052 157.024C207.776 157.024 206.741 158.058 206.741 159.333C206.741 160.608 207.776 161.642 209.052 161.642Z" fill="#9D50FB"/>
<path d="M131.234 276.497H0.485663C0.359742 276.493 0.24045 276.439 0.152936 276.349C0.0654206 276.258 0.0165062 276.137 0.0165062 276.011C0.0165062 275.885 0.0654206 275.764 0.152936 275.674C0.24045 275.583 0.359742 275.53 0.485663 275.526H131.234C131.36 275.53 131.479 275.583 131.567 275.674C131.654 275.764 131.703 275.885 131.703 276.011C131.703 276.137 131.654 276.258 131.567 276.349C131.479 276.439 131.36 276.493 131.234 276.497Z" fill="#F2F2F2"/>
<path d="M150.716 148.415L96.7881 186.19C95.7212 186.936 94.402 187.228 93.1199 187.002C91.8378 186.777 90.6975 186.052 89.9492 184.987L86.3022 179.787C85.5565 178.72 85.2643 177.402 85.4897 176.121C85.7152 174.839 86.44 173.7 87.505 172.952L141.433 135.176C142.5 134.431 143.819 134.139 145.101 134.364C146.383 134.59 147.523 135.314 148.272 136.378L151.918 141.579C152.664 142.646 152.957 143.964 152.731 145.245C152.506 146.527 151.781 147.667 150.716 148.415Z" fill="#9D50FB"/>
</g>
<defs>
<clipPath id="clip0_13_687">
<rect width="481" height="276" fill="white" transform="translate(0 0.5)"/>
</clipPath>
</defs>
</svg>
