<svg width="459" height="301" viewBox="0 0 459 301" fill="none" xmlns="http://www.w3.org/2000/svg">
<g clip-path="url(#clip0_39_65)">
<path d="M211.669 64.4997H98.4398C97.8839 64.4991 97.3509 64.3077 96.9578 63.9674C96.5647 63.6271 96.3436 63.1658 96.3429 62.6845V38.3701C96.3436 37.8889 96.5647 37.4275 96.9578 37.0872C97.3509 36.7469 97.8839 36.5555 98.4398 36.5549H211.669C212.225 36.5555 212.758 36.7469 213.151 37.0872C213.544 37.4275 213.766 37.8889 213.766 38.3701V62.6845C213.766 63.1658 213.544 63.6271 213.151 63.9674C212.758 64.3077 212.225 64.4991 211.669 64.4997ZM98.4398 37.281C98.1062 37.2813 97.7864 37.3962 97.5506 37.6003C97.3147 37.8045 97.182 38.0813 97.1817 38.3701V62.6845C97.182 62.9733 97.3147 63.2501 97.5506 63.4543C97.7864 63.6585 98.1062 63.7733 98.4398 63.7736H211.669C212.003 63.7733 212.323 63.6585 212.559 63.4543C212.794 63.2501 212.927 62.9733 212.927 62.6845V38.3701C212.927 38.0814 212.794 37.8045 212.559 37.6003C212.323 37.3962 212.003 37.2813 211.669 37.281L98.4398 37.281Z" fill="#3F3D56"/>
<path d="M116.033 56.9883C120.751 56.9883 124.575 53.6779 124.575 49.5942C124.575 45.5106 120.751 42.2002 116.033 42.2002C111.316 42.2002 107.492 45.5106 107.492 49.5942C107.492 53.6779 111.316 56.9883 116.033 56.9883Z" fill="#9D50FB"/>
<path d="M135.76 44.665C135.382 44.665 135.02 44.7949 134.753 45.026C134.486 45.2571 134.336 45.5705 134.336 45.8974C134.336 46.2242 134.486 46.5377 134.753 46.7688C135.02 46.9999 135.382 47.1297 135.76 47.1297H202.871C203.249 47.1297 203.611 46.9999 203.878 46.7688C204.145 46.5377 204.295 46.2242 204.295 45.8974C204.295 45.5705 204.145 45.2571 203.878 45.026C203.611 44.7949 203.249 44.665 202.871 44.665H135.76Z" fill="#E6E6E6"/>
<path d="M135.76 52.0591C135.382 52.0591 135.02 52.1889 134.753 52.42C134.486 52.6511 134.336 52.9646 134.336 53.2914C134.336 53.6183 134.486 53.9317 134.753 54.1628C135.02 54.3939 135.382 54.5238 135.76 54.5238H164.638C164.825 54.5241 165.011 54.4924 165.184 54.4306C165.357 54.3688 165.514 54.2781 165.646 54.1636C165.779 54.0492 165.884 53.9132 165.956 53.7635C166.027 53.6139 166.064 53.4534 166.064 53.2914C166.064 53.1294 166.027 52.969 165.956 52.8193C165.884 52.6696 165.779 52.5337 165.646 52.4192C165.514 52.3048 165.357 52.214 165.184 52.1522C165.011 52.0904 164.825 52.0588 164.638 52.0591H135.76Z" fill="#E6E6E6"/>
<path d="M162.512 151.169H112.188C111.632 151.169 111.099 150.977 110.706 150.637C110.312 150.297 110.091 149.836 110.091 149.354V103.984C110.091 103.503 110.312 103.041 110.706 102.701C111.099 102.361 111.632 102.169 112.188 102.169H162.512C163.068 102.169 163.601 102.361 163.994 102.701C164.387 103.041 164.608 103.503 164.609 103.984V149.354C164.608 149.836 164.387 150.297 163.994 150.637C163.601 150.977 163.068 151.169 162.512 151.169ZM112.188 102.895C111.854 102.895 111.534 103.01 111.298 103.214C111.062 103.418 110.93 103.695 110.929 103.984V149.354C110.93 149.643 111.062 149.92 111.298 150.124C111.534 150.328 111.854 150.443 112.188 150.443H162.512C162.845 150.443 163.165 150.328 163.401 150.124C163.637 149.92 163.77 149.643 163.77 149.354V103.984C163.77 103.695 163.637 103.418 163.401 103.214C163.165 103.01 162.845 102.895 162.512 102.895H112.188Z" fill="#3F3D56"/>
<path d="M122.911 111.525C122.533 111.525 122.171 111.655 121.904 111.886C121.637 112.117 121.487 112.43 121.487 112.757C121.487 113.084 121.637 113.398 121.904 113.629C122.171 113.86 122.533 113.99 122.911 113.99H151.789C152.166 113.99 152.528 113.86 152.795 113.629C153.062 113.398 153.212 113.084 153.212 112.757C153.212 112.43 153.062 112.117 152.795 111.886C152.528 111.655 152.166 111.525 151.789 111.525H122.911Z" fill="#E6E6E6"/>
<path d="M122.911 118.786C122.723 118.785 122.538 118.817 122.365 118.879C122.192 118.941 122.035 119.031 121.902 119.146C121.77 119.26 121.665 119.396 121.593 119.546C121.521 119.696 121.484 119.856 121.484 120.018C121.484 120.18 121.521 120.34 121.593 120.49C121.665 120.64 121.77 120.776 121.902 120.89C122.035 121.005 122.192 121.095 122.365 121.157C122.538 121.219 122.723 121.251 122.911 121.25H151.789C152.166 121.25 152.528 121.12 152.795 120.889C153.062 120.658 153.212 120.345 153.212 120.018C153.212 119.691 153.062 119.378 152.795 119.147C152.528 118.915 152.166 118.786 151.789 118.786H122.911Z" fill="#E6E6E6"/>
<path d="M137.35 141.813C135.578 141.813 133.845 141.358 132.372 140.506C130.898 139.654 129.749 138.442 129.071 137.025C128.393 135.607 128.216 134.048 128.561 132.543C128.907 131.038 129.76 129.656 131.014 128.571C132.267 127.486 133.863 126.748 135.602 126.448C137.34 126.149 139.142 126.303 140.779 126.89C142.416 127.477 143.816 128.471 144.8 129.747C145.785 131.022 146.311 132.522 146.311 134.056C146.308 136.113 145.363 138.085 143.683 139.539C142.003 140.993 139.726 141.811 137.35 141.813Z" fill="#9D50FB"/>
<path d="M244.952 0.5H295.276C295.832 0.500565 296.365 0.691987 296.758 1.03228C297.151 1.37256 297.372 1.83393 297.373 2.31517V47.6856C297.372 48.1668 297.151 48.6282 296.758 48.9685C296.365 49.3088 295.832 49.5002 295.276 49.5008H244.952C244.396 49.5002 243.863 49.3088 243.47 48.9685C243.077 48.6282 242.855 48.1668 242.855 47.6856V2.31517C242.855 1.83393 243.077 1.37256 243.47 1.03228C243.863 0.691987 244.396 0.500565 244.952 0.5ZM295.276 48.7747C295.609 48.7744 295.929 48.6595 296.165 48.4554C296.401 48.2512 296.534 47.9744 296.534 47.6856V2.31517C296.534 2.02642 296.401 1.74959 296.165 1.54541C295.929 1.34123 295.609 1.22638 295.276 1.22607H244.952C244.618 1.22638 244.298 1.34123 244.062 1.54541C243.826 1.74959 243.694 2.02642 243.693 2.31517V47.6856C243.694 47.9744 243.826 48.2512 244.062 48.4554C244.298 48.6595 244.618 48.7744 244.952 48.7747H295.276Z" fill="#3F3D56"/>
<path d="M284.553 40.1446C284.93 40.1446 285.292 40.0148 285.559 39.7837C285.826 39.5526 285.976 39.2391 285.976 38.9123C285.976 38.5854 285.826 38.272 285.559 38.0409C285.292 37.8098 284.93 37.6799 284.553 37.6799H255.675C255.297 37.6799 254.935 37.8098 254.668 38.0409C254.401 38.272 254.251 38.5854 254.251 38.9123C254.251 39.2391 254.401 39.5526 254.668 39.7837C254.935 40.0148 255.297 40.1446 255.675 40.1446H284.553Z" fill="#E6E6E6"/>
<path d="M284.553 32.8839C284.93 32.8839 285.292 32.754 285.559 32.5229C285.826 32.2918 285.976 31.9784 285.976 31.6515C285.976 31.3247 285.826 31.0112 285.559 30.7801C285.292 30.549 284.93 30.4192 284.553 30.4192H255.675C255.297 30.4192 254.935 30.549 254.668 30.7801C254.401 31.0112 254.251 31.3247 254.251 31.6515C254.251 31.9784 254.401 32.2918 254.668 32.5229C254.935 32.754 255.297 32.8839 255.675 32.8839H284.553Z" fill="#E6E6E6"/>
<path d="M270.114 9.8562C271.886 9.8562 273.618 10.3111 275.092 11.1635C276.566 12.0158 277.714 13.2273 278.392 14.6447C279.07 16.0622 279.248 17.6218 278.902 19.1265C278.556 20.6313 277.703 22.0134 276.45 23.0983C275.197 24.1831 273.6 24.9219 271.862 25.2212C270.124 25.5205 268.322 25.3669 266.685 24.7798C265.047 24.1927 263.648 23.1984 262.663 21.9228C261.678 20.6472 261.153 19.1474 261.153 17.6132C261.156 15.5566 262.101 13.585 263.78 12.1307C265.46 10.6765 267.738 9.85853 270.114 9.8562Z" fill="#9D50FB"/>
<path d="M96.9896 94.3645C105.895 88.3939 116.299 84.3223 127.36 82.4796C138.509 80.6405 150.005 81.1519 160.878 83.9705C166.343 85.3793 171.594 87.3489 176.519 89.8375C181.537 92.3769 186.071 95.503 190.434 98.8128C194.853 102.166 199.127 105.668 203.741 108.825C216.913 117.939 233.264 122.918 250.127 122.95C251.52 122.952 252.912 122.919 254.303 122.851C255.057 122.815 255.062 121.794 254.303 121.83C237.114 122.65 220.141 118.21 206.353 109.287C201.571 106.192 197.205 102.653 192.748 99.2235C188.426 95.8985 183.989 92.6641 179.086 89.9927C167.094 83.4526 153.143 80.1141 138.973 80.3937C124.803 80.6733 111.042 84.5586 99.4066 91.565C98.3003 92.2309 97.2196 92.9268 96.1564 93.6432C95.5586 94.046 96.3979 94.7632 96.9896 94.3645Z" fill="#3F3D56"/>
<path d="M96.364 99.2951C99.7461 99.2951 102.488 96.9217 102.488 93.9939C102.488 91.0661 99.7461 88.6926 96.364 88.6926C92.9819 88.6926 90.2401 91.0661 90.2401 93.9939C90.2401 96.9217 92.9819 99.2951 96.364 99.2951Z" fill="#3F3D56"/>
<path d="M324.184 169.681C327.566 169.681 330.308 167.308 330.308 164.38C330.308 161.452 327.566 159.079 324.184 159.079C320.802 159.079 318.06 161.452 318.06 164.38C318.06 167.308 320.802 169.681 324.184 169.681Z" fill="#3F3D56"/>
<path d="M356.265 134.181H256.343C255.787 134.181 255.254 133.989 254.861 133.649C254.468 133.309 254.246 132.848 254.246 132.366V87.3589C254.246 86.8777 254.468 86.4163 254.861 86.076C255.254 85.7357 255.787 85.5443 256.343 85.5437H356.265C356.821 85.5443 357.354 85.7357 357.747 86.076C358.14 86.4163 358.362 86.8776 358.362 87.3589V132.366C358.362 132.848 358.141 133.309 357.747 133.649C357.354 133.989 356.821 134.181 356.265 134.181ZM256.343 86.2698C256.009 86.2701 255.689 86.385 255.453 86.5891C255.218 86.7933 255.085 87.0701 255.084 87.3589V132.366C255.085 132.655 255.218 132.932 255.453 133.136C255.689 133.34 256.009 133.455 256.343 133.455H356.265C356.599 133.455 356.919 133.34 357.155 133.136C357.39 132.932 357.523 132.655 357.524 132.366V87.3589C357.523 87.0701 357.39 86.7933 357.155 86.5891C356.919 86.385 356.599 86.2701 356.265 86.2698H256.343Z" fill="#3F3D56"/>
<path d="M273.097 108.882C277.815 108.882 281.639 105.571 281.639 101.488C281.639 97.4039 277.815 94.0935 273.097 94.0935C268.38 94.0935 264.556 97.4039 264.556 101.488C264.556 105.571 268.38 108.882 273.097 108.882Z" fill="#9D50FB"/>
<path d="M292.824 96.5581C292.637 96.5578 292.451 96.5895 292.278 96.6513C292.105 96.7131 291.948 96.8038 291.816 96.9183C291.683 97.0327 291.578 97.1687 291.506 97.3183C291.435 97.468 291.398 97.6284 291.398 97.7904C291.398 97.9525 291.435 98.1129 291.506 98.2626C291.578 98.4122 291.683 98.5482 291.816 98.6626C291.948 98.7771 292.105 98.8678 292.278 98.9296C292.451 98.9914 292.637 99.0231 292.824 99.0228H346.628C347.006 99.0228 347.368 98.893 347.635 98.6618C347.902 98.4307 348.052 98.1173 348.052 97.7904C348.052 97.4636 347.902 97.1502 347.635 96.9191C347.368 96.6879 347.006 96.5581 346.628 96.5581H292.824Z" fill="#E6E6E6"/>
<path d="M292.824 103.952C292.637 103.952 292.451 103.984 292.278 104.045C292.105 104.107 291.948 104.198 291.816 104.312C291.683 104.427 291.578 104.563 291.506 104.712C291.435 104.862 291.398 105.022 291.398 105.184C291.398 105.347 291.435 105.507 291.506 105.657C291.578 105.806 291.683 105.942 291.816 106.057C291.948 106.171 292.105 106.262 292.278 106.324C292.451 106.385 292.637 106.417 292.824 106.417H321.702C322.08 106.417 322.442 106.287 322.709 106.056C322.976 105.825 323.126 105.511 323.126 105.184C323.126 104.858 322.976 104.544 322.709 104.313C322.442 104.082 322.08 103.952 321.702 103.952H292.824Z" fill="#E6E6E6"/>
<path d="M266.546 115.773C265.463 115.773 264.582 116.326 264.582 117.006C264.582 117.685 265.463 118.238 266.546 118.238H345.832C346.915 118.238 347.796 117.685 347.796 117.006C347.796 116.326 346.915 115.773 345.832 115.773H266.546Z" fill="#E6E6E6"/>
<path d="M266.546 123.167C265.463 123.167 264.582 123.72 264.582 124.4C264.582 125.079 265.463 125.632 266.546 125.632H345.832C346.915 125.632 347.796 125.079 347.796 124.4C347.796 123.72 346.915 123.167 345.832 123.167H266.546Z" fill="#E6E6E6"/>
<path d="M248.31 169.315C253.948 167.198 260.241 169.044 265.555 170.995C268.291 172 270.999 173.072 273.831 173.866C276.213 174.532 278.653 175.032 281.127 175.363C286.092 176.021 291.142 176.048 296.116 175.442C301.115 174.839 305.987 173.612 310.581 171.801C315.149 170.009 319.371 167.619 323.1 164.716C323.574 164.345 324.04 163.965 324.495 163.577C325.038 163.117 324.205 162.396 323.662 162.856C320.072 165.886 315.95 168.405 311.45 170.319C306.968 172.227 302.187 173.556 297.26 174.265C292.317 174.987 287.277 175.062 282.308 174.489C279.83 174.198 277.382 173.738 274.988 173.111C272.238 172.337 269.54 171.43 266.907 170.394C261.544 168.401 255.586 166.448 249.693 167.823C249.017 167.985 248.356 168.189 247.716 168.434C247.022 168.695 247.621 169.574 248.31 169.315Z" fill="#3F3D56"/>
<path d="M246.132 181.826H198.924L210.033 165.168C210.233 164.87 210.519 164.622 210.864 164.449C211.209 164.277 211.6 164.186 211.998 164.186C212.396 164.186 212.788 164.277 213.133 164.449C213.477 164.622 213.764 164.87 213.963 165.168L218.709 172.284L226.779 160.185C227.028 159.811 227.387 159.501 227.818 159.285C228.25 159.069 228.74 158.955 229.239 158.955C229.737 158.955 230.227 159.069 230.659 159.285C231.091 159.501 231.449 159.811 231.698 160.185L246.132 181.826Z" fill="#9D50FB"/>
<path d="M246.177 181.822H195.852C195.297 181.821 194.764 181.63 194.37 181.29C193.977 180.949 193.756 180.488 193.756 180.007V155.692C193.756 155.211 193.977 154.75 194.37 154.409C194.764 154.069 195.297 153.878 195.852 153.877H246.177C246.733 153.878 247.266 154.069 247.659 154.409C248.052 154.75 248.273 155.211 248.274 155.692V180.007C248.273 180.488 248.052 180.949 247.659 181.29C247.266 181.63 246.733 181.821 246.177 181.822ZM195.852 154.603C195.519 154.604 195.199 154.718 194.963 154.923C194.727 155.127 194.595 155.404 194.594 155.692V180.007C194.595 180.296 194.727 180.572 194.963 180.777C195.199 180.981 195.519 181.096 195.852 181.096H246.177C246.51 181.096 246.83 180.981 247.066 180.777C247.302 180.572 247.435 180.296 247.435 180.007V155.692C247.435 155.404 247.302 155.127 247.066 154.923C246.83 154.718 246.51 154.604 246.177 154.603H195.852Z" fill="#3F3D56"/>
<path d="M344.882 160.423L335.911 164.366C332.71 165.773 329.62 165.533 328.437 162.598C328.155 161.9 328.051 161.157 328.132 160.42C328.213 159.684 328.476 158.971 328.905 158.331C329.333 157.691 329.916 157.139 330.614 156.712C331.312 156.285 332.108 155.994 332.948 155.858L341.474 154.481L377.986 143.994L400.104 130.417L408.212 141.6L382.655 153.538L344.882 160.423Z" fill="#FFB8B8"/>
<path d="M386.755 291.309L379.892 290.318L380.654 279.096H387.899L386.755 291.309Z" fill="#FFB8B8"/>
<path d="M453.365 280.348L446.723 282.141L441.561 271.826L448.028 269L453.365 280.348Z" fill="#FFB8B8"/>
<path d="M449.666 270.514L441.278 273.485L401.244 227.936L388.661 281.406L380.273 280.086C374.892 233.988 370.505 186.968 375.888 164.729L406.963 163.574L421.07 202.521L427.933 228.926L449.666 270.514Z" fill="#2F2E41"/>
<path d="M386.377 300.384C385.122 300.617 383.814 300.497 382.644 300.041L378.567 298.453C375.149 298.301 372.821 298.89 370.918 296.74C370.381 296.125 370.043 295.398 369.941 294.632C369.839 293.867 369.975 293.091 370.335 292.387C370.693 291.68 371.261 291.068 371.982 290.614C372.703 290.16 373.55 289.88 374.437 289.803L380.037 286.749L380.331 289.038C382.89 290.294 385.929 289.751 389.148 288.53L390.906 293.855C391.133 294.541 391.194 295.261 391.086 295.969C390.978 296.677 390.703 297.358 390.279 297.97C389.854 298.583 389.289 299.113 388.618 299.528C387.946 299.943 387.184 300.235 386.377 300.384Z" fill="#2F2E41"/>
<path d="M456.083 289.461C454.983 290.034 453.701 290.288 452.423 290.186L447.971 289.83C444.681 290.647 442.7 291.859 440.094 290.36C439.355 289.93 438.763 289.336 438.379 288.641C437.995 287.946 437.833 287.174 437.91 286.406C437.983 285.637 438.291 284.899 438.802 284.267C439.313 283.635 440.01 283.132 440.82 282.81L444.971 278.346L446.108 280.43C448.999 280.897 451.67 279.53 454.257 277.47L457.916 282.012C458.388 282.598 458.716 283.261 458.88 283.961C459.043 284.661 459.039 285.383 458.867 286.081C458.695 286.78 458.359 287.44 457.88 288.021C457.401 288.603 456.789 289.093 456.083 289.461Z" fill="#2F2E41"/>
<path d="M395.524 116.705C403.105 116.705 409.25 111.385 409.25 104.823C409.25 98.2605 403.105 92.9407 395.524 92.9407C387.944 92.9407 381.798 98.2605 381.798 104.823C381.798 111.385 387.944 116.705 395.524 116.705Z" fill="#FFB8B8"/>
<path d="M412.301 129.908L394.38 126.607L392.093 113.735L404.675 111.424L412.301 129.908Z" fill="#FFB8B8"/>
<path d="M407.344 165.224H375.317L382.536 149.534C382.011 144.136 384.654 140.165 388.437 136.708L393.237 126.277C400.991 121.859 406.838 122.189 413.063 127.927C420.445 136.974 415.335 150.574 407.344 165.224Z" fill="#9D50FB"/>
<path d="M392.855 198.561L391.945 207.234C391.619 210.33 389.742 212.467 386.241 211.775C385.408 211.61 384.626 211.291 383.948 210.84C383.271 210.39 382.714 209.818 382.315 209.163C381.917 208.509 381.687 207.788 381.64 207.049C381.593 206.31 381.732 205.572 382.046 204.884L385.23 197.901L394.381 165.554L392.855 142.12H408.107L406.2 167.205L392.855 198.561Z" fill="#FFB8B8"/>
<path d="M409.25 142.78H391.712L392.941 132.876C393.022 131.163 393.84 129.538 395.234 128.32C396.628 127.102 398.497 126.379 400.475 126.294C401.523 126.248 402.571 126.383 403.559 126.691C404.546 126.999 405.454 127.473 406.228 128.086C407.002 128.699 407.629 129.439 408.071 130.263C408.512 131.087 408.761 131.979 408.802 132.887L409.25 142.78Z" fill="#9D50FB"/>
<path d="M412.512 92.6053C415.362 92.6053 417.672 90.6057 417.672 88.1391C417.672 85.6724 415.362 83.6729 412.512 83.6729C409.663 83.6729 407.353 85.6724 407.353 88.1391C407.353 90.6057 409.663 92.6053 412.512 92.6053Z" fill="#2F2E41"/>
<path d="M407.196 87.0457C407.281 85.9125 407.861 84.8499 408.82 84.0744C409.778 83.2988 411.041 82.8686 412.353 82.8713C412.246 82.8596 412.141 82.8454 412.032 82.8394C410.667 82.7641 409.324 83.1611 408.297 83.9432C407.27 84.7253 406.643 85.8284 406.556 87.01C406.468 88.1916 406.926 89.3551 407.829 90.2445C408.731 91.134 410.005 91.6767 411.37 91.7534C411.479 91.7595 411.586 91.7571 411.693 91.7573C410.392 91.6146 409.202 91.0478 408.367 90.1724C407.531 89.297 407.113 88.1789 407.196 87.0457Z" fill="#2F2E41"/>
<path d="M407.167 88.9527C402.566 85.6484 389.368 89.848 388.517 92.0695C382.294 92.8036 377.584 95.9462 377.584 101.534C381.283 102.846 385.49 102.684 390.038 101.534C397.288 106.649 397.785 113.078 393.376 120.463L398.8 120.557L405.524 112.05L405.845 120.679L418.279 120.463V108.097C418.319 103.986 417.226 99.9256 415.09 96.2532C413.153 92.9945 410.146 91.0918 407.167 88.9527Z" fill="#2F2E41"/>
<path d="M395.589 110.8C396.951 110.8 398.056 109.461 398.056 107.81C398.056 106.159 396.951 104.82 395.589 104.82C394.226 104.82 393.122 106.159 393.122 107.81C393.122 109.461 394.226 110.8 395.589 110.8Z" fill="#FFB8B8"/>
<path d="M85.1607 111.604C85.1607 111.604 86.6458 89.3515 94.3559 94.4079C102.066 99.4643 90.9888 113.668 90.9888 113.668L85.1607 111.604Z" fill="#FFB9B9"/>
<path d="M56.4758 177.612C56.4758 177.612 73.6025 194.256 64.0204 195.4C54.4383 196.544 50.669 179.72 50.669 179.72L56.4758 177.612Z" fill="#FFB9B9"/>
<path d="M34.127 98.8259C36.2765 99.3156 38.2111 100.344 39.6876 101.782C41.1641 103.221 42.1168 105.005 42.4261 106.91L47.8739 140.477L55.511 167.253C55.511 167.253 59.3296 170.228 57.8022 171.88C56.2748 173.533 59.7115 180.475 59.7115 180.475L50.165 183.12C50.165 183.12 49.0194 176.178 47.1102 175.847C45.4322 175.557 26.6488 132.12 22.1213 121.597C21.497 120.146 21.1438 119.321 21.1438 119.321C21.1438 119.321 21.9075 97.1731 34.127 98.8259Z" fill="#575A89"/>
<path d="M35.8707 273.873L41.7344 282.869C46.2752 291.261 42.24 292.786 31.1064 288.626L28.5685 278.004L35.8707 273.873Z" fill="#FFB9B9"/>
<path d="M38.8293 285.829C38.8293 285.829 41.6128 281.905 42.6196 282.562C43.6264 283.219 47.779 286.064 47.779 286.064L53.188 290.549C53.188 290.549 71.4627 292.222 59.8505 297.765C48.2384 303.307 41.8212 298.712 41.8212 298.712C41.8212 298.712 25.5573 299.444 25.8197 295.516C26.082 291.588 31.3272 285.373 31.3272 285.373C31.3272 285.373 37.938 289.21 38.8293 285.829Z" fill="#2F2E41"/>
<path d="M9.85054 172.194L15.3478 229.775C15.3478 229.775 15.531 264.197 21.3947 270.859C27.2584 277.522 27.4416 280.853 27.4416 280.853L39.5355 275.459C39.5355 275.459 33.3053 266.473 34.588 265.097C35.3787 264.224 35.9413 263.214 36.2372 262.135L32.9389 226.603L39.169 164.739L9.85054 172.194Z" fill="#2F2E41"/>
<path d="M24.876 273.873L19.7453 285.612L8.10952 281.4L14.2482 272.604L24.876 273.873Z" fill="#FFB9B9"/>
<path d="M16.3166 281.658C16.3166 281.658 20.6807 279.297 21.2262 280.241C21.7717 281.186 23.9537 285.2 23.9537 285.2L26.4084 291.102C26.4084 291.102 41.4098 299.366 28.5905 299.839C15.7711 300.311 12.4981 293.936 12.4981 293.936C12.4981 293.936 -1.95771 288.505 0.224318 285.199C2.40634 281.894 10.0434 278.466 10.0434 278.466C10.0434 278.466 13.8619 284.255 16.3166 281.658Z" fill="#2F2E41"/>
<path d="M56.3937 172.353L59.3255 225.334C59.3255 225.334 32.5724 273.239 29.6405 274.508C28.7669 274.898 27.9925 275.436 27.363 276.09C26.7336 276.744 26.2619 277.5 25.9757 278.315L9.85053 274.825L17.1802 264.673L33.3054 230.727C33.3054 230.727 35.8707 229.775 36.6037 226.603C37.3367 223.43 38.8026 223.43 35.1378 222.796C31.4729 222.161 31.4729 218.989 31.4729 218.989L19.379 170.766L56.3937 172.353Z" fill="#2F2E41"/>
<path d="M57.6703 78.5754C58.9671 71.6573 53.54 65.1391 45.5485 64.0164C37.5569 62.8938 30.0272 67.5919 28.7304 74.5099C27.4335 81.428 32.8606 87.9462 40.8522 89.0689C48.8437 90.1915 56.3734 85.4934 57.6703 78.5754Z" fill="#FFB9B9"/>
<path d="M30.1902 77.3357C30.1902 77.3357 29.0908 93.5155 27.6249 95.1018C26.159 96.6881 43.0171 96.3708 43.0171 96.3708C43.0171 96.3708 41.9177 82.729 43.0171 81.46C44.1165 80.191 30.1902 77.3357 30.1902 77.3357Z" fill="#FFB9B9"/>
<path d="M57.4918 175.843C57.4918 175.843 16.0793 172.671 8.38512 175.843C8.38512 175.843 11.2176 166.747 10.4857 165.796C9.95342 165.101 11.4219 139.191 10.9609 124.245C10.6995 115.811 8.45166 107.575 14.9862 101.313C17.2104 99.1863 19.6911 97.4009 22.3097 96.5287C22.3097 96.5287 21.5778 90.5016 25.2419 90.1849C25.2419 90.1849 39.1712 88.9136 44.2991 92.7232C45.9387 93.9327 46.97 97.6189 47.0793 100.795C44.5415 111.598 45.4397 123.587 47.7684 136.023C47.9109 136.813 48.0678 137.607 48.2246 138.401C50.6958 150.735 54.4312 163.451 57.4918 175.843Z" fill="#575A89"/>
<path d="M35.5421 80.2819C36.7818 80.2179 37.9923 80.5806 39.2235 80.7221C43.6281 81.2283 48.2103 78.4614 49.1829 74.7082C49.2608 74.2084 49.4329 73.7231 49.6923 73.2715C50.3702 72.3134 51.914 72.1307 53.1867 72.351C54.4594 72.5713 55.6658 73.087 56.9619 73.1459C58.9632 73.2367 60.8844 72.1702 61.9509 70.7015C62.9588 69.1863 63.3874 67.4341 63.1754 65.6953L62.2161 66.567C61.8262 65.853 61.6757 65.0587 61.7817 64.2743C61.2733 64.1571 60.7386 64.1549 60.229 64.2678C59.7193 64.3807 59.2516 64.605 58.8707 64.9191C58.0248 64.9971 58.6632 63.5608 58.0348 63.0645C57.7291 62.9019 57.3648 62.8429 57.0119 62.8988C55.2123 62.9139 53.7565 61.7223 52.3383 60.763C49.8812 59.1047 47.0078 57.9701 43.9504 57.451C41.9183 57.1078 39.7574 57.0527 37.8302 57.7078C36.2744 58.3123 34.8704 59.1745 33.6971 60.2458C30.6798 62.7573 28.0081 65.7083 26.7528 69.165C25.7324 71.9964 25.7035 75.026 26.6698 77.8716C27.1755 79.3494 28.6999 84.4104 30.9314 84.5282C33.7354 84.6763 32.0519 80.4622 35.5421 80.2819Z" fill="#2F2E41"/>
<path d="M41.6099 100.384L46.8618 100.871C46.8618 100.871 52.0173 109.529 51.6429 111.335C51.2685 113.141 50.4532 112.045 52.7736 114.934C55.094 117.824 61.6785 125.293 62.4939 126.389C63.3092 127.485 85.5376 112.804 84.1557 108.405C84.1557 108.405 91.1761 112.765 94.1838 113.345C94.1838 113.345 71.2756 139.353 68.0833 142.682C64.8909 146.01 62.3217 145.326 57.9346 143.353C53.5474 141.38 31.3531 121.695 31.3531 121.695L41.6099 100.384Z" fill="#575A89"/>
<path opacity="0.1" d="M48.2246 138.401L29.9706 122.599L34.5899 121.295L47.7683 136.023C47.9109 136.813 48.0678 137.607 48.2246 138.401Z" fill="black"/>
</g>
<defs>
<clipPath id="clip0_39_65">
<rect width="459" height="300" fill="white" transform="translate(0 0.5)"/>
</clipPath>
</defs>
</svg>
