<svg width="403" height="307" viewBox="0 0 403 307" fill="none" xmlns="http://www.w3.org/2000/svg">
<g clip-path="url(#clip0_39_2)">
<path d="M254.956 305.722C254.956 305.722 248.778 290.852 267.309 279.7L254.956 305.722Z" fill="#E6E6E6"/>
<path d="M247.359 305.451C247.359 305.451 245.475 294.853 230.891 294.944L247.359 305.451Z" fill="#E6E6E6"/>
<path d="M386.679 305.722C386.679 305.722 378.519 286.077 403 271.344L386.679 305.722Z" fill="#E6E6E6"/>
<path d="M376.643 305.364C376.643 305.364 374.154 291.363 354.886 291.483L376.643 305.364Z" fill="#E6E6E6"/>
<path d="M234.049 85.5591L225.99 81.3727L226.593 81.0591L234.652 85.246L234.049 85.5591Z" fill="#CBCBCB"/>
<path d="M227.019 85.5591L226.417 85.246L234.476 81.0591L235.079 81.3727L227.019 85.5591Z" fill="#CBCBCB"/>
<path d="M167.036 53.1083L166.647 53.8506L168.924 54.9915L169.313 54.2493L167.036 53.1083Z" fill="#CBCBCB"/>
<path d="M214.239 77.7003L209.707 75.4294L210.096 74.6871L214.628 76.958L214.239 77.7003ZM205.176 73.1585L200.644 70.8875L201.033 70.1452L205.565 72.4162L205.176 73.1585ZM196.113 68.6166L191.581 66.3458L191.97 65.6035L196.502 67.8743L196.113 68.6166ZM187.05 64.0749L182.518 61.804L182.907 61.0617L187.439 63.3326L187.05 64.0749ZM177.987 59.5332L173.456 57.2623L173.844 56.52L178.376 58.7909L177.987 59.5332Z" fill="#CBCBCB"/>
<path d="M219.159 79.2289L218.77 79.9712L221.047 81.1121L221.436 80.3699L219.159 79.2289Z" fill="#CBCBCB"/>
<path d="M47.2594 108.936C47.2594 109.196 47.2508 109.455 47.2335 109.711C47.1367 111.188 46.7551 112.634 46.1089 113.973C46.1038 113.984 46.098 113.995 46.093 114.005C46.0629 114.067 46.032 114.129 46.0003 114.191C45.8081 114.569 45.5948 114.937 45.3615 115.293C44.2959 116.926 42.8352 118.278 41.1086 119.228C39.3821 120.178 37.4428 120.698 35.4621 120.741L35.5815 127.457L37.1387 126.655L37.4168 127.172L35.5932 128.111L35.8161 140.583L35.8186 140.75L34.6146 141.012L34.6171 140.844L34.9962 120.742C33.4019 120.72 31.8281 120.388 30.366 119.766C28.904 119.144 27.5829 118.244 26.4794 117.118C26.4035 117.041 26.3283 116.962 26.2548 116.884L26.2465 116.875C25.3271 115.894 24.5836 114.769 24.0472 113.546C24.0589 113.559 24.0714 113.572 24.0831 113.585C22.8709 110.812 22.7886 107.692 23.8533 104.862C24.9179 102.032 27.0488 99.7081 29.8093 98.3654C29.8511 98.345 29.8937 98.3254 29.9354 98.305C32.666 97.0187 35.7911 96.7827 38.6913 97.6437C41.5915 98.5048 44.055 100.4 45.5936 102.954C45.6672 103.075 45.7381 103.198 45.8066 103.322C46.7623 105.045 47.2618 106.975 47.2594 108.936Z" fill="#E5E5E5"/>
<path d="M45.6341 114.012C54.3746 114.012 61.4601 107.082 61.4601 98.5344C61.4601 89.9865 54.3746 83.0571 45.6341 83.0571C36.8936 83.0571 29.808 89.9865 29.808 98.5344C29.808 107.082 36.8936 114.012 45.6341 114.012Z" fill="#E5E5E5"/>
<path opacity="0.2" d="M33.9486 88.1968C32.4724 91.5738 32.2721 95.3542 33.3836 98.8623C34.4951 102.37 36.8459 105.378 40.016 107.347C43.186 109.316 46.9687 110.119 50.6881 109.611C54.4076 109.104 57.8214 107.32 60.3195 104.577C59.4177 106.641 58.068 108.487 56.3639 109.99C54.6599 111.492 52.6422 112.615 50.4506 113.279C48.2591 113.943 45.9461 114.133 43.6719 113.836C41.3977 113.539 39.2167 112.762 37.28 111.559C35.3433 110.356 33.6971 108.756 32.4557 106.869C31.2142 104.982 30.4071 102.854 30.0902 100.631C29.7733 98.4092 29.9543 96.1461 30.6205 93.999C31.2867 91.8519 32.4223 89.8721 33.9486 88.1968Z" fill="black"/>
<path d="M46.4902 141.651L44.8739 141.208L44.8773 141.038L45.3616 115.293L45.3858 114.009L45.3863 113.972L45.4711 109.474L45.5936 102.955V102.954L45.6769 98.5347H45.7215L45.8067 103.322L45.9177 109.554L45.9971 113.975V114.008L46.0005 114.19V114.191L46.154 122.81L46.17 123.666L46.4873 141.48L46.4902 141.651Z" fill="#3F3D56"/>
<path d="M48.1946 121.759L45.5785 123.106L45.9431 123.783L48.5592 122.436L48.1946 121.759Z" fill="#3F3D56"/>
<path d="M250.786 48.4445C230.811 47.2896 210.776 47.5908 190.846 49.3456C181.241 50.1947 171.482 51.1119 162.054 53.161C154.46 54.8115 145.646 57.6011 140.915 64.0985C139.924 65.4077 139.256 66.9233 138.963 68.5268C138.671 70.1304 138.762 71.7783 139.229 73.3418C140.357 77.0457 143.164 80.1288 146.152 82.5436C153.032 88.1015 161.567 91.3356 169.191 95.7511C183.112 103.813 195.852 114.679 204.029 128.483C207.628 134.557 211.05 142.634 207.044 149.327C203.118 155.884 194.356 158.143 187.209 159.208C178.252 160.544 169.026 160.182 160.032 159.434C150.171 158.535 140.365 157.13 130.655 155.226C111.632 151.654 92.7817 147.11 73.4942 145.043C63.8234 143.931 54.071 143.655 44.3506 144.219C35.5719 144.798 26.718 146.156 18.4711 149.252C12.1161 151.637 5.34208 155.246 1.90938 161.265C-1.39959 167.067 -0.108988 173.758 3.49407 179.111C7.82928 185.552 14.5894 189.966 21.6178 193.192C29.6201 196.865 38.1794 199.246 46.7497 201.271C51.0963 202.298 55.4663 203.226 59.8368 204.149C60.7486 204.342 61.1382 202.972 60.2231 202.779C51.4096 200.917 42.5707 199.048 33.9761 196.352C26.0227 193.857 17.8834 190.661 11.3703 185.422C6.10121 181.184 1.09135 174.993 1.40236 167.954C1.71588 160.859 7.80334 155.905 13.7699 152.855C21.2264 149.045 29.698 147.188 37.9992 146.218C47.5042 145.182 57.0899 145.055 66.6202 145.837C85.8622 147.269 104.674 151.556 123.54 155.295C141.868 158.927 160.768 162.29 179.551 161.359C186.996 160.99 194.972 159.946 201.546 156.271C204.555 154.589 207.269 152.216 208.799 149.128C210.177 146.19 210.613 142.913 210.049 139.728C208.983 132.731 204.734 126.244 200.494 120.671C195.847 114.627 190.455 109.166 184.443 104.411C177.844 99.217 170.728 94.684 163.204 90.8798C159.214 88.8252 155.167 86.8496 151.364 84.4699C147.718 82.1883 144.121 79.4429 141.894 75.7388C139.969 72.5351 139.615 68.8787 141.621 65.6295C143.65 62.3432 147.145 60.0512 150.592 58.3762C158.897 54.3408 168.552 53.2606 177.639 52.1537C197.148 49.7853 216.81 48.8265 236.464 49.2853C241.241 49.3952 246.015 49.5886 250.786 49.8655C251.72 49.9193 251.717 48.4981 250.786 48.4445Z" fill="black"/>
<path d="M238.114 2.89311L241.131 0.533052C238.787 0.280143 237.824 1.53034 237.43 2.51987C235.599 1.77624 233.605 2.7508 233.605 2.7508L239.642 4.89415C239.338 4.09861 238.808 3.40447 238.114 2.89311Z" fill="#3F3D56"/>
<path d="M223.471 10.3645L226.488 8.00449C224.144 7.75158 223.181 9.00176 222.787 9.9913C220.956 9.24767 218.962 10.2222 218.962 10.2222L224.999 12.3656C224.695 11.57 224.165 10.8759 223.471 10.3645Z" fill="#3F3D56"/>
<path d="M238.114 22.1946L241.131 19.8346C238.787 19.5817 237.824 20.8318 237.43 21.8214C235.599 21.0777 233.605 22.0523 233.605 22.0523L239.642 24.1957C239.338 23.4001 238.808 22.706 238.114 22.1946Z" fill="#3F3D56"/>
<path d="M192.881 25.6913C197.901 25.6913 201.971 21.711 201.971 16.801C201.971 11.891 197.901 7.91064 192.881 7.91064C187.86 7.91064 183.79 11.891 183.79 16.801C183.79 21.711 187.86 25.6913 192.881 25.6913Z" fill="#FF6583"/>
<path d="M221.387 44.1961H176.791C176.735 44.1968 176.679 44.1925 176.624 44.1832L197.717 8.45591C197.845 8.23335 198.032 8.0482 198.258 7.91937C198.484 7.79054 198.74 7.72266 199.002 7.72266C199.263 7.72266 199.52 7.79054 199.746 7.91937C199.972 8.0482 200.158 8.23335 200.287 8.45591L214.442 32.4309L215.12 33.5779L221.387 44.1961Z" fill="#9D50FB"/>
<path d="M246.216 44.1966H207.645L215.119 33.5792L215.657 32.8141L225.396 18.9779C225.568 18.7662 225.784 18.5923 226.03 18.4676C226.275 18.3428 226.545 18.27 226.821 18.2539C227.097 18.2378 227.374 18.2787 227.632 18.374C227.891 18.4693 228.127 18.6168 228.324 18.8069C228.374 18.8609 228.421 18.918 228.464 18.9779L246.216 44.1966Z" fill="#9D50FB"/>
<path d="M182.591 126.137C186.818 128.204 189.391 130.933 189.391 133.926C189.391 140.373 177.461 145.6 162.744 145.6C156.346 145.6 150.476 144.612 145.883 142.965C150.761 145.35 157.844 146.851 165.729 146.851C180.446 146.851 192.376 141.624 192.376 135.177C192.376 131.532 188.563 128.278 182.591 126.137Z" fill="#F1F1F1"/>
<path d="M191.993 130.566C196.763 132.898 199.667 135.977 199.667 139.354C199.667 146.63 186.205 152.528 169.599 152.528C162.379 152.528 155.756 151.412 150.572 149.554C156.078 152.245 164.069 153.94 172.967 153.94C189.573 153.94 203.035 148.042 203.035 140.766C203.035 136.654 198.732 132.982 191.993 130.566Z" fill="#F1F1F1"/>
<path d="M178.993 128.088C181.971 129.544 183.784 131.467 183.784 133.575C183.784 138.118 175.378 141.801 165.01 141.801C160.971 141.852 156.952 141.224 153.131 139.944C156.568 141.624 161.557 142.682 167.113 142.682C177.481 142.682 185.886 138.999 185.886 134.457C185.886 131.889 183.2 129.597 178.993 128.088Z" fill="#F1F1F1"/>
<path d="M137.148 127.254C137.148 127.254 137.803 136.609 156.562 136.609C175.322 136.609 180.923 127.254 180.923 127.254H137.148Z" fill="#3F3D56"/>
<path d="M163.775 102.71C161.067 100.698 157.668 99.7889 154.29 100.173C157.309 100.885 159.975 102.614 161.821 105.056C163.666 107.499 164.573 110.499 164.382 113.531C164.191 116.562 162.915 119.431 160.777 121.633C158.638 123.836 155.775 125.232 152.69 125.576C155.641 126.273 158.748 125.955 161.488 124.675C164.227 123.395 166.433 121.232 167.734 118.549C169.035 115.866 169.351 112.827 168.63 109.942C167.909 107.058 166.195 104.504 163.775 102.71Z" fill="#3F3D56"/>
<path d="M157.628 98.4846H156.349V128.259H157.628V98.4846Z" fill="#3F3D56"/>
<path d="M241.687 76.3618L241.68 76.3503L241.663 75.623L245.67 69.9335L241.668 75.0786L241.653 75.2324L241.516 69.417L244.977 63.5182L241.506 68.3953L241.543 56.3472L241.542 56.3071L241.541 56.3466L241.312 65.8421L238.157 61.985L241.301 66.6601L241.233 71.8619L238.33 66.7852L241.222 72.6267L241.183 75.5191L241.077 83.5326L241.07 84.1313C241.337 84.1333 241.602 84.129 241.863 84.1183L241.682 76.4212L241.687 76.3618Z" fill="#CBCBCB"/>
<path d="M222.501 78.8635L222.494 78.852L222.477 78.1248L226.484 72.4352L222.482 77.5804L222.467 77.7341L222.33 71.9187L225.791 66.0199L222.321 70.897L222.357 58.8489L222.357 58.8088L222.356 58.8483L222.126 68.3438L218.971 64.4867L222.116 69.1618L222.047 74.3636L219.144 69.2869L222.036 75.1284L221.998 78.0208L221.892 86.0342L221.884 86.633C222.151 86.635 222.416 86.6307 222.678 86.62L222.496 78.9229L222.501 78.8635Z" fill="#CBCBCB"/>
<path d="M231.881 70.9414L231.874 70.9299L231.857 70.2026L235.864 64.513L231.862 69.6582L231.847 69.812L231.71 63.9965L235.171 58.0978L231.7 62.9749L231.737 50.9268L231.736 50.8867L231.735 50.9262L231.506 60.4217L228.351 56.5646L231.495 61.2397L231.426 66.4415L228.524 61.3648L231.416 67.2062L231.377 70.0987L231.271 78.1121L231.264 78.7109C231.531 78.7129 231.796 78.7085 232.057 78.6978L231.876 71.0008L231.881 70.9414Z" fill="#CBCBCB"/>
<path d="M73.4238 209.395C76.2494 209.395 78.54 207.154 78.54 204.391C78.54 201.628 76.2494 199.388 73.4238 199.388C70.5982 199.388 68.3076 201.628 68.3076 204.391C68.3076 207.154 70.5982 209.395 73.4238 209.395Z" fill="#9D50FB"/>
<path d="M346.51 296.751L341.773 298.472L332.731 281.424L339.722 278.884L346.51 296.751Z" fill="#FFB7B7"/>
<path d="M349.423 300.802L334.151 306.351L334.079 306.162C333.493 304.621 333.558 302.914 334.258 301.419C334.959 299.924 336.238 298.762 337.815 298.189L347.143 294.8L349.423 300.802Z" fill="#2F2E41"/>
<path d="M299.896 301.561L294.844 301.561L292.44 282.501L299.897 282.501L299.896 301.561Z" fill="#FFB7B7"/>
<path d="M300.773 306.351L284.48 306.351V306.149C284.481 304.504 285.149 302.927 286.338 301.764C287.527 300.601 289.14 299.948 290.822 299.948L300.773 299.948L300.773 306.351Z" fill="#2F2E41"/>
<path d="M323.03 169.371L321.382 166.146L307.369 172.998L307.781 175.82L305.102 179.246C305.102 179.246 300.568 181.664 301.392 189.726L302.217 197.384L303.247 207.259L296.034 231.645L292.325 263.89L289.646 289.888L302.629 289.283L314.581 246.961L335.601 292.508L350.026 288.88L330.243 243.737L327.77 224.792C327.77 224.792 329.419 214.716 321.588 207.864L322.824 204.236V199.766L326.946 178.44L323.03 169.371Z" fill="#2F2E41"/>
<path opacity="0.2" d="M323.415 215.458L314.348 246.897L314.814 247.025L323.882 215.586L323.415 215.458Z" fill="black"/>
<path d="M322.618 207.259H302.423V209.274H322.618V207.259Z" fill="#3F3D56"/>
<path d="M302.423 210.484C302.878 210.484 303.247 209.581 303.247 208.468C303.247 207.355 302.878 206.453 302.423 206.453C301.967 206.453 301.598 207.355 301.598 208.468C301.598 209.581 301.967 210.484 302.423 210.484Z" fill="#3F3D56"/>
<path d="M316.8 164.158C322.124 161.312 324.08 154.784 321.17 149.577C318.26 144.37 311.584 142.457 306.26 145.303C300.937 148.149 298.98 154.677 301.89 159.884C304.801 165.09 311.476 167.004 316.8 164.158Z" fill="#FFB7B7"/>
<path d="M328.341 150.895C333.709 150.895 338.06 146.639 338.06 141.39C338.06 136.141 333.709 131.885 328.341 131.885C322.974 131.885 318.622 136.141 318.622 141.39C318.622 146.639 322.974 150.895 328.341 150.895Z" fill="#2F2E41"/>
<path d="M340.675 140.372C341.058 141.631 341.171 142.955 341.005 144.259C340.838 145.563 340.398 146.819 339.71 147.948C339.023 149.077 338.103 150.054 337.01 150.818C335.917 151.582 334.674 152.116 333.359 152.386C332.044 152.656 330.686 152.657 329.371 152.388C328.056 152.12 326.812 151.587 325.718 150.824C324.624 150.062 323.703 149.085 323.014 147.957C322.326 146.829 321.883 145.574 321.716 144.27C322.412 146.557 323.962 148.503 326.058 149.724C328.155 150.945 330.643 151.35 333.031 150.859C335.418 150.368 337.53 149.017 338.946 147.074C340.362 145.132 340.979 142.739 340.675 140.372Z" fill="#2F2E41"/>
<path d="M302.279 151.748C301.994 154.204 302.545 156.685 303.848 158.804C305.15 160.923 307.131 162.563 309.483 163.47C311.835 164.377 314.428 164.5 316.858 163.819C319.289 163.139 321.423 161.693 322.928 159.707C324.434 157.721 325.228 155.304 325.186 152.832C325.145 150.359 324.271 147.969 322.7 146.032C321.129 144.095 318.948 142.718 316.496 142.116C314.044 141.514 311.457 141.719 309.136 142.7C307.217 141.187 304.837 141.656 302.903 143.253C300.715 145.06 300.066 146.301 298.369 149.271C300.037 149.5 300.611 151.518 302.279 151.748Z" fill="#2F2E41"/>
<path d="M342.662 184.058C342.539 187.242 342.295 193.509 342.295 193.829C342.295 194.166 337.437 204.004 335.338 208.238V208.24C335.189 208.539 335.055 208.809 334.936 209.048C334.774 209.376 334.519 209.652 334.201 209.843C333.883 210.034 333.516 210.132 333.143 210.125L323.97 209.964C323.466 209.956 322.985 209.757 322.627 209.41C322.269 209.063 322.062 208.594 322.049 208.101L321.026 168.636C321.023 168.506 321.046 168.376 321.094 168.255C321.143 168.134 321.216 168.023 321.309 167.93C321.402 167.837 321.513 167.763 321.635 167.712C321.758 167.661 321.89 167.635 322.023 167.635H333.852C334.351 167.635 334.841 167.773 335.264 168.033C335.687 168.293 336.027 168.664 336.245 169.104L341.922 180.591C342.454 181.67 342.708 182.86 342.662 184.058Z" fill="#9D50FB"/>
<path d="M321.89 205.392C319.536 203.997 317.421 202.249 315.622 200.212C311.443 195.615 308.901 189.816 308.378 183.686C307.912 178.442 308.976 174.543 311.541 172.099C314.802 168.992 319.24 169.443 319.427 169.464L319.626 169.486L322.633 171.974L321.782 172.958L319.091 170.731C318.268 170.691 314.906 170.682 312.45 173.032C310.189 175.194 309.261 178.741 309.691 183.575C310.188 189.411 312.602 194.934 316.572 199.319C318.285 201.256 320.293 202.924 322.525 204.264L321.89 205.392Z" fill="#6C63FF"/>
<path d="M338.958 190.399L322.931 193.618L323.02 194.039L339.046 190.82L338.958 190.399Z" fill="#3F3D56"/>
<path d="M328.395 167.627L327.956 167.644L328.997 192.584L329.436 192.566L328.395 167.627Z" fill="#3F3D56"/>
<path d="M342.662 184.058C342.539 187.242 342.295 193.509 342.295 193.829C342.295 194.166 337.437 204.004 335.338 208.238L339.25 186.023C339.402 185.168 339.782 184.368 340.354 183.704C340.925 183.041 341.666 182.537 342.502 182.246C342.633 182.841 342.687 183.45 342.662 184.058Z" fill="#3F3D56"/>
<path d="M318.625 230.615C318.972 230.179 319.216 229.673 319.341 229.135C319.466 228.596 319.469 228.037 319.349 227.497C319.229 226.957 318.99 226.449 318.647 226.009C318.305 225.57 317.869 225.209 317.368 224.952L318.163 216.35L312.936 214.603L311.988 226.765C311.602 227.616 311.549 228.575 311.839 229.461C312.128 230.348 312.74 231.099 313.558 231.574C314.376 232.048 315.344 232.213 316.278 232.036C317.212 231.86 318.047 231.354 318.625 230.615Z" fill="#FFB7B7"/>
<path d="M319.308 222.292L310.046 221.964L310.438 178.279C310.431 177.043 310.822 175.836 311.555 174.829C312.288 173.822 313.326 173.066 314.522 172.667C315.641 172.304 316.849 172.303 317.967 172.664C319.236 173.084 320.326 173.905 321.065 174.998C321.803 176.091 322.149 177.394 322.047 178.7L319.308 222.292Z" fill="#CBCBCB"/>
<path d="M400.565 306.5H216.024C215.896 306.5 215.773 306.45 215.682 306.361C215.591 306.273 215.54 306.152 215.54 306.026C215.54 305.901 215.591 305.78 215.682 305.691C215.773 305.603 215.896 305.553 216.024 305.553H400.565C400.693 305.553 400.817 305.603 400.907 305.691C400.998 305.78 401.049 305.901 401.049 306.026C401.049 306.152 400.998 306.273 400.907 306.361C400.817 306.45 400.693 306.5 400.565 306.5Z" fill="#CBCBCB"/>
</g>
<defs>
<clipPath id="clip0_39_2">
<rect width="403" height="306" fill="white" transform="translate(0 0.5)"/>
</clipPath>
</defs>
</svg>
