<svg width="185" height="146" viewBox="0 0 185 146" fill="none" xmlns="http://www.w3.org/2000/svg">
<mask id="mask0_722_1747" style="mask-type:luminance" maskUnits="userSpaceOnUse" x="73" y="19" width="13" height="13">
<path d="M73.5332 19.0664H85.8853V31.3331H73.5332V19.0664Z" fill="white"/>
</mask>
<g mask="url(#mask0_722_1747)">
<path d="M79.8545 19.5723L81.7149 23.9535H85.8857L82.867 26.8952L83.5816 31.0473L79.8545 29.0827L76.1232 31.0473L76.8357 26.8952L73.8232 23.9535H77.9878L79.8545 19.5723Z" fill="#B188E3"/>
</g>
<path d="M66.3838 7.70801L67.638 10.6601H70.4505L68.4171 12.6434L68.8984 15.4372L66.3838 14.1163L63.8755 15.4372L64.3505 12.6434L62.3213 10.6601H65.1296L66.3838 7.70801Z" fill="#614B7D"/>
<path d="M57.89 29.873L58.7171 31.8126H60.5588L59.2255 33.1085L59.5421 34.946L57.89 34.0793L56.2442 34.946L56.5609 33.1085L55.2275 31.8126H57.0692L57.89 29.873Z" fill="#B188E3"/>
<mask id="mask1_722_1747" style="mask-type:luminance" maskUnits="userSpaceOnUse" x="17" y="22" width="39" height="61">
<path d="M17.8252 22.2666H55.4002V82.7645H17.8252V22.2666Z" fill="white"/>
</mask>
<g mask="url(#mask1_722_1747)">
<path fill-rule="evenodd" clip-rule="evenodd" d="M22.6938 48.4643C20.0271 64.1164 29.9604 79.0143 45.1334 82.7643C44.3959 82.6935 43.65 82.5955 42.9042 82.4643C26.5042 79.6768 15.4688 64.106 18.2625 47.708C21.0563 31.308 36.6209 20.2685 53.0209 23.0622C53.7667 23.1935 54.5042 23.3476 55.2271 23.5247C39.6667 22.0414 25.3625 32.806 22.6938 48.4643Z" fill="#B188E3"/>
</g>
<path fill-rule="evenodd" clip-rule="evenodd" d="M68.2355 71.6919C43.4355 85.8148 18.9584 51.2857 40.4939 32.5586C39.8022 32.9565 39.1209 33.3836 38.4584 33.8565C27.6022 41.5565 25.0355 56.6023 32.7314 67.4607C40.4314 78.319 55.4793 80.8794 66.3376 73.1836C67.0001 72.7128 67.6334 72.2148 68.2355 71.6919Z" fill="#614B7D"/>
<mask id="mask2_722_1747" style="mask-type:luminance" maskUnits="userSpaceOnUse" x="5" y="6" width="53" height="38">
<path d="M5.88574 6H57.5337V43.6H5.88574V6Z" fill="white"/>
</mask>
<g mask="url(#mask2_722_1747)">
<path fill-rule="evenodd" clip-rule="evenodd" d="M49.9712 14.8483L51.467 18.465C50.2878 18.3379 49.1087 18.2775 47.9316 18.2775C39.8878 18.2775 32.042 21.1358 25.8378 26.3233C23.7774 28.0441 21.9441 29.99 20.3524 32.1108L18.7857 28.3191L18.5899 27.8483L17.0691 27.7421L12.117 27.3858L8.58574 27.1337L8.44616 27.1254V37.6296C8.80866 37.8441 9.05658 38.2358 9.05658 38.6837C9.05658 39.065 8.87949 39.4108 8.60033 39.6296C8.55241 39.6712 8.50241 39.7087 8.44616 39.7379V40.89L9.72741 43.4546H5.88574L7.14408 40.9358V39.8066C6.77949 39.5983 6.53366 39.2066 6.53366 38.7525C6.53366 38.3296 6.74824 37.9566 7.07949 37.7358C7.10241 37.7171 7.12116 37.6983 7.14408 37.6858C7.17324 37.6671 7.19616 37.6483 7.22741 37.6296V27.0421L28.3253 6.97122L52.0649 6.37956L57.4337 6.24414L49.9712 14.8483Z" fill="#614B7D"/>
</g>
<path d="M44.1429 37.0078C45.4137 37.0078 46.6554 37.1953 47.8679 37.5661C49.0846 37.9328 49.9867 38.2974 50.5762 38.6578L51.4346 39.2245L49.2679 43.4995C49.095 43.3828 48.8554 43.237 48.5512 43.0578C48.2512 42.8745 47.6804 42.6328 46.8429 42.3328C46.0096 42.0286 45.2304 41.8745 44.5096 41.8745C43.62 41.8745 42.9304 42.0661 42.4429 42.4495C41.9596 42.8286 41.7179 43.3391 41.7179 43.9828C41.7179 44.3057 41.8304 44.6057 42.0596 44.8828C42.2867 45.1557 42.6762 45.4495 43.2262 45.7661C43.7804 46.0786 44.2679 46.3286 44.6846 46.5161C45.1012 46.7057 45.745 46.9911 46.6179 47.3745C48.1346 48.0203 49.4283 48.8974 50.5012 50.0078C51.5783 51.1141 52.1179 52.3703 52.1179 53.7745C52.1179 55.1245 51.8721 56.3036 51.3846 57.3078C50.9012 58.3141 50.2367 59.1036 49.3929 59.6745C48.5471 60.2411 47.6117 60.662 46.5846 60.9328C45.5617 61.2099 44.4533 61.3495 43.2596 61.3495C42.2304 61.3495 41.2221 61.2432 40.2346 61.0328C39.2512 60.8286 38.4262 60.5703 37.7596 60.2578C37.0971 59.9411 36.5012 59.6328 35.9679 59.3328C35.4346 59.0286 35.045 58.7703 34.8012 58.5578L34.4346 58.2495L37.1096 53.7495C37.3367 53.9391 37.6471 54.1807 38.0429 54.4745C38.4429 54.7703 39.1512 55.1641 40.1679 55.6578C41.1846 56.1536 42.0804 56.3995 42.8596 56.3995C45.12 56.3995 46.2512 55.6307 46.2512 54.0911C46.2512 53.7703 46.17 53.4724 46.0096 53.1995C45.8471 52.9224 45.5617 52.6474 45.1512 52.3745C44.745 52.0974 44.3846 51.8786 44.0679 51.7161C43.7554 51.5557 43.245 51.3078 42.5346 50.9745C41.8221 50.6411 41.295 50.3891 40.9512 50.2161C39.5283 49.5161 38.4283 48.6391 37.6512 47.5828C36.8721 46.5286 36.4846 45.3953 36.4846 44.1828C36.4846 42.0786 37.2617 40.3557 38.8179 39.0161C40.3721 37.6786 42.1471 37.0078 44.1429 37.0078Z" fill="#614B7D"/>
<path d="M60.2586 50.0166C59.3086 50.0166 58.4919 50.3708 57.8086 51.0749C57.1253 51.7749 56.7836 52.6208 56.7836 53.6083C56.7836 54.6145 57.1253 55.4708 57.8086 56.1749C58.4919 56.8749 59.3086 57.2249 60.2586 57.2249C60.7128 57.2249 61.144 57.1708 61.5503 57.0583C61.9607 56.9416 62.2607 56.8249 62.4503 56.7083L62.7086 56.5416L64.4169 60.0416C64.2836 60.1374 64.0961 60.2562 63.8586 60.3999C63.619 60.5395 63.0773 60.7312 62.2336 60.9749C61.3878 61.2249 60.4836 61.3499 59.5169 61.3499C57.3711 61.3499 55.4878 60.5979 53.8669 59.0916C52.244 57.5812 51.4336 55.7729 51.4336 53.6666C51.4336 51.5395 52.244 49.7124 53.8669 48.1833C55.4878 46.6562 57.3711 45.8916 59.5169 45.8916C60.4836 45.8916 61.3753 46.0062 62.1919 46.2333C63.0086 46.4624 63.5878 46.6895 63.9336 46.9166L64.4169 47.2583L62.7086 50.6999C62.0794 50.2458 61.2628 50.0166 60.2586 50.0166Z" fill="#614B7D"/>
<path d="M64.3291 60.9243V36.4326H69.3708V47.8576H69.4291C70.7333 46.5472 72.1291 45.891 73.6124 45.891C74.3333 45.891 75.0499 45.9868 75.7624 46.1743C76.4729 46.3639 77.1562 46.6576 77.8124 47.0576C78.4666 47.4576 78.9979 48.0243 79.4041 48.7576C79.8145 49.4868 80.0208 50.3326 80.0208 51.2993V60.9243H74.9791V52.666C74.9791 51.9055 74.7374 51.241 74.2541 50.6743C73.7708 50.1035 73.1395 49.816 72.3624 49.816C71.5999 49.816 70.9124 50.1118 70.2958 50.6993C69.6791 51.2889 69.3708 51.9451 69.3708 52.666V60.9243H64.3291Z" fill="#614B7D"/>
<path d="M82.3982 59.1916C80.7753 57.7479 79.9648 55.8979 79.9648 53.6416C79.9648 51.3812 80.8086 49.5249 82.4982 48.0749C84.1857 46.6208 86.2732 45.8916 88.7565 45.8916C91.2065 45.8916 93.269 46.6229 94.9482 48.0833C96.6315 49.5458 97.4732 51.3958 97.4732 53.6333C97.4732 55.8729 96.6503 57.7208 95.0065 59.1749C93.3669 60.6249 91.2836 61.3499 88.7565 61.3499C86.1398 61.3499 84.019 60.6312 82.3982 59.1916ZM86.2982 51.1583C85.6419 51.8041 85.3148 52.6291 85.3148 53.6333C85.3148 54.6395 85.6273 55.4624 86.2565 56.0999C86.8836 56.7333 87.7086 57.0499 88.7315 57.0499C89.719 57.0499 90.5315 56.7291 91.1648 56.0833C91.8023 55.4395 92.1232 54.6229 92.1232 53.6333C92.1232 52.6291 91.794 51.8041 91.1398 51.1583C90.4836 50.5145 89.6815 50.1916 88.7315 50.1916C87.7648 50.1916 86.9523 50.5145 86.2982 51.1583Z" fill="#614B7D"/>
<path d="M99.0847 59.1916C97.4618 57.7479 96.6514 55.8979 96.6514 53.6416C96.6514 51.3812 97.4951 49.5249 99.1847 48.0749C100.872 46.6208 102.96 45.8916 105.443 45.8916C107.893 45.8916 109.956 46.6229 111.635 48.0833C113.318 49.5458 114.16 51.3958 114.16 53.6333C114.16 55.8729 113.337 57.7208 111.693 59.1749C110.053 60.6249 107.97 61.3499 105.443 61.3499C102.826 61.3499 100.706 60.6312 99.0847 59.1916ZM102.985 51.1583C102.328 51.8041 102.001 52.6291 102.001 53.6333C102.001 54.6395 102.314 55.4624 102.943 56.0999C103.57 56.7333 104.395 57.0499 105.418 57.0499C106.406 57.0499 107.218 56.7291 107.851 56.0833C108.489 55.4395 108.81 54.6229 108.81 53.6333C108.81 52.6291 108.481 51.8041 107.826 51.1583C107.17 50.5145 106.368 50.1916 105.418 50.1916C104.451 50.1916 103.639 50.5145 102.985 51.1583Z" fill="#614B7D"/>
<path d="M114.387 60.9243V36.4326H119.428V60.9243H114.387Z" fill="#614B7D"/>
<path d="M126.059 46.341V60.9243H120.709V37.4326H126.059L135.401 52.0076H135.459V37.4326H140.809V60.9243H135.459L126.117 46.341H126.059Z" fill="#B188E3"/>
<path d="M156.869 54.3166H146.277C146.277 55.3458 146.611 56.1062 147.277 56.5999C147.944 57.0895 148.665 57.3333 149.444 57.3333C150.261 57.3333 150.904 57.2249 151.377 57.0083C151.848 56.7916 152.39 56.3624 153.002 55.7166L156.644 57.5333C155.127 60.0791 152.602 61.3499 149.069 61.3499C146.869 61.3499 144.979 60.5979 143.402 59.0916C141.829 57.5812 141.044 55.7645 141.044 53.6416C141.044 51.5145 141.829 49.6916 143.402 48.1749C144.979 46.6541 146.869 45.8916 149.069 45.8916C151.386 45.8916 153.269 46.5624 154.719 47.8999C156.173 49.2395 156.902 51.1499 156.902 53.6333C156.902 53.9791 156.89 54.2062 156.869 54.3166ZM146.419 51.5249H151.977C151.861 50.7708 151.561 50.1895 151.077 49.7833C150.594 49.3729 149.971 49.1666 149.211 49.1666C148.377 49.1666 147.713 49.3874 147.219 49.8249C146.723 50.2583 146.456 50.8249 146.419 51.5249Z" fill="#B188E3"/>
<path d="M157.986 46.3157V40.874H163.02V46.3157H166.095V50.1574H163.02V54.799C163.02 56.149 163.399 56.824 164.161 56.824C164.349 56.824 164.547 56.7886 164.753 56.7157C164.963 56.6386 165.128 56.5615 165.245 56.4824L165.411 56.3657L166.67 60.4407C165.586 61.0449 164.353 61.349 162.97 61.349C162.02 61.349 161.203 61.1844 160.52 60.8574C159.836 60.524 159.315 60.0782 158.961 59.5157C158.611 58.9553 158.361 58.3657 158.211 57.749C158.061 57.1324 157.986 56.474 157.986 55.774V50.1574H155.878V46.3157H157.986Z" fill="#B188E3"/>
</svg>
