<svg width="200" height="149" viewBox="0 0 200 149" fill="none" xmlns="http://www.w3.org/2000/svg">
<mask id="mask0_184_856" style="mask-type:luminance" maskUnits="userSpaceOnUse" x="88" y="22" width="13" height="13">
<path d="M88.5332 22.0667H100.885V34.3333H88.5332V22.0667Z" fill="white"/>
</mask>
<g mask="url(#mask0_184_856)">
<path d="M94.854 22.5729L96.7144 26.9541H100.885L97.8665 29.8958L98.5811 34.0479L94.854 32.0833L91.1228 34.0479L91.8353 29.8958L88.8228 26.9541H92.9873L94.854 22.5729Z" fill="#B188E3"/>
</g>
<path d="M81.3833 10.7083L82.6375 13.6604H85.45L83.4166 15.6437L83.8979 18.4375L81.3833 17.1166L78.875 18.4375L79.35 15.6437L77.3208 13.6604H80.1291L81.3833 10.7083Z" fill="#614B7D"/>
<path d="M72.8896 32.8729L73.7166 34.8125H75.5583L74.225 36.1083L74.5416 37.9458L72.8896 37.0792L71.2437 37.9458L71.5604 36.1083L70.2271 34.8125H72.0687L72.8896 32.8729Z" fill="#B188E3"/>
<mask id="mask1_184_856" style="mask-type:luminance" maskUnits="userSpaceOnUse" x="32" y="25" width="39" height="61">
<path d="M32.8252 25.2667H70.4002V85.7646H32.8252V25.2667Z" fill="white"/>
</mask>
<g mask="url(#mask1_184_856)">
<path fill-rule="evenodd" clip-rule="evenodd" d="M37.6938 51.4646C35.0271 67.1167 44.9604 82.0146 60.1334 85.7646C59.3959 85.6938 58.65 85.5958 57.9042 85.4646C41.5042 82.6771 30.4688 67.1063 33.2625 50.7083C36.0563 34.3083 51.6209 23.2688 68.0209 26.0625C68.7667 26.1938 69.5042 26.3479 70.2271 26.525C54.6667 25.0417 40.3625 35.8063 37.6938 51.4646Z" fill="#B188E3"/>
</g>
<path fill-rule="evenodd" clip-rule="evenodd" d="M83.2355 74.6917C58.4355 88.8146 33.9584 54.2854 55.4939 35.5583C54.8022 35.9563 54.1209 36.3833 53.4584 36.8563C42.6022 44.5563 40.0355 59.6021 47.7314 70.4604C55.4314 81.3188 70.4793 83.8792 81.3376 76.1834C82.0001 75.7125 82.6334 75.2146 83.2355 74.6917Z" fill="#614B7D"/>
<mask id="mask2_184_856" style="mask-type:luminance" maskUnits="userSpaceOnUse" x="20" y="9" width="53" height="38">
<path d="M20.8853 9H72.5332V46.6H20.8853V9Z" fill="white"/>
</mask>
<g mask="url(#mask2_184_856)">
<path fill-rule="evenodd" clip-rule="evenodd" d="M64.9707 17.8479L66.4665 21.4646C65.2873 21.3375 64.1082 21.2771 62.9311 21.2771C54.8873 21.2771 47.0415 24.1354 40.8373 29.3229C38.7769 31.0438 36.9436 32.9896 35.3519 35.1104L33.7853 31.3188L33.5894 30.8479L32.0686 30.7417L27.1165 30.3854L23.5853 30.1334L23.4457 30.125V40.6292C23.8082 40.8438 24.0561 41.2354 24.0561 41.6834C24.0561 42.0646 23.879 42.4104 23.5998 42.6292C23.5519 42.6709 23.5019 42.7084 23.4457 42.7375V43.8896L24.7269 46.4542H20.8853L22.1436 43.9354V42.8063C21.779 42.5979 21.5332 42.2063 21.5332 41.7521C21.5332 41.3292 21.7478 40.9563 22.079 40.7354C22.1019 40.7167 22.1207 40.6979 22.1436 40.6854C22.1728 40.6667 22.1957 40.6479 22.2269 40.6292V30.0417L43.3248 9.97086L67.0644 9.37919L72.4332 9.24377L64.9707 17.8479Z" fill="#614B7D"/>
</g>
<path d="M59.1424 40.0078C60.4132 40.0078 61.6549 40.1953 62.8674 40.5661C64.0841 40.9328 64.9862 41.2974 65.5758 41.6578L66.4341 42.2245L64.2674 46.4995C64.0945 46.3828 63.8549 46.237 63.5507 46.0578C63.2507 45.8745 62.6799 45.6328 61.8424 45.3328C61.0091 45.0286 60.2299 44.8745 59.5091 44.8745C58.6195 44.8745 57.9299 45.0661 57.4424 45.4495C56.9591 45.8286 56.7174 46.3391 56.7174 46.9828C56.7174 47.3057 56.8299 47.6057 57.0591 47.8828C57.2862 48.1557 57.6757 48.4495 58.2257 48.7661C58.7799 49.0786 59.2674 49.3286 59.6841 49.5161C60.1007 49.7057 60.7445 49.9911 61.6174 50.3745C63.1341 51.0203 64.4278 51.8974 65.5007 53.0078C66.5778 54.1141 67.1174 55.3703 67.1174 56.7745C67.1174 58.1245 66.8716 59.3036 66.3841 60.3078C65.9007 61.3141 65.2362 62.1036 64.3924 62.6745C63.5466 63.2411 62.6112 63.662 61.5841 63.9328C60.5612 64.2099 59.4528 64.3495 58.2591 64.3495C57.2299 64.3495 56.2216 64.2432 55.2341 64.0328C54.2507 63.8286 53.4257 63.5703 52.7591 63.2578C52.0966 62.9411 51.5007 62.6328 50.9674 62.3328C50.4341 62.0286 50.0445 61.7703 49.8007 61.5578L49.4341 61.2495L52.1091 56.7495C52.3362 56.9391 52.6466 57.1807 53.0424 57.4745C53.4424 57.7703 54.1507 58.1641 55.1674 58.6578C56.1841 59.1536 57.0799 59.3995 57.8591 59.3995C60.1195 59.3995 61.2507 58.6307 61.2507 57.0911C61.2507 56.7703 61.1695 56.4724 61.0091 56.1995C60.8466 55.9224 60.5612 55.6474 60.1507 55.3745C59.7445 55.0974 59.3841 54.8786 59.0674 54.7161C58.7549 54.5557 58.2445 54.3078 57.5341 53.9745C56.8216 53.6411 56.2945 53.3891 55.9507 53.2161C54.5278 52.5161 53.4278 51.6391 52.6507 50.5828C51.8716 49.5286 51.4841 48.3953 51.4841 47.1828C51.4841 45.0786 52.2612 43.3557 53.8174 42.0161C55.3716 40.6786 57.1466 40.0078 59.1424 40.0078Z" fill="#614B7D"/>
<path d="M75.2586 53.0162C74.3086 53.0162 73.4919 53.3703 72.8086 54.0745C72.1253 54.7745 71.7836 55.6203 71.7836 56.6078C71.7836 57.6141 72.1253 58.4703 72.8086 59.1745C73.4919 59.8745 74.3086 60.2245 75.2586 60.2245C75.7128 60.2245 76.144 60.1703 76.5503 60.0578C76.9607 59.9412 77.2607 59.8245 77.4503 59.7078L77.7086 59.5412L79.4169 63.0412C79.2836 63.137 79.0961 63.2558 78.8586 63.3995C78.619 63.5391 78.0773 63.7308 77.2336 63.9745C76.3878 64.2245 75.4836 64.3495 74.5169 64.3495C72.3711 64.3495 70.4878 63.5974 68.8669 62.0912C67.244 60.5808 66.4336 58.7724 66.4336 56.6662C66.4336 54.5391 67.244 52.712 68.8669 51.1828C70.4878 49.6558 72.3711 48.8912 74.5169 48.8912C75.4836 48.8912 76.3753 49.0058 77.1919 49.2328C78.0086 49.462 78.5878 49.6891 78.9336 49.9162L79.4169 50.2578L77.7086 53.6995C77.0794 53.2453 76.2628 53.0162 75.2586 53.0162Z" fill="#614B7D"/>
<path d="M79.3286 63.9245V39.4329H84.3703V50.8579H84.4286C85.7328 49.5474 87.1286 48.8912 88.6119 48.8912C89.3328 48.8912 90.0494 48.987 90.7619 49.1745C91.4724 49.3641 92.1557 49.6579 92.8119 50.0579C93.4661 50.4579 93.9974 51.0245 94.4036 51.7579C94.814 52.487 95.0203 53.3329 95.0203 54.2995V63.9245H89.9786V55.6662C89.9786 54.9058 89.7369 54.2412 89.2536 53.6745C88.7703 53.1037 88.139 52.8162 87.3619 52.8162C86.5994 52.8162 85.9119 53.112 85.2953 53.6995C84.6786 54.2891 84.3703 54.9454 84.3703 55.6662V63.9245H79.3286Z" fill="#614B7D"/>
<path d="M97.3982 62.1912C95.7753 60.7474 94.9648 58.8974 94.9648 56.6412C94.9648 54.3808 95.8086 52.5245 97.4982 51.0745C99.1857 49.6203 101.273 48.8912 103.757 48.8912C106.207 48.8912 108.269 49.6224 109.948 51.0828C111.632 52.5453 112.473 54.3953 112.473 56.6328C112.473 58.8724 111.65 60.7203 110.007 62.1745C108.367 63.6245 106.284 64.3495 103.757 64.3495C101.14 64.3495 99.019 63.6308 97.3982 62.1912ZM101.298 54.1578C100.642 54.8037 100.315 55.6287 100.315 56.6328C100.315 57.6391 100.627 58.462 101.257 59.0995C101.884 59.7328 102.709 60.0495 103.732 60.0495C104.719 60.0495 105.532 59.7287 106.165 59.0828C106.802 58.4391 107.123 57.6224 107.123 56.6328C107.123 55.6287 106.794 54.8037 106.14 54.1578C105.484 53.5141 104.682 53.1912 103.732 53.1912C102.765 53.1912 101.952 53.5141 101.298 54.1578Z" fill="#614B7D"/>
<path d="M114.084 62.1912C112.461 60.7474 111.651 58.8974 111.651 56.6412C111.651 54.3808 112.495 52.5245 114.184 51.0745C115.872 49.6203 117.959 48.8912 120.443 48.8912C122.893 48.8912 124.955 49.6224 126.634 51.0828C128.318 52.5453 129.159 54.3953 129.159 56.6328C129.159 58.8724 128.336 60.7203 126.693 62.1745C125.053 63.6245 122.97 64.3495 120.443 64.3495C117.826 64.3495 115.705 63.6308 114.084 62.1912ZM117.984 54.1578C117.328 54.8037 117.001 55.6287 117.001 56.6328C117.001 57.6391 117.313 58.462 117.943 59.0995C118.57 59.7328 119.395 60.0495 120.418 60.0495C121.405 60.0495 122.218 59.7287 122.851 59.0828C123.488 58.4391 123.809 57.6224 123.809 56.6328C123.809 55.6287 123.48 54.8037 122.826 54.1578C122.17 53.5141 121.368 53.1912 120.418 53.1912C119.451 53.1912 118.638 53.5141 117.984 54.1578Z" fill="#614B7D"/>
<path d="M129.387 63.9245V39.4329H134.429V63.9245H129.387Z" fill="#614B7D"/>
<path d="M141.059 49.3412V63.9245H135.709V40.4329H141.059L150.401 55.0079H150.459V40.4329H155.809V63.9245H150.459L141.117 49.3412H141.059Z" fill="#B188E3"/>
<path d="M171.868 57.3162H161.277C161.277 58.3453 161.61 59.1058 162.277 59.5995C162.943 60.0891 163.664 60.3328 164.443 60.3328C165.26 60.3328 165.904 60.2245 166.377 60.0078C166.848 59.7912 167.389 59.362 168.002 58.7162L171.643 60.5328C170.127 63.0787 167.602 64.3495 164.068 64.3495C161.868 64.3495 159.979 63.5974 158.402 62.0912C156.829 60.5808 156.043 58.7641 156.043 56.6412C156.043 54.5141 156.829 52.6912 158.402 51.1745C159.979 49.6537 161.868 48.8912 164.068 48.8912C166.385 48.8912 168.268 49.562 169.718 50.8995C171.173 52.2391 171.902 54.1495 171.902 56.6328C171.902 56.9787 171.889 57.2058 171.868 57.3162ZM161.418 54.5245H166.977C166.86 53.7703 166.56 53.1891 166.077 52.7828C165.593 52.3724 164.971 52.1662 164.21 52.1662C163.377 52.1662 162.712 52.387 162.218 52.8245C161.723 53.2578 161.456 53.8245 161.418 54.5245Z" fill="#B188E3"/>
<path d="M172.986 49.3162V43.8745H178.02V49.3162H181.095V53.1578H178.02V57.7995C178.02 59.1495 178.399 59.8245 179.161 59.8245C179.349 59.8245 179.547 59.7891 179.753 59.7162C179.963 59.6391 180.128 59.562 180.245 59.4828L180.411 59.3662L181.67 63.4412C180.586 64.0453 179.353 64.3495 177.97 64.3495C177.02 64.3495 176.203 64.1849 175.52 63.8578C174.836 63.5245 174.315 63.0787 173.961 62.5162C173.611 61.9558 173.361 61.3662 173.211 60.7495C173.061 60.1328 172.986 59.4745 172.986 58.7745V53.1578H170.878V49.3162H172.986Z" fill="#B188E3"/>
</svg>
