<svg width="381" height="658" viewBox="0 0 381 658" fill="none" xmlns="http://www.w3.org/2000/svg">
<g filter="url(#filter0_d_1151_1152)">
<rect width="277.451" height="553.912" transform="translate(52 44)" fill="url(#paint0_linear_1151_1152)"/>
<mask id="mask0_1151_1152" style="mask-type:luminance" maskUnits="userSpaceOnUse" x="179" y="260" width="13" height="13">
<path d="M179.533 260.067H191.885V272.334H179.533V260.067Z" fill="white"/>
</mask>
<g mask="url(#mask0_1151_1152)">
<path d="M185.854 260.573L187.715 264.954H191.886L188.867 267.896L189.582 272.048L185.854 270.084L182.123 272.048L182.836 267.896L179.823 264.954H183.988L185.854 260.573Z" fill="#B188E3"/>
</g>
<path d="M172.384 248.708L173.638 251.661H176.45L174.417 253.644L174.898 256.438L172.384 255.117L169.875 256.438L170.35 253.644L168.321 251.661H171.13L172.384 248.708Z" fill="#614B7D"/>
<path d="M163.89 270.873L164.717 272.813H166.559L165.225 274.108L165.542 275.946L163.89 275.079L162.244 275.946L162.561 274.108L161.228 272.813H163.069L163.89 270.873Z" fill="#B188E3"/>
<mask id="mask1_1151_1152" style="mask-type:luminance" maskUnits="userSpaceOnUse" x="123" y="263" width="39" height="61">
<path d="M123.825 263.267H161.4V323.765H123.825V263.267Z" fill="white"/>
</mask>
<g mask="url(#mask1_1151_1152)">
<path fill-rule="evenodd" clip-rule="evenodd" d="M128.694 289.464C126.027 305.116 135.96 320.014 151.133 323.764C150.396 323.693 149.65 323.596 148.904 323.464C132.504 320.677 121.469 305.106 124.263 288.708C127.056 272.308 142.621 261.268 159.021 264.062C159.767 264.193 160.504 264.348 161.227 264.525C145.667 263.041 131.363 273.806 128.694 289.464Z" fill="#B188E3"/>
</g>
<path fill-rule="evenodd" clip-rule="evenodd" d="M174.236 312.691C149.436 326.814 124.958 292.285 146.494 273.558C145.802 273.956 145.121 274.383 144.458 274.856C133.602 282.556 131.036 297.602 138.731 308.46C146.431 319.319 161.479 321.879 172.338 314.183C173 313.712 173.633 313.214 174.236 312.691Z" fill="#614B7D"/>
<mask id="mask2_1151_1152" style="mask-type:luminance" maskUnits="userSpaceOnUse" x="111" y="247" width="53" height="38">
<path d="M111.886 247H163.534V284.6H111.886V247Z" fill="white"/>
</mask>
<g mask="url(#mask2_1151_1152)">
<path fill-rule="evenodd" clip-rule="evenodd" d="M155.971 255.848L157.467 259.464C156.288 259.337 155.109 259.277 153.932 259.277C145.888 259.277 138.042 262.135 131.838 267.323C129.777 269.044 127.944 270.989 126.352 273.11L124.786 269.319L124.59 268.848L123.069 268.742L118.117 268.385L114.586 268.133L114.446 268.125V278.629C114.809 278.844 115.057 279.235 115.057 279.683C115.057 280.064 114.879 280.41 114.6 280.629C114.552 280.671 114.502 280.708 114.446 280.737V281.889L115.727 284.454H111.886L113.144 281.935V280.806C112.779 280.598 112.534 280.206 112.534 279.752C112.534 279.329 112.748 278.956 113.079 278.735C113.102 278.717 113.121 278.698 113.144 278.685C113.173 278.667 113.196 278.648 113.227 278.629V268.042L134.325 247.971L158.065 247.379L163.434 247.244L155.971 255.848Z" fill="#614B7D"/>
</g>
<path d="M150.143 278.008C151.414 278.008 152.655 278.195 153.868 278.566C155.085 278.933 155.987 279.297 156.576 279.658L157.435 280.224L155.268 284.499C155.095 284.383 154.855 284.237 154.551 284.058C154.251 283.874 153.68 283.633 152.843 283.333C152.01 283.029 151.23 282.874 150.51 282.874C149.62 282.874 148.93 283.066 148.443 283.449C147.96 283.829 147.718 284.339 147.718 284.983C147.718 285.306 147.83 285.606 148.06 285.883C148.287 286.156 148.676 286.449 149.226 286.766C149.78 287.079 150.268 287.329 150.685 287.516C151.101 287.706 151.745 287.991 152.618 288.374C154.135 289.02 155.428 289.897 156.501 291.008C157.578 292.114 158.118 293.37 158.118 294.774C158.118 296.124 157.872 297.304 157.385 298.308C156.901 299.314 156.237 300.104 155.393 300.674C154.547 301.241 153.612 301.662 152.585 301.933C151.562 302.21 150.453 302.349 149.26 302.349C148.23 302.349 147.222 302.243 146.235 302.033C145.251 301.829 144.426 301.57 143.76 301.258C143.097 300.941 142.501 300.633 141.968 300.333C141.435 300.029 141.045 299.77 140.801 299.558L140.435 299.249L143.11 294.749C143.337 294.939 143.647 295.181 144.043 295.474C144.443 295.77 145.151 296.164 146.168 296.658C147.185 297.154 148.08 297.399 148.86 297.399C151.12 297.399 152.251 296.631 152.251 295.091C152.251 294.77 152.17 294.472 152.01 294.199C151.847 293.922 151.562 293.647 151.151 293.374C150.745 293.097 150.385 292.879 150.068 292.716C149.755 292.556 149.245 292.308 148.535 291.974C147.822 291.641 147.295 291.389 146.951 291.216C145.528 290.516 144.428 289.639 143.651 288.583C142.872 287.529 142.485 286.395 142.485 285.183C142.485 283.079 143.262 281.356 144.818 280.016C146.372 278.679 148.147 278.008 150.143 278.008Z" fill="#614B7D"/>
<path d="M166.259 291.016C165.309 291.016 164.492 291.37 163.809 292.074C163.125 292.774 162.784 293.62 162.784 294.608C162.784 295.614 163.125 296.47 163.809 297.174C164.492 297.874 165.309 298.224 166.259 298.224C166.713 298.224 167.144 298.17 167.55 298.058C167.961 297.941 168.261 297.824 168.45 297.708L168.709 297.541L170.417 301.041C170.284 301.137 170.096 301.256 169.859 301.399C169.619 301.539 169.077 301.731 168.234 301.974C167.388 302.224 166.484 302.349 165.517 302.349C163.371 302.349 161.488 301.597 159.867 300.091C158.244 298.581 157.434 296.772 157.434 294.666C157.434 292.539 158.244 290.712 159.867 289.183C161.488 287.656 163.371 286.891 165.517 286.891C166.484 286.891 167.375 287.006 168.192 287.233C169.009 287.462 169.588 287.689 169.934 287.916L170.417 288.258L168.709 291.699C168.079 291.245 167.263 291.016 166.259 291.016Z" fill="#614B7D"/>
<path d="M170.329 301.924V277.433H175.371V288.858H175.429C176.733 287.547 178.129 286.891 179.612 286.891C180.333 286.891 181.05 286.987 181.762 287.174C182.473 287.364 183.156 287.658 183.812 288.058C184.467 288.458 184.998 289.024 185.404 289.758C185.815 290.487 186.021 291.333 186.021 292.299V301.924H180.979V293.666C180.979 292.906 180.737 292.241 180.254 291.674C179.771 291.103 179.14 290.816 178.362 290.816C177.6 290.816 176.912 291.112 176.296 291.699C175.679 292.289 175.371 292.945 175.371 293.666V301.924H170.329Z" fill="#614B7D"/>
<path d="M188.398 300.191C186.775 298.747 185.965 296.897 185.965 294.641C185.965 292.381 186.809 290.524 188.498 289.074C190.186 287.62 192.273 286.891 194.757 286.891C197.207 286.891 199.269 287.622 200.948 289.083C202.632 290.545 203.473 292.395 203.473 294.633C203.473 296.872 202.65 298.72 201.007 300.174C199.367 301.624 197.284 302.349 194.757 302.349C192.14 302.349 190.019 301.631 188.398 300.191ZM192.298 292.158C191.642 292.804 191.315 293.629 191.315 294.633C191.315 295.639 191.627 296.462 192.257 297.099C192.884 297.733 193.709 298.049 194.732 298.049C195.719 298.049 196.532 297.729 197.165 297.083C197.802 296.439 198.123 295.622 198.123 294.633C198.123 293.629 197.794 292.804 197.14 292.158C196.484 291.514 195.682 291.191 194.732 291.191C193.765 291.191 192.952 291.514 192.298 292.158Z" fill="#614B7D"/>
<path d="M205.085 300.191C203.462 298.747 202.651 296.897 202.651 294.641C202.651 292.381 203.495 290.524 205.185 289.074C206.872 287.62 208.96 286.891 211.443 286.891C213.893 286.891 215.956 287.622 217.635 289.083C219.318 290.545 220.16 292.395 220.16 294.633C220.16 296.872 219.337 298.72 217.693 300.174C216.053 301.624 213.97 302.349 211.443 302.349C208.826 302.349 206.706 301.631 205.085 300.191ZM208.985 292.158C208.328 292.804 208.001 293.629 208.001 294.633C208.001 295.639 208.314 296.462 208.943 297.099C209.57 297.733 210.395 298.049 211.418 298.049C212.406 298.049 213.218 297.729 213.851 297.083C214.489 296.439 214.81 295.622 214.81 294.633C214.81 293.629 214.481 292.804 213.826 292.158C213.17 291.514 212.368 291.191 211.418 291.191C210.451 291.191 209.639 291.514 208.985 292.158Z" fill="#614B7D"/>
<path d="M220.387 301.924V277.433H225.428V301.924H220.387Z" fill="#614B7D"/>
<path d="M232.059 287.341V301.924H226.709V278.433H232.059L241.401 293.008H241.459V278.433H246.809V301.924H241.459L232.117 287.341H232.059Z" fill="#B188E3"/>
<path d="M262.869 295.316H252.277C252.277 296.345 252.611 297.106 253.277 297.599C253.944 298.089 254.665 298.333 255.444 298.333C256.261 298.333 256.904 298.224 257.377 298.008C257.848 297.791 258.39 297.362 259.002 296.716L262.644 298.533C261.127 301.079 258.602 302.349 255.069 302.349C252.869 302.349 250.979 301.597 249.402 300.091C247.829 298.581 247.044 296.764 247.044 294.641C247.044 292.514 247.829 290.691 249.402 289.174C250.979 287.654 252.869 286.891 255.069 286.891C257.386 286.891 259.269 287.562 260.719 288.899C262.173 290.239 262.902 292.149 262.902 294.633C262.902 294.979 262.89 295.206 262.869 295.316ZM252.419 292.524H257.977C257.861 291.77 257.561 291.189 257.077 290.783C256.594 290.372 255.971 290.166 255.211 290.166C254.377 290.166 253.713 290.387 253.219 290.824C252.723 291.258 252.456 291.824 252.419 292.524Z" fill="#B188E3"/>
<path d="M263.986 287.316V281.875H269.02V287.316H272.095V291.158H269.02V295.8C269.02 297.15 269.399 297.825 270.161 297.825C270.349 297.825 270.547 297.789 270.753 297.716C270.963 297.639 271.128 297.562 271.245 297.483L271.411 297.366L272.67 301.441C271.586 302.045 270.353 302.35 268.97 302.35C268.02 302.35 267.203 302.185 266.52 301.858C265.836 301.525 265.315 301.079 264.961 300.516C264.611 299.956 264.361 299.366 264.211 298.75C264.061 298.133 263.986 297.475 263.986 296.775V291.158H261.878V287.316H263.986Z" fill="#B188E3"/>
</g>
<defs>
<filter id="filter0_d_1151_1152" x="0.587036" y="0.298981" width="380.276" height="656.739" filterUnits="userSpaceOnUse" color-interpolation-filters="sRGB">
<feFlood flood-opacity="0" result="BackgroundImageFix"/>
<feColorMatrix in="SourceAlpha" type="matrix" values="0 0 0 0 0 0 0 0 0 0 0 0 0 0 0 0 0 0 127 0" result="hardAlpha"/>
<feOffset dy="7.71195"/>
<feGaussianBlur stdDeviation="25.7065"/>
<feComposite in2="hardAlpha" operator="out"/>
<feColorMatrix type="matrix" values="0 0 0 0 0 0 0 0 0 0 0 0 0 0 0 0 0 0 0.2 0"/>
<feBlend mode="normal" in2="BackgroundImageFix" result="effect1_dropShadow_1151_1152"/>
<feBlend mode="normal" in="SourceGraphic" in2="effect1_dropShadow_1151_1152" result="shape"/>
</filter>
<linearGradient id="paint0_linear_1151_1152" x1="139" y1="157.5" x2="138.725" y2="553.912" gradientUnits="userSpaceOnUse">
<stop stop-color="white"/>
</linearGradient>
</defs>
</svg>
