<svg width="380" height="381" viewBox="0 0 380 381" fill="none" xmlns="http://www.w3.org/2000/svg">
<path d="M304.532 328.508C323.312 311.621 337.265 288.555 347.799 266.188C363.447 232.961 371.777 191.503 349.934 159.196C337.334 140.56 317.65 128.796 295.8 124.365C274.778 120.109 254.334 121.028 236.254 107.706C217.968 94.2156 202.054 77.3892 185.683 61.7256C143.594 21.4456 67.1232 32.9976 31.6084 87.2312C-3.90639 141.465 5.76842 211.917 39.9684 244.597C70.68 273.956 113.529 279.694 147.44 302.646C164.244 314.046 175.993 330.819 193.8 340.828C214.51 352.464 239.902 357.236 263.234 351.293C279.118 347.242 292.767 339.088 304.532 328.508Z" fill="#C9C6FF"/>
<path opacity="0.7" d="M304.532 328.508C323.312 311.621 337.265 288.555 347.799 266.188C363.447 232.961 371.777 191.503 349.934 159.196C337.334 140.56 317.65 128.796 295.8 124.365C274.778 120.109 254.334 121.028 236.254 107.706C217.968 94.2156 202.054 77.3892 185.683 61.7256C143.594 21.4456 67.1232 32.9976 31.6084 87.2312C-3.90639 141.465 5.76842 211.917 39.9684 244.597C70.68 273.956 113.529 279.694 147.44 302.646C164.244 314.046 175.993 330.819 193.8 340.828C214.51 352.464 239.902 357.236 263.234 351.293C279.118 347.242 292.767 339.088 304.532 328.508Z" fill="white"/>
<path d="M339.538 337.826L336.596 310.215" stroke="#263238" stroke-width="0.985332" stroke-linecap="round" stroke-linejoin="round"/>
<path d="M336.581 310.99C336.581 310.99 331.299 306.879 331.299 297.478C331.299 288.076 338.344 280.446 338.344 280.446C338.344 280.446 345.982 289.847 344.219 299.241C342.456 308.634 336.581 310.99 336.581 310.99Z" fill="#9D50FB" stroke="#263238" stroke-width="0.985332" stroke-linecap="round" stroke-linejoin="round"/>
<path d="M336.596 310.215L337.942 289.467" stroke="#263238" stroke-width="0.985332" stroke-linecap="round" stroke-linejoin="round"/>
<path d="M342.251 335.789C344.815 329.181 347.945 322.806 351.606 316.736" stroke="#263238" stroke-width="0.985332" stroke-linecap="round" stroke-linejoin="round"/>
<path d="M348.84 321.729C348.84 321.729 345.906 315.702 350.056 307.289C354.206 298.876 363.903 295.129 363.903 295.129C363.903 295.129 366.601 306.932 360.863 314.585C355.125 322.238 348.84 321.729 348.84 321.729Z" fill="#9D50FB" stroke="#263238" stroke-width="0.985332" stroke-linecap="round" stroke-linejoin="round"/>
<path d="M348.84 321.729L359.533 304.15" stroke="#263238" stroke-width="0.985332" stroke-linecap="round" stroke-linejoin="round"/>
<path d="M334.772 338.252C333.179 332.943 331.013 327.823 328.312 322.983L324.201 315.9" stroke="#263238" stroke-width="0.985332" stroke-linecap="round" stroke-linejoin="round"/>
<path d="M327.507 321.38C324.262 322.376 320.819 322.535 317.496 321.841C314.174 321.147 311.081 319.624 308.507 317.412C299.387 309.752 299.896 294.118 299.896 294.118C299.896 294.118 317.574 291.595 324.71 301.612C326.779 304.417 328.118 307.692 328.606 311.142C329.094 314.593 328.716 318.111 327.507 321.38Z" fill="#9D50FB" stroke="#263238" stroke-width="0.985332" stroke-linecap="round" stroke-linejoin="round"/>
<path d="M327.507 321.38L306.554 299.545" stroke="#263238" stroke-width="0.985332" stroke-linecap="round" stroke-linejoin="round"/>
<path d="M349.205 331.913H326.838V353.847H349.205V331.913Z" fill="#263238" stroke="#263238" stroke-width="0.985332" stroke-linecap="round" stroke-linejoin="round"/>
<path d="M311.836 22.54H162.222V148.586H311.836V22.54Z" fill="white" stroke="#263238" stroke-width="0.985332" stroke-linecap="round" stroke-linejoin="round"/>
<path d="M193.276 93.4025H192.06L191.854 92.0193H190.38L190.167 93.4025H189.065L190.289 85.7493H192.052L193.276 93.4025ZM190.532 90.9781H191.687L191.11 87.1021L190.532 90.9781Z" fill="#263238"/>
<path d="M194.978 85.7493V91.6545C194.978 92.2017 195.221 92.4145 195.601 92.4145C195.981 92.4145 196.232 92.2169 196.232 91.6545V85.7493H197.364V91.5785C197.364 92.8021 196.756 93.5013 195.571 93.5013C194.385 93.5013 193.777 92.8021 193.777 91.5785V85.7493H194.978Z" fill="#263238"/>
<path d="M197.836 85.7493H201.552V86.8437H200.298V93.4025H199.12V86.8437H197.866L197.836 85.7493Z" fill="#263238"/>
<path d="M203.285 93.4025H202.076V85.7493H203.285V89.0325H204.645V85.7493H205.876V93.4025H204.645V90.1269H203.285V93.4025Z" fill="#263238"/>
<path d="M207.951 88.9717H209.6V90.0661H207.951V92.3461H210.026V93.4405H206.72V85.7493H209.996V86.8437H207.921L207.951 88.9717Z" fill="#263238"/>
<path d="M211.842 87.9001V93.4405H210.763V85.7493H212.283L213.522 90.3093V85.7493H214.594V93.4025H213.355L211.842 87.9001Z" fill="#263238"/>
<path d="M215.08 85.7493H218.804V86.8437H217.542V93.4025H216.342V86.8437H215.08V85.7493Z" fill="#263238"/>
<path d="M219.336 85.7493H220.537V93.4025H219.336V85.7493Z" fill="#263238"/>
<path d="M224.899 90.5525V91.5709C224.899 92.7945 224.291 93.4937 223.106 93.4937C221.92 93.4937 221.312 92.7945 221.312 91.5709V87.5885C221.312 86.3573 221.928 85.6581 223.106 85.6581C224.284 85.6581 224.899 86.3573 224.899 87.5885V88.3485H223.767V87.5277C223.767 86.9805 223.524 86.7677 223.144 86.7677C222.764 86.7677 222.52 86.9805 222.52 87.5277V91.6621C222.52 92.2093 222.756 92.4221 223.144 92.4221C223.531 92.4221 223.767 92.2321 223.767 91.6621V90.5677L224.899 90.5525Z" fill="#263238"/>
<path d="M229.52 93.4025H228.304L228.099 92.0193H226.632L226.419 93.4025H225.317L226.541 85.7493H228.304L229.52 93.4025ZM226.776 90.9781H227.932L227.354 87.1021L226.776 90.9781Z" fill="#263238"/>
<path d="M229.315 85.7493H233.039V86.8437H231.8V93.4025H230.599V86.8437H229.338L229.315 85.7493Z" fill="#263238"/>
<path d="M234.764 88.9717H236.413V90.0661H234.764V92.3461H236.846V93.4405H233.563V85.7493H236.846V86.8437H234.764V88.9717Z" fill="#263238"/>
<path d="M240.411 90.8641L238.891 85.7493H240.16L241.08 89.2377L241.999 85.7493H243.147L241.627 90.8641V93.4025H240.426L240.411 90.8641Z" fill="#263238"/>
<path d="M243.352 87.5884C243.352 87.1046 243.544 86.6407 243.886 86.2986C244.228 85.9566 244.692 85.7644 245.176 85.7644C245.66 85.7644 246.124 85.9566 246.466 86.2986C246.808 86.6407 247 87.1046 247 87.5884V91.5708C247 92.0546 246.808 92.5185 246.466 92.8606C246.124 93.2026 245.66 93.3948 245.176 93.3948C244.692 93.3948 244.228 93.2026 243.886 92.8606C243.544 92.5185 243.352 92.0546 243.352 91.5708V87.5884ZM244.553 91.6468C244.553 92.194 244.796 92.4068 245.176 92.4068C245.556 92.4068 245.799 92.2016 245.799 91.6468V87.5124C245.799 86.9652 245.556 86.7524 245.176 86.7524C244.796 86.7524 244.553 86.9652 244.553 87.5124V91.6468Z" fill="#263238"/>
<path d="M248.923 85.7493V91.6545C248.923 92.2017 249.166 92.4145 249.546 92.4145C249.926 92.4145 250.169 92.2169 250.169 91.6545V85.7493H251.309V91.5785C251.309 92.8021 250.701 93.5013 249.516 93.5013C248.33 93.5013 247.722 92.8021 247.722 91.5785V85.7493H248.923Z" fill="#263238"/>
<path d="M254.646 93.4025C254.544 93.0993 254.508 92.7782 254.539 92.4601V91.2593C254.539 90.5525 254.296 90.2865 253.779 90.2865H253.361V93.4025H252.16V85.7493H253.977C255.223 85.7493 255.755 86.3269 255.755 87.5125V88.1129C255.794 88.4131 255.743 88.7182 255.607 88.989C255.472 89.2598 255.259 89.484 254.995 89.6329C255.596 89.8837 255.793 90.4613 255.793 91.2593V92.4601C255.77 92.7748 255.814 93.091 255.922 93.3873L254.646 93.4025ZM253.331 86.8437V89.1921H253.84C254.288 89.1921 254.562 88.9945 254.562 88.3865V87.6265C254.562 87.0793 254.38 86.8665 253.954 86.8665L253.331 86.8437Z" fill="#263238"/>
<path d="M262.116 93.4025H260.9L260.695 92.0193H259.213L259.008 93.4025H257.906L259.16 85.7493H260.923L262.116 93.4025ZM259.373 90.9781H260.528L259.92 87.1401L259.373 90.9781Z" fill="#263238"/>
<path d="M266.152 90.5525V91.5709C266.152 92.7945 265.536 93.4937 264.358 93.4937C263.18 93.4937 262.565 92.7945 262.565 91.5709V87.5885C262.565 86.3573 263.173 85.6581 264.358 85.6581C265.544 85.6581 266.152 86.3573 266.152 87.5885V88.3485H265.012V87.5277C265.012 86.9805 264.769 86.7677 264.389 86.7677C264.009 86.7677 263.766 86.9805 263.766 87.5277V91.6621C263.766 92.2093 264.009 92.4221 264.389 92.4221C264.769 92.4221 265.012 92.2321 265.012 91.6621V90.5677L266.152 90.5525Z" fill="#263238"/>
<path d="M270.37 90.5525V91.5709C270.37 92.7945 269.762 93.4937 268.576 93.4937C267.391 93.4937 266.783 92.7945 266.783 91.5709V87.5885C266.783 86.3573 267.398 85.6581 268.576 85.6581C269.754 85.6581 270.37 86.3573 270.37 87.5885V88.3485H269.23V87.5277C269.23 86.9805 268.994 86.7677 268.607 86.7677C268.219 86.7677 267.984 86.9805 267.984 87.5277V91.6621C267.984 92.2093 268.227 92.4221 268.607 92.4221C268.987 92.4221 269.23 92.2321 269.23 91.6621V90.5677L270.37 90.5525Z" fill="#263238"/>
<path d="M271.001 87.5884C270.985 87.3385 271.02 87.0879 271.105 86.8521C271.189 86.6164 271.321 86.4005 271.492 86.2178C271.664 86.035 271.871 85.8894 272.101 85.7898C272.33 85.6903 272.578 85.6389 272.829 85.6389C273.079 85.6389 273.327 85.6903 273.557 85.7898C273.787 85.8894 273.993 86.035 274.165 86.2178C274.336 86.4005 274.468 86.6164 274.553 86.8521C274.637 87.0879 274.673 87.3385 274.656 87.5884V91.5708C274.673 91.8208 274.637 92.0714 274.553 92.3071C274.468 92.5429 274.336 92.7588 274.165 92.9415C273.993 93.1242 273.787 93.2699 273.557 93.3694C273.327 93.469 273.079 93.5204 272.829 93.5204C272.578 93.5204 272.33 93.469 272.101 93.3694C271.871 93.2699 271.664 93.1242 271.492 92.9415C271.321 92.7588 271.189 92.5429 271.105 92.3071C271.02 92.0714 270.985 91.8208 271.001 91.5708V87.5884ZM272.209 91.6468C272.209 92.194 272.445 92.4068 272.832 92.4068C273.22 92.4068 273.456 92.2016 273.456 91.6468V87.5124C273.456 86.9652 273.212 86.7524 272.832 86.7524C272.452 86.7524 272.209 86.9652 272.209 87.5124V91.6468Z" fill="#263238"/>
<path d="M276.579 85.7493V91.6545C276.579 92.2017 276.822 92.4145 277.202 92.4145C277.582 92.4145 277.826 92.2169 277.826 91.6545V85.7493H278.966V91.5785C278.966 92.8021 278.358 93.5013 277.172 93.5013C275.986 93.5013 275.378 92.8021 275.378 91.5785V85.7493H276.579Z" fill="#263238"/>
<path d="M280.858 87.9001V93.4405H279.779V85.7493H281.299L282.538 90.3093V85.7493H283.609V93.4025H282.37L280.858 87.9001Z" fill="#263238"/>
<path d="M284.103 85.7493H287.827V86.8437H286.566V93.4025H285.365V86.8437H284.103V85.7493Z" fill="#263238"/>
<path d="M254.672 62.278C256.18 52.9209 249.816 44.1137 240.459 42.6066C231.102 41.0995 222.295 47.4631 220.788 56.8201C219.28 66.1772 225.644 74.9843 235.001 76.4915C244.358 77.9986 253.165 71.635 254.672 62.278Z" fill="#B188E3" fill-opacity="0.5"/>
<path d="M245.214 55.5924C245.214 57.073 244.775 58.5204 243.952 59.7514C243.13 60.9825 241.961 61.942 240.593 62.5086C239.225 63.0752 237.72 63.2235 236.268 62.9346C234.815 62.6458 233.482 61.9328 232.435 60.8858C231.388 59.8389 230.675 58.505 230.386 57.0529C230.097 55.6007 230.245 54.0956 230.812 52.7277C231.378 51.3598 232.338 50.1906 233.569 49.3681C234.8 48.5455 236.247 48.1064 237.728 48.1064C239.713 48.1064 241.618 48.8951 243.021 50.299C244.425 51.7029 245.214 53.607 245.214 55.5924Z" fill="#263238"/>
<path d="M225.408 71.484C227.007 73.1356 228.921 74.4489 231.038 75.3458C233.154 76.2427 235.429 76.7049 237.728 76.7049C240.027 76.7049 242.302 76.2427 244.418 75.3458C246.534 74.4489 248.449 73.1356 250.048 71.484V70.99C250.049 70.1231 249.879 69.2644 249.548 68.4632C249.217 67.662 248.731 66.9338 248.118 66.3205C247.505 65.7071 246.778 65.2205 245.977 64.8885C245.176 64.5565 244.318 64.3856 243.451 64.3856H232.013C230.261 64.3856 228.581 65.0814 227.343 66.32C226.104 67.5586 225.408 69.2384 225.408 70.99V71.484Z" fill="#263238"/>
<path d="M289.157 107.196H185.63V119.782H289.157V107.196Z" stroke="#263238" stroke-width="0.985332" stroke-miterlimit="10"/>
<path d="M289.157 126.067H185.63V138.653H289.157V126.067Z" fill="#B188E3" fill-opacity="0.5" stroke="#263238" stroke-width="0.985332" stroke-miterlimit="10"/>
<path d="M220.354 113.846V114.606H218.485V117.327H220.765V118.087H217.618V110.457H220.765V111.217H218.485V113.831L220.354 113.846Z" fill="#BDBDBD"/>
<path d="M222.323 118.118H221.563V110.457H222.68L224.451 115.99V110.457H225.211V118.118H224.322L222.361 111.924L222.323 118.118Z" fill="#BDBDBD"/>
<path d="M227.156 118.118V111.232H225.72V110.472H229.398V111.232H228V118.118H227.156Z" fill="#BDBDBD"/>
<path d="M232.735 113.846V114.606H230.865V117.327H233.145V118.087H229.999V110.457H233.145V111.217H230.865V113.831L232.735 113.846Z" fill="#BDBDBD"/>
<path d="M235.653 110.457C236.862 110.457 237.363 111.072 237.363 112.205V112.828C237.416 113.161 237.349 113.502 237.175 113.791C237.002 114.08 236.732 114.299 236.413 114.409C237.112 114.614 237.371 115.169 237.371 116.005V117.198C237.349 117.512 237.401 117.827 237.523 118.118H236.664C236.542 117.822 236.493 117.501 236.52 117.183V116.02C236.52 115.154 236.117 114.88 235.402 114.88H234.84V118.156H233.989V110.457H235.653ZM235.44 114.067C236.117 114.067 236.52 113.846 236.52 113.018V112.258C236.52 111.574 236.269 111.209 235.63 111.209H234.84V114.044L235.44 114.067Z" fill="#BDBDBD"/>
<path d="M243.337 112.304V112.98H242.524V112.22C242.524 111.528 242.25 111.11 241.627 111.11C241.004 111.11 240.73 111.528 240.73 112.22V116.263C240.73 116.955 241.011 117.373 241.627 117.373C242.242 117.373 242.524 116.955 242.524 116.263V115.268H243.337V116.218C243.337 117.38 242.782 118.148 241.604 118.148C240.426 118.148 239.886 117.388 239.886 116.218V112.258C239.886 111.103 240.434 110.335 241.604 110.335C242.774 110.335 243.337 111.148 243.337 112.304Z" fill="#BDBDBD"/>
<path d="M244.044 112.304C244.044 111.133 244.621 110.381 245.792 110.381C246.962 110.381 247.555 111.141 247.555 112.304V116.263C247.555 117.426 246.977 118.194 245.792 118.194C244.606 118.194 244.044 117.434 244.044 116.263V112.304ZM244.887 116.309C244.887 117.008 245.184 117.418 245.792 117.418C246.4 117.418 246.704 117.008 246.704 116.309V112.266C246.704 111.574 246.415 111.156 245.792 111.156C245.168 111.156 244.887 111.574 244.887 112.266V116.309Z" fill="#BDBDBD"/>
<path d="M250.154 110.457C251.347 110.457 251.894 111.179 251.894 112.364V116.225C251.894 117.396 251.347 118.118 250.154 118.118H248.36V110.457H250.154ZM250.154 117.297C250.762 117.297 251.058 116.917 251.058 116.218V112.281C251.058 111.582 250.762 111.194 250.139 111.194H249.219V117.274L250.154 117.297Z" fill="#BDBDBD"/>
<path d="M255.413 113.846V114.606H253.544V117.327H255.824V118.087H252.67V110.457H255.824V111.217H253.544V113.831L255.413 113.846Z" fill="#BDBDBD"/>
<path d="M230.432 129.396C231.618 129.396 232.165 130.156 232.165 131.304V135.164C232.165 136.335 231.618 137.057 230.432 137.057H228.631V129.396H230.432ZM230.432 136.282C231.048 136.282 231.344 135.894 231.344 135.195V131.258C231.344 130.559 231.048 130.179 230.424 130.179H229.52V136.259L230.432 136.282Z" fill="#263238"/>
<path d="M232.902 131.22C232.902 130.05 233.48 129.29 234.65 129.29C235.82 129.29 236.413 130.05 236.413 131.22V135.18C236.448 135.427 236.428 135.678 236.355 135.917C236.281 136.155 236.155 136.374 235.986 136.558C235.818 136.742 235.61 136.886 235.379 136.98C235.148 137.075 234.899 137.116 234.65 137.102C233.48 137.102 232.902 136.342 232.902 135.18V131.22ZM233.738 135.225C233.738 135.924 234.034 136.327 234.65 136.327C235.266 136.327 235.554 135.924 235.554 135.225V131.22C235.554 130.528 235.273 130.11 234.65 130.11C234.027 130.11 233.738 130.528 233.738 131.22V135.225Z" fill="#263238"/>
<path d="M237.971 137.057H237.211V129.396H238.29L240.061 134.936V129.396H240.821V137.057H239.932L237.971 130.863V137.057Z" fill="#263238"/>
<path d="M244.416 132.793V133.553H242.546V136.282H244.826V137.042H241.68V129.396H244.834V130.156H242.554V132.77L244.416 132.793Z" fill="#263238"/>
<path d="M311.836 22.54H162.222V28.6352H311.836V22.54Z" fill="#B188E3" fill-opacity="0.5" stroke="#263238" stroke-width="0.985332" stroke-linecap="round" stroke-linejoin="round"/>
<path d="M62.1072 217.305V216.18" stroke="#263238" stroke-width="0.985332" stroke-linecap="round" stroke-linejoin="round"/>
<path d="M62.1072 213.954V117.593C62.1072 115.646 62.4908 113.719 63.236 111.92C63.9813 110.122 65.0736 108.487 66.4506 107.111C67.8275 105.735 69.4622 104.643 71.2611 103.899C73.06 103.155 74.988 102.772 76.9348 102.773H147.44" stroke="#263238" stroke-width="0.985332" stroke-linecap="round" stroke-linejoin="round" stroke-dasharray="2.93 2.93"/>
<path d="M148.588 102.773H149.705" stroke="#263238" stroke-width="0.985332" stroke-linecap="round" stroke-linejoin="round"/>
<path d="M157.115 103.389L145 96.3893V110.381L157.115 103.389Z" fill="#263238"/>
<path d="M272.764 311.158H273.889" stroke="#263238" stroke-width="0.985332" stroke-linecap="round" stroke-linejoin="round"/>
<path d="M276.116 311.158H280.273C284.217 311.158 288 309.591 290.79 306.801C293.579 304.012 295.146 300.229 295.146 296.284V155.684" stroke="#263238" stroke-width="0.985332" stroke-linecap="round" stroke-linejoin="round" stroke-dasharray="2.93 2.93"/>
<path d="M295.146 154.575V153.458" stroke="#263238" stroke-width="0.985332" stroke-linecap="round" stroke-linejoin="round"/>
<path d="M268.523 310.504L280.638 317.496V303.504L268.523 310.504Z" fill="#263238"/>
<path d="M205.04 219.274C205.686 218.044 206.657 217.015 207.847 216.298C209.037 215.581 210.4 215.204 211.789 215.208H276.807C276.807 215.208 281.504 215.208 280.098 224.138C278.692 233.068 259.418 287.59 254.714 304.036C250.01 320.483 249.075 355.268 249.075 355.268H171.053C171.053 355.268 177.308 272.223 205.04 219.274Z" fill="white" stroke="#263238" stroke-width="0.985332" stroke-linecap="round" stroke-linejoin="round"/>
<path d="M265.529 230.719C258.955 246.056 245.009 306.719 242.79 355.268H249.075C249.075 355.268 250.04 320.46 254.714 304.036C259.388 287.613 278.684 233.068 280.098 224.138C281.512 215.208 276.807 215.208 276.807 215.208C276.807 215.208 270.796 218.422 265.529 230.719Z" fill="#263238" stroke="#263238" stroke-width="0.985332" stroke-linecap="round" stroke-linejoin="round"/>
<path d="M141.892 216.439C141.892 216.439 129.96 214.987 122.079 206.703C114.198 198.419 139.209 168.878 152.562 161.916C165.916 154.955 171.418 156.862 185.736 167.419C200.055 177.975 214.031 194.916 213.856 206.278C213.682 217.64 207.495 223.074 216.136 228.675C224.778 234.276 249.234 250.183 252.806 261.112C256.378 272.04 250.184 285.637 235.843 293.032C221.502 300.426 197.972 300.084 175.309 292.758C152.646 285.432 147.714 262.252 150.632 252.82C153.55 243.388 161.272 236.906 158.946 229.731C156.621 222.557 141.892 216.439 141.892 216.439Z" fill="#263238" stroke="#263238" stroke-width="0.985332" stroke-linecap="round" stroke-linejoin="round"/>
<path d="M152.122 249.02C152.122 249.02 139.779 247.302 134.079 250.988C128.379 254.674 100.214 302.813 100.214 302.813L84.6564 281.875L71.1664 287.932C71.1664 287.932 77.4896 312.404 84.8464 324.579C92.2032 336.754 96.3984 337.986 98.9216 337.583C106.43 336.39 128.182 311.226 128.182 311.226L136.086 337.522L130.72 356.636H230.66L218.538 336.42C218.538 336.42 234.354 263.46 230.326 255.731C226.298 248.002 202.829 249.02 195.449 249.02H174.321C171.119 249.655 167.865 249.991 164.601 250.023C160.427 249.902 156.262 249.567 152.122 249.02Z" fill="#9D50FB"/>
<path d="M218.88 251.482L219.085 251.566L217.17 256.445L216.957 256.362L218.88 251.482ZM218.356 256.909L218.561 256.992L220.484 252.113L220.271 252.03L218.356 256.909ZM227.073 272.436L226.852 272.375L226.009 275.377H226.244L227.073 272.436ZM228.517 272.846L228.296 272.785L227.536 275.377H227.764L228.517 272.846ZM219.397 273.013L220.111 275.377H220.347L219.587 272.945L219.397 273.013ZM221.054 272.519L220.833 272.58L221.677 275.377H221.912L221.054 272.519ZM227.172 261.355L229.778 256.795L229.588 256.681L226.982 261.241L227.172 261.355ZM228.479 262.115L230.918 257.851C230.918 257.722 230.918 257.608 230.873 257.486L228.281 262.008L228.479 262.115ZM230.189 268.598L230.622 268.028L230.668 267.61L230.006 268.461L230.189 268.598ZM223.736 263.969L227.369 267.769L227.529 267.617L223.896 263.817L223.736 263.969ZM222.589 264.98L226.214 268.78L226.381 268.628L222.748 264.828L222.589 264.98ZM218.584 264.98L218.644 264.76L215.84 264.068V264.296L218.584 264.98ZM215.802 262.7L218.956 263.498L219.009 263.278L215.84 262.518L215.802 262.7ZM219.321 269.487L219.252 269.274L215.84 270.46V270.695L219.321 269.487ZM218.781 267.845L215.802 268.833V269.069L218.842 268.058L218.781 267.845ZM217.132 310.306L219.047 305.427L218.842 305.344L216.919 310.223L217.132 310.306ZM220.233 305.891L218.318 310.77L218.523 310.854L220.446 305.974L220.233 305.891ZM220.134 328.767L219.549 326.814L219.328 326.874L220.043 329.23L220.134 328.767ZM223.934 295.95L223.721 296.026L225.5 300.958H225.545L225.614 300.616L223.934 295.95ZM225.127 295.517L226.062 298.093C226.062 297.949 226.115 297.804 226.138 297.652L225.34 295.441L225.127 295.517ZM228.456 282.673L228.578 283.076L228.646 282.62L228.456 282.673ZM223.455 282.376L223.151 287.605H223.372L223.676 282.369L223.455 282.376ZM224.648 287.696H224.869L225.173 282.46H224.952L224.648 287.696ZM218.257 282.148L218.363 281.951L215.779 280.56V280.818L218.257 282.148ZM215.779 279.108L218.964 280.818L219.07 280.621L215.84 278.911L215.779 279.108ZM217.77 287.02L217.626 286.853L215.84 288.54V288.836L217.77 287.02ZM216.79 285.888L216.646 285.713L215.779 286.473V286.769L216.79 285.888ZM215.84 294.878V295.114L220.567 293.267L220.484 293.062L215.84 294.878ZM215.84 293.267V293.51L220.02 291.876L219.936 291.664L215.84 293.267ZM218.629 302.782L218.682 302.562L215.84 301.924V302.152L218.629 302.782ZM218.956 301.323L219.009 301.103L215.84 300.388V300.616L218.956 301.323ZM218.584 318.94L218.644 318.727L215.802 318.005V318.241L218.584 318.94ZM215.84 316.66L218.994 317.466L219.047 317.245L215.84 316.44V316.66ZM219.359 323.447L219.29 323.234L215.84 324.374V324.617L219.359 323.447ZM218.888 322.026L218.819 321.813L215.84 322.801V323.036L218.888 322.026ZM225.644 277.474L226.244 275.369H226.009L225.431 277.414L225.644 277.474ZM227.795 275.369H227.567L226.875 277.816L227.088 277.885L227.795 275.369ZM220.879 278.022L221.099 277.961L220.339 275.369H220.104L220.879 278.022ZM222.528 277.528L221.882 275.369H221.646L222.315 277.596L222.528 277.528ZM223.782 349.994L225.56 354.918L225.773 354.842L223.995 349.918L223.782 349.994ZM227.179 354.333L225.401 349.408L225.188 349.484L226.974 354.409L227.179 354.333ZM229.695 355.549L229.474 355.488L229.155 356.628H229.391L229.695 355.549ZM215.84 334.786L218.318 336.116L218.424 335.918L215.84 334.528V334.786ZM215.84 333.084L218.88 334.748L218.926 334.52L215.84 332.833V333.084ZM217.793 340.98L217.649 340.805L215.84 342.424V342.713L217.793 340.98ZM216.813 339.84L216.668 339.673L215.802 340.433V340.729L216.813 339.84ZM220.446 346.954L215.84 348.793V349.036L220.567 347.182L220.446 346.954ZM215.802 347.402L219.982 345.768L219.898 345.563L215.802 347.159V347.402ZM215.802 355.815V356.051L218.318 356.613H218.606L218.644 356.461L215.802 355.815ZM218.918 355.215L218.971 354.994L215.802 354.28V354.516L218.918 355.215ZM163.005 256.339L163.21 256.422L165.133 251.543L164.92 251.46L163.005 256.339ZM164.396 256.886L164.608 256.97L166.524 252.09L166.318 252.007L164.396 256.886ZM213.507 263.688L215.787 264.273V264.045L213.545 263.475L213.507 263.688ZM213.932 262.024L213.872 262.236L215.802 262.73V262.495L213.932 262.024ZM215.84 270.695V270.46L214.32 270.969L214.388 271.182L215.84 270.695ZM213.803 269.54L213.872 269.753L215.802 269.114V268.879L213.803 269.54ZM209.76 275.377H210.018L211.006 273.659L210.816 273.545L209.76 275.377ZM211.493 275.377H211.751L212.306 274.404L212.116 274.29L211.493 275.377ZM200.192 273.279L200.017 273.424L201.62 275.377H201.909L200.192 273.279ZM201.18 272.474L203.558 275.377H203.847L201.354 272.337L201.18 272.474ZM195.51 275.035L195.305 275.111L195.396 275.377H195.639L195.51 275.035ZM196.711 274.602L196.992 275.362H197.228L196.924 274.51L196.711 274.602ZM188.488 275.362L189.134 272.816L188.913 272.762L188.252 275.362H188.488ZM190.365 273.127L189.795 275.362H190L190.555 273.188L190.365 273.127ZM173.136 272.42L172.915 272.36L172.064 275.362H172.3L173.136 272.42ZM174.572 272.831L174.359 272.77L173.599 275.362H173.835L174.572 272.831ZM165.452 272.998L166.166 275.362H166.402L165.642 272.93L165.452 272.998ZM167.101 272.504L166.888 272.565L167.732 275.362H167.96L167.101 272.504ZM173.227 261.34L175.834 256.78L175.636 256.666L173.029 261.226L173.227 261.34ZM174.336 261.978L174.526 262.084L177.133 257.524L176.936 257.41L174.336 261.978ZM204.075 265.322L208.901 267.366L208.985 267.161L204.159 265.117L204.075 265.322ZM203.49 266.698L208.316 268.742L208.4 268.537L203.536 266.5L203.49 266.698ZM207.556 258.824L207.769 258.885L209.198 253.846L208.977 253.778L207.556 258.824ZM208.992 259.234L209.213 259.295L210.634 254.249L210.421 254.188L208.992 259.234ZM201.149 249.856L202.669 254.872L202.882 254.811L201.4 249.78L201.149 249.856ZM202.578 249.423L204.098 254.439L204.311 254.378L202.791 249.362L202.578 249.423ZM186.018 270.908L184.498 265.892L184.285 265.953L185.805 270.976L186.018 270.908ZM187.454 270.475L185.934 265.459L185.714 265.52L187.234 270.543L187.454 270.475ZM193.382 267.572L198.573 266.812V266.591L193.382 267.351V267.572ZM193.595 269.054L198.786 268.294V268.073L193.595 268.833V269.054ZM197.395 262.662L197.615 262.715L198.786 257.608L198.565 257.555L197.395 262.662ZM200.024 257.889L198.854 262.996L199.074 263.05L200.245 257.942L200.024 257.889ZM181.64 259.751L181.83 259.873L184.634 255.442L184.444 255.328L181.64 259.751ZM185.904 256.248L185.714 256.126L182.909 260.557L183.099 260.678L185.904 256.248ZM181.032 251.148L185.835 249.05V248.997H185.425L180.964 250.943L181.032 251.148ZM181.541 252.311L181.632 252.516L186.436 250.426L186.344 250.221L181.541 252.311ZM176.981 248.997H176.746L175.56 253.116L175.78 253.177L176.981 248.997ZM174.359 252.797L175.423 248.997H175.188L174.139 252.706L174.359 252.797ZM194.925 250.608L194.408 249.02H194.172L194.666 250.662L194.925 250.608ZM193.276 251.102L193.496 251.042L192.888 249.028H192.652L193.276 251.102ZM176.069 268.476L176.244 268.613L179.436 264.456L179.254 264.319L176.069 268.476ZM177.255 269.388L177.437 269.525L180.622 265.36L180.447 265.223L177.255 269.388ZM169.792 263.984L173.424 267.784L173.592 267.632L169.959 263.832L169.792 263.984ZM168.667 264.98L172.3 268.78L172.459 268.628L168.834 264.828L168.667 264.98ZM188.564 258.262L188.472 258.467L193.298 260.519L193.39 260.306L188.564 258.262ZM189.058 257.091L193.884 259.136L193.975 258.93L189.149 256.886L189.058 257.091ZM164.669 264.98L164.722 264.76L161.88 264.068V264.296L164.669 264.98ZM161.888 262.7L165.034 263.498L165.095 263.278L161.88 262.518L161.888 262.7ZM165.406 269.487L165.33 269.274L161.88 270.46V270.695L165.406 269.487ZM164.859 267.845L161.888 268.833V269.069L164.928 268.058L164.859 267.845ZM164.92 305.344L163.005 310.223L163.21 310.306L165.133 305.427L164.92 305.344ZM166.318 305.891L164.396 310.77L164.608 310.854L166.524 305.974L166.318 305.891ZM213.666 279.663L215.802 280.818V280.56L213.773 279.466L213.666 279.663ZM214.48 278.143L214.373 278.333L215.802 279.093V278.835L214.48 278.143ZM215.84 288.54L213.72 290.379L213.864 290.546L215.84 288.836V288.54ZM212.884 289.414L215.84 286.86V286.564L212.739 289.239L212.884 289.414ZM215.604 295.008L215.68 295.22L215.84 295.152V294.916L215.604 295.008ZM215.057 293.617L215.133 293.822L215.84 293.548V293.305L215.057 293.617ZM215.817 301.977L213.537 301.46L213.484 301.68L215.81 302.205L215.817 301.977ZM215.817 300.457L213.872 300.016L213.826 300.236L215.817 300.685V300.457ZM215.817 318.051L213.56 317.42L213.507 317.64L215.787 318.226L215.817 318.051ZM213.948 316.029L213.887 316.25L215.84 316.66V316.432L213.948 316.029ZM215.84 324.617V324.374L214.32 324.883L214.388 325.096L215.84 324.617ZM215.84 323.036V322.801L213.841 323.462L213.91 323.675L215.84 323.036ZM184.984 278.037L180.158 275.985L180.074 276.19L184.9 278.242L184.984 278.037ZM179.489 277.573L184.315 279.618L184.399 279.412L179.573 277.368L179.489 277.573ZM210.991 327.574L210.801 327.467L209.76 329.299H210.018L210.991 327.574ZM212.291 328.334L212.101 328.22L211.478 329.314H211.736L212.291 328.334ZM200.002 327.353L201.605 329.314H201.894L200.176 327.209L200.002 327.353ZM201.164 326.403L203.543 329.314H203.832L201.339 326.274L201.164 326.403ZM195.495 328.972L195.29 329.048L195.381 329.314H195.624L195.495 328.972ZM196.696 328.539L196.977 329.299H197.212L196.908 328.448L196.696 328.539ZM189.096 326.768L188.875 326.707L188.214 329.314H188.48L189.096 326.768ZM190.327 327.08L189.757 329.314H190L190.555 327.133L190.327 327.08ZM173.098 326.365L172.877 326.304L172.026 329.344H172.262L173.098 326.365ZM174.534 326.776L174.321 326.715L173.561 329.314H173.797L174.534 326.776ZM165.414 326.943L166.128 329.314H166.364L165.604 326.882L165.414 326.943ZM166.85 326.517L167.694 329.314H167.922L167.063 326.449L166.85 326.517ZM175.598 310.633L172.991 315.193L173.189 315.307L175.796 310.747L175.598 310.633ZM177.118 311.484L176.92 311.37L174.321 315.93L174.511 316.044L177.118 311.484ZM198.314 286.511L194.97 282.46L194.803 282.604L198.117 286.663L198.314 286.511ZM197.159 287.461L193.8 283.387L193.625 283.532L196.946 287.59L197.159 287.461ZM188.944 285.242L190.722 290.166L190.935 290.09L189.156 285.166L188.944 285.242ZM190.357 284.732L192.136 289.657L192.341 289.581L190.562 284.656L190.357 284.732ZM208.97 321.106L204.144 319.062L204.06 319.267L208.886 321.311L208.97 321.106ZM208.384 322.489L203.558 320.437L203.475 320.65L208.301 322.694L208.384 322.489ZM208.962 307.73L207.541 312.776L207.754 312.837L209.182 307.791L208.962 307.73ZM210.619 308.201L210.406 308.14L208.977 313.179L209.198 313.24L210.619 308.201ZM202.89 308.741L201.37 303.725L201.157 303.786L202.677 308.809L202.89 308.741ZM204.326 308.308L202.806 303.292L202.586 303.352L204.106 308.376L204.326 308.308ZM189.126 295.182L186.519 299.742L186.709 299.849L189.316 295.289L189.126 295.182ZM188.016 294.552L187.819 294.438L185.22 298.998L185.41 299.104L188.016 294.552ZM179.162 298.694L175.841 294.62L175.666 294.764L178.988 298.823L179.162 298.694ZM180.318 297.744L177.004 293.685L176.829 293.83L180.143 297.888L180.318 297.744ZM169.83 296.094L171.608 301.027L171.821 300.951L170.035 296.018L169.83 296.094ZM171.236 295.585L173.014 300.518L173.227 300.442L171.448 295.509L171.236 295.585ZM207.48 299.575L207.7 299.628L208.992 294.552L208.772 294.491L207.48 299.575ZM210.444 294.916L210.224 294.863L208.932 299.94L209.152 299.993L210.444 294.916ZM201.871 299.18L197.045 297.136L196.962 297.341L201.788 299.393L201.871 299.18ZM202.456 297.804L197.6 295.76L197.516 295.965L202.342 298.01L202.456 297.804ZM186.018 324.83L184.498 319.806L184.285 319.875L185.805 324.891L186.018 324.83ZM187.454 324.397L185.934 319.373L185.714 319.442L187.234 324.458L187.454 324.397ZM198.573 320.756V320.536L193.382 321.296V321.516L198.573 320.756ZM198.786 322.238V322.018L193.595 322.778V322.998L198.786 322.238ZM197.6 316.66L198.77 311.553L198.55 311.5L197.38 316.614L197.6 316.66ZM199.059 316.994L200.23 311.887L200.009 311.834L198.839 316.949L199.059 316.994ZM184.619 309.394L184.429 309.273L181.64 313.673L181.83 313.795L184.619 309.394ZM185.888 310.192L185.698 310.071L182.894 314.502L183.084 314.623L185.888 310.192ZM185.82 302.995L185.736 302.79L180.926 304.888L181.017 305.093L185.82 302.995ZM186.42 304.371L186.329 304.166L181.526 306.263L181.617 306.468L186.42 304.371ZM177.186 302.091L176.974 302.022L175.56 307.031L175.78 307.092L177.186 302.091ZM174.321 306.727L175.742 301.68L175.53 301.62L174.101 306.666L174.321 306.727ZM194.879 304.5L193.359 299.484L193.139 299.545L194.659 304.568L194.879 304.5ZM191.725 299.94L193.245 304.956L193.466 304.895L191.946 299.879L191.725 299.94ZM184.437 287.02L180.249 290.182L180.386 290.356L184.574 287.202L184.437 287.02ZM181.29 291.58L185.47 288.418L185.341 288.244L181.154 291.398L181.29 291.58ZM177.673 287.24L176.221 282.202L176.001 282.27L177.46 287.301L177.673 287.24ZM174.564 282.68L176.016 287.78L176.236 287.719L174.8 282.665L174.564 282.68ZM169.564 282.384L169.26 287.613H169.48L169.784 282.376L169.564 282.384ZM170.749 287.704H170.977L171.281 282.468H171.053L170.749 287.704ZM179.36 318.34L179.178 318.203L175.993 322.368L176.168 322.504L179.36 318.34ZM180.546 319.252L180.371 319.115L177.179 323.28L177.361 323.416L180.546 319.252ZM169.716 317.868L173.348 321.668L173.516 321.509L169.883 317.709L169.716 317.868ZM168.667 318.94L172.3 322.74L172.459 322.588L168.834 318.788L168.667 318.94ZM206.834 289.748L206.659 289.612L203.361 293.685L203.536 293.83L206.834 289.748ZM205.496 288.669L202.198 292.743L202.373 292.887L205.664 288.806L205.496 288.669ZM206.416 280.94H206.196L205.603 286.146H205.831L206.416 280.94ZM204.706 280.742L204.121 285.956H204.341L204.926 280.75L204.706 280.742ZM193.39 314.258L188.564 312.214L188.472 312.419L193.298 314.464L193.39 314.258ZM189.058 311.036L193.884 313.08L193.975 312.875L189.149 310.831L189.058 311.036ZM164.365 282.224L164.472 282.027L161.888 280.636V280.894L164.365 282.224ZM161.888 279.184L165.072 280.894L165.178 280.697L161.88 278.911L161.888 279.184ZM163.879 287.096L163.727 286.929L161.88 288.54V288.836L163.879 287.096ZM162.898 285.964L162.746 285.789L161.888 286.549V286.845L162.898 285.964ZM166.524 293.077L161.888 294.894V295.129L166.607 293.282L166.524 293.077ZM166.06 291.892L165.984 291.679L161.88 293.267V293.51L166.06 291.892ZM164.677 302.798L164.722 302.577L161.888 301.939V302.167L164.677 302.798ZM161.88 300.616L164.996 301.323L165.049 301.103L161.88 300.388V300.616ZM164.669 318.94L164.722 318.727L161.888 318.005V318.241L164.669 318.94ZM161.88 316.66L165.026 317.466L165.087 317.245L161.88 316.44V316.66ZM165.399 323.447L165.323 323.234L161.88 324.374V324.617L165.399 323.447ZM164.928 322.026L164.852 321.813L161.88 322.801V323.036L164.928 322.026ZM208.187 278.09L208.377 278.196L209.996 275.369H209.76L208.187 278.09ZM209.486 278.85L209.676 278.956L211.728 275.384H211.47L209.486 278.85ZM203.49 277.33L201.886 275.369H201.598L203.315 277.467L203.49 277.33ZM204.478 276.524L204.653 276.38L203.824 275.369H203.536L204.478 276.524ZM197.273 279.96L195.616 275.4H195.373L197.06 280.066L197.273 279.96ZM198.466 279.526L198.679 279.45L197.205 275.369H196.969L198.466 279.526ZM187.598 277.847L187.819 277.9L188.465 275.369H188.229L187.598 277.847ZM189.05 278.219L189.27 278.272L190.03 275.369H189.795L189.05 278.219ZM171.684 277.459L172.277 275.354H172.041L171.464 277.398L171.684 277.459ZM173.835 275.354H173.599L172.908 277.801L173.128 277.87L173.835 275.354ZM166.919 278.006L167.132 277.946L166.372 275.354H166.136L166.919 278.006ZM168.568 277.512L167.914 275.354H167.686L168.348 277.581L168.568 277.512ZM213.765 333.41L213.659 333.608L215.794 334.763V334.505L213.765 333.41ZM214.472 332.096L214.366 332.293L215.794 333.053V332.802L214.472 332.096ZM215.84 342.713V342.424L213.72 344.256L213.864 344.423L215.84 342.713ZM215.84 340.737V340.44L212.739 343.123L212.884 343.29L215.84 340.737ZM215.604 348.884L215.68 349.097L215.84 349.036V348.793L215.604 348.884ZM215.057 347.493L215.133 347.706L215.84 347.425V347.182L215.057 347.493ZM213.537 355.329L213.484 355.549L215.81 356.074V355.838L213.537 355.329ZM215.817 354.303L213.872 353.862L213.826 354.082L215.817 354.538V354.303ZM184.984 331.951L180.158 329.907L180.074 330.112L184.9 332.156L184.984 331.951ZM179.489 331.488L184.315 333.54L184.399 333.327L179.573 331.282L179.489 331.488ZM194.803 336.496L198.117 340.554L198.292 340.41L194.97 336.359L194.803 336.496ZM197.136 341.36L193.8 337.309L193.625 337.446L196.946 341.504L197.136 341.36ZM190.912 344.02L189.134 339.088L188.921 339.164L190.699 344.096L190.912 344.02ZM192.318 343.511L190.54 338.578L190.334 338.654L192.113 343.587L192.318 343.511ZM189.278 349.218L189.088 349.104L186.481 353.664L186.671 353.778L189.278 349.218ZM187.978 348.458L187.781 348.352L185.182 352.912L185.372 353.026L187.978 348.458ZM179.124 352.6L175.841 348.58L175.666 348.717L178.988 352.775L179.124 352.6ZM180.28 351.65L176.966 347.6L176.791 347.736L180.105 351.795L180.28 351.65ZM171.783 354.858L169.997 349.933L169.792 350.009L171.57 354.934L171.783 354.858ZM173.189 354.348L171.41 349.424L171.198 349.5L172.976 354.424L173.189 354.348ZM208.909 348.474L208.688 348.42L207.396 353.497L207.617 353.55L208.909 348.474ZM210.36 348.838L210.14 348.785L208.848 353.87L209.068 353.923L210.36 348.838ZM201.871 353.14L197.045 351.096L196.962 351.301L201.788 353.345L201.871 353.14ZM202.456 351.757L197.6 349.674L197.516 349.88L202.342 351.932L202.456 351.757ZM176.966 355.944L176.753 356.704H176.989L177.179 356.036L176.966 355.944ZM175.735 355.595L175.522 355.534L175.195 356.674H175.431L175.735 355.595ZM193.154 353.497L194.112 356.674H194.347L193.374 353.429L193.154 353.497ZM191.938 353.862L191.725 353.923L192.546 356.674H192.782L191.938 353.862ZM184.574 341.223L184.437 341.048L180.249 344.202L180.386 344.385L184.574 341.223ZM185.47 342.424L185.341 342.242L181.154 345.396L181.29 345.578L185.47 342.424ZM177.46 341.307L177.673 341.238L176.221 336.207L176.001 336.268L177.46 341.307ZM176.236 341.656L174.8 336.587L174.587 336.648L176.039 341.679L176.236 341.656ZM169.48 341.656L169.784 336.428H169.564L169.26 341.664L169.48 341.656ZM171 341.748L171.304 336.511H171.076L170.772 341.74L171 341.748ZM206.857 343.708L206.682 343.564L203.384 347.638L203.558 347.782L206.857 343.708ZM205.519 342.622L202.221 346.695L202.396 346.84L205.686 342.766L205.519 342.622ZM206.439 334.9H206.218L205.626 340.106H205.854L206.439 334.9ZM204.729 334.71L204.144 339.916H204.364L204.949 334.702L204.729 334.71ZM164.388 336.184L164.494 335.987L161.91 334.596V334.854L164.388 336.184ZM165.201 334.664L161.88 332.833V333.084L165.064 334.801L165.201 334.664ZM163.879 340.98L163.727 340.805L161.88 342.416V342.713L163.879 340.98ZM162.898 339.84L162.746 339.673L161.888 340.433V340.729L162.898 339.84ZM166.524 346.954L161.888 348.77V349.013L166.607 347.159L166.524 346.954ZM161.888 347.402L166.06 345.768L165.984 345.563L161.888 347.159V347.402ZM161.888 355.815V356.051L164.403 356.613H164.684L164.722 356.461L161.888 355.815ZM165.004 355.215L165.057 354.994L161.888 354.28V354.516L165.004 355.215ZM208.384 332.103L210.003 329.276H209.76L208.24 331.989L208.384 332.103ZM211.478 329.276L209.494 332.734L209.684 332.848L211.736 329.276H211.478ZM203.323 331.374L203.498 331.229L201.894 329.276H201.605L203.323 331.374ZM204.486 330.424L204.66 330.279L203.832 329.276H203.543L204.486 330.424ZM197.281 333.859L195.624 329.299H195.381L197.068 333.958L197.281 333.859ZM198.474 333.433L198.687 333.35L197.212 329.276H196.977L198.474 333.433ZM187.834 331.807L188.48 329.276H188.244L187.614 331.754L187.834 331.807ZM189.065 332.118L189.286 332.172L190.046 329.276H189.81L189.065 332.118ZM171.699 331.358L172.292 329.261H172.056L171.479 331.298L171.699 331.358ZM173.614 329.261L172.923 331.708L173.143 331.769L173.85 329.261H173.614ZM166.934 331.913L167.147 331.845L166.387 329.261H166.151L166.934 331.913ZM168.363 331.48L168.583 331.419L167.93 329.261H167.702L168.363 331.48ZM159.6 263.711L161.88 264.296V264.068L159.638 263.498L159.6 263.711ZM160.026 262.046L159.972 262.259L161.903 262.753V262.518L160.026 262.046ZM161.88 270.695V270.46L160.36 270.969L160.436 271.182L161.88 270.695ZM159.889 269.54L159.957 269.753L161.888 269.114V268.879L159.889 269.54ZM155.8 275.377H156.058L157.046 273.659L156.849 273.545L155.8 275.377ZM157.525 275.377H157.784L158.346 274.404L158.148 274.29L157.525 275.377ZM146.232 273.279L146.057 273.424L147.66 275.377H147.949L146.232 273.279ZM147.22 272.474L149.591 275.377H149.887L147.394 272.337L147.22 272.474ZM141.55 275.035L141.337 275.111L141.436 275.377H141.672L141.55 275.035ZM142.751 274.602L143.024 275.362H143.268L142.964 274.51L142.751 274.602ZM134.52 275.362L135.166 272.816L134.953 272.762L134.292 275.362H134.52ZM136.405 273.127L135.835 275.362H136.07L136.618 273.188L136.405 273.127ZM118.34 275.362L119.168 272.42L118.955 272.36L118.104 275.362H118.34ZM120.62 272.831L120.399 272.77L119.639 275.362H119.875L120.62 272.831ZM150.092 265.322L154.918 267.366L155.01 267.161L150.184 265.117L150.092 265.322ZM149.507 266.698L154.356 268.78L154.447 268.575L149.621 266.5L149.507 266.698ZM153.573 258.824L153.794 258.885L155.215 253.846L155.002 253.778L153.573 258.824ZM155.017 259.234L155.23 259.295L156.659 254.249L156.446 254.188L155.017 259.234ZM147.227 249.856L148.747 254.872L148.96 254.811L147.44 249.78L147.227 249.856ZM148.664 249.423L150.184 254.439L150.396 254.378L148.876 249.362L148.664 249.423ZM130.378 265.953L131.898 270.976L132.111 270.908L130.591 265.892L130.378 265.953ZM133.54 270.513L132.02 265.497L131.807 265.558L133.327 270.581L133.54 270.513ZM139.468 267.61L144.658 266.85V266.629L139.468 267.389V267.61ZM139.642 268.871V269.092L144.833 268.332V268.111L139.642 268.871ZM144.856 257.646L144.636 257.593L143.473 262.7L143.686 262.753L144.856 257.646ZM146.102 257.927L144.932 263.034L145.145 263.088L146.315 257.98L146.102 257.927ZM127.68 259.751L127.87 259.873L130.674 255.442L130.484 255.328L127.68 259.751ZM128.949 260.557L129.139 260.678L131.944 256.248L131.754 256.126L128.949 260.557ZM140.942 250.578L140.456 248.959H140.228L140.729 250.608L140.942 250.578ZM139.293 251.072L139.506 251.011L138.966 249.202L138.746 249.248L139.293 251.072ZM122.086 268.446L122.261 268.582L125.446 264.425L125.271 264.288L122.086 268.446ZM126.646 265.33L126.464 265.193L123.28 269.358L123.462 269.494L126.646 265.33ZM134.626 258.269L134.543 258.474L139.369 260.526L139.452 260.314L134.626 258.269ZM135.128 257.099L139.954 259.143L140.038 258.938L135.212 256.894L135.128 257.099ZM110.99 305.397L109.075 310.276L109.28 310.36L111.196 305.48L110.99 305.397ZM112.381 305.944L110.466 310.823L110.671 310.907L112.594 306.028L112.381 305.944ZM159.729 279.716L161.872 280.872V280.613L159.836 279.519L159.729 279.716ZM160.55 278.196L160.444 278.386L161.872 279.146V278.888L160.55 278.196ZM161.88 288.54L159.752 290.379L159.904 290.546L161.88 288.836V288.54ZM158.924 289.414L161.88 286.86V286.564L158.779 289.239L158.924 289.414ZM161.637 295.008L161.72 295.22L161.88 295.152V294.916L161.637 295.008ZM161.88 293.305L161.12 293.617L161.204 293.822L161.91 293.548L161.88 293.305ZM161.88 301.962L159.6 301.445L159.554 301.665L161.88 302.19V301.962ZM159.934 299.986L159.881 300.206L161.88 300.654V300.426L159.934 299.986ZM161.88 317.982L159.638 317.412L159.577 317.633L161.857 318.218L161.88 317.982ZM160.003 315.961L159.95 316.181L161.88 316.66V316.432L160.003 315.961ZM161.88 324.617V324.374L160.36 324.883L160.436 325.096L161.88 324.617ZM161.88 323.036V322.801L159.881 323.462L159.95 323.675L161.88 323.036ZM126.16 276.19L130.986 278.242L131.077 278.037L126.251 275.985L126.16 276.19ZM125.575 277.573L130.401 279.618L130.492 279.412L125.666 277.368L125.575 277.573ZM157.084 327.574L156.887 327.467L155.8 329.299H156.058L157.084 327.574ZM158.384 328.334L158.186 328.22L157.563 329.314H157.822L158.384 328.334ZM146.095 327.353L147.698 329.314H147.987L146.27 327.209L146.095 327.353ZM147.258 326.403L149.629 329.314H149.925L147.432 326.274L147.258 326.403ZM141.588 328.972L141.375 329.048L141.474 329.314H141.71L141.588 328.972ZM142.789 328.539L143.062 329.299H143.306L143.002 328.448L142.789 328.539ZM134.33 329.299H134.558L135.204 326.753L134.991 326.692L134.33 329.299ZM136.443 327.064L135.873 329.299H136.108L136.656 327.118L136.443 327.064ZM111.72 326.867L111.507 326.928L111.925 328.311L112.108 328.144L111.72 326.867ZM113.156 326.434L112.936 326.502L113.141 327.156L113.316 326.981L113.156 326.434ZM121.889 310.724L121.691 310.618L119.084 315.178L119.282 315.292L121.889 310.724ZM120.582 316.044L123.188 311.484L122.991 311.37L120.384 315.93L120.582 316.044ZM144.4 286.496L141.056 282.46L140.881 282.604L144.202 286.663L144.4 286.496ZM143.237 287.446L139.916 283.387L139.749 283.532L143.062 287.59L143.237 287.446ZM135.029 285.226L136.808 290.151L137.02 290.075L135.242 285.15L135.029 285.226ZM136.435 284.717L138.214 289.642L138.426 289.566L136.648 284.641L136.435 284.717ZM155.04 321.091L150.214 319.046L150.123 319.252L154.949 321.296L155.04 321.091ZM154.455 322.474L149.629 320.422L149.538 320.635L154.364 322.679L154.455 322.474ZM155.032 307.715L153.604 312.761L153.824 312.822L155.245 307.776L155.032 307.715ZM156.689 308.186L156.476 308.125L155.04 313.164L155.253 313.225L156.689 308.186ZM148.96 308.726L147.44 303.71L147.227 303.77L148.747 308.794L148.96 308.726ZM150.396 308.292L148.876 303.276L148.664 303.337L150.184 308.361L150.396 308.292ZM135.196 295.167L132.59 299.727L132.787 299.834L135.394 295.274L135.196 295.167ZM133.897 294.407L131.29 298.967L131.488 299.074L134.094 294.514L133.897 294.407ZM121.737 294.749L125.058 298.808L125.225 298.663L121.927 294.62L121.737 294.749ZM122.892 293.799L126.213 297.858L126.388 297.713L123.12 293.67L122.892 293.799ZM115.892 296.079L117.671 301.012L117.884 300.936L116.105 296.003L115.892 296.079ZM117.306 295.57L119.084 300.502L119.29 300.426L117.511 295.494L117.306 295.57ZM153.52 299.575L153.74 299.628L155.025 294.552L154.812 294.491L153.52 299.575ZM156.484 294.916L156.264 294.863L154.972 299.94L155.192 299.993L156.484 294.916ZM147.957 299.18L143.131 297.136L143.04 297.341L147.866 299.393L147.957 299.18ZM148.542 297.804L143.716 295.76L143.625 295.965L148.451 298.01L148.542 297.804ZM131.822 319.442L133.342 324.458L133.555 324.397L132.035 319.373L131.822 319.442ZM144.666 320.756V320.536L139.475 321.296V321.516L144.666 320.756ZM144.871 322.238V322.018L139.68 322.778V322.998L144.871 322.238ZM143.686 316.66L144.856 311.553L144.636 311.5L143.473 316.614L143.686 316.66ZM145.145 316.994L146.315 311.887L146.102 311.834L144.932 316.949L145.145 316.994ZM130.507 309.273L128.531 312.396L128.615 312.685L130.72 309.364L130.507 309.273ZM131.776 310.071L129.101 314.296L129.185 314.578L131.966 310.192L131.776 310.071ZM127.004 304.888L127.095 305.093L131.898 302.995L131.807 302.79L127.004 304.888ZM132.498 304.371L132.407 304.166L127.604 306.263L127.688 306.468L132.498 304.371ZM123.264 302.091L123.044 302.022L121.6 307.031L121.813 307.092L123.264 302.091ZM120.392 306.727L121.82 301.68L121.608 301.62L120.179 306.666L120.392 306.727ZM140.965 304.5L139.445 299.484L139.232 299.545L140.752 304.568L140.965 304.5ZM137.803 299.94L139.323 304.956L139.536 304.895L138.016 299.879L137.803 299.94ZM130.515 287.02L126.335 290.182L126.472 290.356L130.652 287.202L130.515 287.02ZM127.232 291.375L127.368 291.557L131.556 288.396L131.419 288.221L127.232 291.375ZM122.086 282.255L123.538 287.286L123.758 287.225L122.299 282.186L122.086 282.255ZM120.65 282.665L122.102 287.704L122.314 287.643L120.84 282.665H120.65ZM115.33 287.598H115.558L115.862 282.361H115.634L115.33 287.598ZM117.352 282.468H117.131L116.827 287.704H117.048L117.352 282.468ZM119.191 320.992L115.984 317.656L115.824 317.808L119.039 321.152L119.191 320.992ZM114.904 318.712L114.76 318.94L118.013 322.322L118.165 322.162L114.904 318.712ZM152.904 289.68L152.73 289.543L149.439 293.617L149.614 293.761L152.904 289.68ZM151.567 288.601L148.268 292.674L148.443 292.819L151.742 288.738L151.567 288.601ZM152.502 280.94H152.274L151.688 286.146H151.909L152.502 280.94ZM150.784 280.742L150.199 285.956H150.427L151.012 280.75L150.784 280.742ZM139.468 314.258L134.642 312.214L134.558 312.419L139.384 314.464L139.468 314.258ZM140.053 312.875L135.227 310.831L135.143 311.036L139.969 313.08L140.053 312.875ZM109.957 287.104L109.812 286.936L109.638 287.088L109.258 287.712L109.957 287.104ZM112.609 293.085L107.973 294.901V295.137L112.693 293.29L112.609 293.085ZM112.146 291.899L112.062 291.686L107.973 293.29V293.533L112.146 291.899ZM110.755 302.805L110.808 302.585L107.973 301.946V302.174L110.755 302.805ZM111.089 301.346L111.135 301.126L107.973 300.411V300.639L111.089 301.346ZM110.747 318.94L110.808 318.727L107.973 318.005V318.241L110.747 318.94ZM107.973 316.66L111.12 317.466L111.173 317.245L107.973 316.432V316.66ZM111.484 323.447L111.416 323.234L107.973 324.366V324.61L111.484 323.447ZM111.013 322.026L110.945 321.813L107.973 322.793V323.029L111.013 322.026ZM154.28 278.098L154.478 278.204L156.096 275.377H155.8L154.28 278.098ZM155.58 278.858L155.777 278.964L157.822 275.392H157.563L155.58 278.858ZM149.591 277.338L147.987 275.377H147.698L149.416 277.474L149.591 277.338ZM150.571 276.532L150.746 276.388L149.925 275.377H149.629L150.571 276.532ZM143.366 279.967L141.71 275.407H141.474L143.154 280.074L143.366 279.967ZM144.567 279.534L144.78 279.458L143.306 275.377H143.062L144.567 279.534ZM133.699 277.854L133.92 277.908L134.558 275.377H134.33L133.699 277.854ZM135.151 278.227L135.364 278.28L136.124 275.377H135.888L135.151 278.227ZM117.564 277.421L117.785 277.482L118.378 275.377H118.142L117.564 277.421ZM119.936 275.377H119.7L119.008 277.824L119.221 277.892L119.936 275.377ZM159.752 333.631L161.895 334.786V334.528L159.858 333.433L159.752 333.631ZM160.573 332.111L160.466 332.308L161.895 333.068V332.818L160.573 332.111ZM161.88 342.713V342.416L159.752 344.256L159.904 344.423L161.88 342.713ZM161.88 340.737V340.44L158.779 343.123L158.924 343.29L161.88 340.737ZM161.637 348.884L161.72 349.097L161.88 349.036V348.793L161.637 348.884ZM161.09 347.493L161.173 347.706L161.88 347.425V347.182L161.09 347.493ZM159.57 355.329L159.524 355.549L161.85 356.074V355.838L159.57 355.329ZM161.85 354.303L159.904 353.862L159.851 354.082L161.85 354.538V354.303ZM140.881 336.496L144.202 340.554L144.377 340.41L141.056 336.359L140.881 336.496ZM143.214 341.36L139.893 337.309L139.726 337.446L143.04 341.504L143.214 341.36ZM136.998 344.02L135.478 339.779L135.371 340.152L136.792 344.096L136.998 344.02ZM138.404 343.511L136.625 338.578L136.412 338.654L138.191 343.587L138.404 343.511ZM135.364 349.218L135.166 349.104L132.559 353.664L132.757 353.778L135.364 349.218ZM133.844 348.367L132.24 351.24L131.989 352.129L134.094 348.451L133.844 348.367ZM154.979 348.489L154.766 348.436L153.474 353.512L153.695 353.566L154.979 348.489ZM156.438 348.854L156.218 348.8L154.926 353.885L155.146 353.938L156.438 348.854ZM147.957 353.14L143.131 351.096L143.04 351.301L147.866 353.345L147.957 353.14ZM148.542 351.757L143.716 349.712L143.625 349.918L148.451 351.97L148.542 351.757ZM139.24 353.497L140.197 356.674H140.433L139.452 353.429L139.24 353.497ZM138.024 353.862L137.803 353.923L138.632 356.674H138.867L138.024 353.862ZM152.912 343.678L152.737 343.534L149.446 347.607L149.621 347.752L152.912 343.678ZM151.574 342.591L148.276 346.665L148.451 346.809L151.749 342.736L151.574 342.591ZM152.502 334.87H152.274L151.688 340.076H151.909L152.502 334.87ZM150.784 334.68L150.199 339.886H150.427L151.012 334.672L150.784 334.68ZM154.47 332.164L156.089 329.337H155.8L154.28 332.05L154.47 332.164ZM157.556 329.337L155.572 332.795L155.77 332.909L157.814 329.337H157.556ZM149.408 331.434L149.583 331.29L147.98 329.337H147.691L149.408 331.434ZM150.564 330.484L150.738 330.34L149.918 329.337H149.621L150.564 330.484ZM143.359 333.92L141.702 329.36H141.466L143.146 334.018L143.359 333.92ZM144.56 333.494L144.772 333.41L143.298 329.337H143.055L144.56 333.494ZM133.996 330.598L134.125 331.016L134.55 329.337H134.322L133.996 330.598ZM135.143 332.179L135.356 332.232L136.116 329.337H135.88L135.143 332.179ZM107.73 295.008L107.814 295.22L107.973 295.152V294.916L107.73 295.008ZM107.973 293.305L107.213 293.617L107.297 293.822L108.004 293.548L107.973 293.305ZM105.64 301.665L107.973 302.19V301.962L105.693 301.445L105.64 301.665ZM105.974 300.206L107.973 300.654V300.426L106.02 299.94L105.974 300.206ZM107.973 318.02L105.693 317.45L105.64 317.671L107.92 318.256L107.973 318.02ZM106.096 315.999L106.043 316.219L107.973 316.706V316.478L106.096 315.999ZM107.973 324.655V324.412L106.453 324.921L106.522 325.134L107.973 324.655ZM107.973 323.074V322.839L105.967 323.5L106.035 323.713L107.973 323.074ZM103.155 327.634L102.965 327.528L101.916 329.36H102.174L103.155 327.634ZM104.454 328.394L104.264 328.28L103.641 329.375H103.9L104.454 328.394ZM92.1728 327.414L93.7688 329.375H94.0652L92.3476 327.27L92.1728 327.414ZM93.328 326.464L95.7068 329.375H95.9956L93.5028 326.335L93.328 326.464ZM89.072 328.524L88.8592 328.6L89.1404 329.36H89.3836L89.072 328.524ZM85.804 283.608L86.564 284.58L85.804 283.57V283.608ZM81.0844 285.302L82.8704 290.227L83.0756 290.151L81.32 285.15L81.0844 285.302ZM82.498 284.793L84.2764 289.718L84.4892 289.642L82.7108 284.717L82.498 284.793ZM101.08 321.091L96.254 319.046L96.1704 319.252L100.996 321.296L101.08 321.091ZM100.495 322.474L95.6764 320.422L95.5852 320.635L100.411 322.679L100.495 322.474ZM101.08 307.715L99.6512 312.761L99.864 312.822L101.293 307.776L101.08 307.715ZM102.737 308.186L102.516 308.125L101.095 313.164L101.308 313.225L102.737 308.186ZM95.0076 308.726L93.4876 303.71L93.2748 303.77L94.7948 308.794L95.0076 308.726ZM96.4364 308.292L94.9164 303.276L94.7036 303.337L96.2236 308.361L96.4364 308.292ZM81.4492 295.281L81.2592 295.167L78.6524 299.727L78.85 299.834L81.4492 295.281ZM80.1496 294.521L79.9596 294.407L77.3528 298.967L77.5504 299.074L80.1496 294.521ZM94.0348 299.18L89.2088 297.136L89.1252 297.341L93.9512 299.393L94.0348 299.18ZM94.62 297.804L89.794 295.76L89.7104 295.965L94.5364 298.01L94.62 297.804ZM85.5456 321.486L90.7364 320.726V320.506L85.5456 321.266V321.486ZM85.7584 322.968L90.9492 322.208V321.988L85.7584 322.748V322.968ZM89.5584 316.584L89.7788 316.63L90.9492 311.522L90.7288 311.469L89.5584 316.584ZM92.188 311.804L91.0176 316.918L91.238 316.964L92.4084 311.857L92.188 311.804ZM77.9 302.76L75.9012 303.634L75.9772 303.846L77.9912 302.965L77.9 302.76ZM78.4928 304.135L76.3876 305.055L76.4636 305.268L78.584 304.34L78.4928 304.135ZM85.3328 299.575L86.8528 304.599L87.0732 304.53L85.5532 299.514L85.3328 299.575ZM83.8964 300.008L85.4164 305.024L85.6368 304.964L84.1168 299.948L83.8964 300.008ZM72.4204 290.288L72.5572 290.463L76.7448 287.309L76.608 287.126L72.4204 290.288ZM77.6492 288.502L77.5124 288.327L73.3248 291.481L73.4616 291.664L77.6492 288.502ZM85.5608 314.274L80.7348 312.229L80.6436 312.434L85.4696 314.479L85.5608 314.274ZM81.2288 311.051L86.0548 313.096L86.146 312.89L81.32 310.808L81.2288 311.051ZM105.944 333.471L105.838 333.669L106.028 333.517L105.944 333.471ZM106.651 332.156L106.544 332.354L107.099 332.65L107.282 332.491L106.651 332.156ZM98.04 337.644H98.268L98.5796 334.832H98.3592L98.04 337.644ZM96.52 337.385L96.7404 337.454L97.052 334.664H96.8316L96.52 337.385ZM102.136 329.299H101.878L100.358 332.012L100.548 332.126L102.136 329.299ZM103.862 329.299H103.603L101.62 332.757L101.817 332.871L103.862 329.299ZM95.456 331.396L95.6232 331.252L94.0272 329.299H93.7308L95.456 331.396ZM96.6112 330.446L96.786 330.302L95.9576 329.299H95.6688L96.6112 330.446ZM89.1024 329.299L90.1892 332.339L90.6072 332.825L89.3456 329.329L89.1024 329.299Z" fill="white"/>
<path d="M152.122 249.02C152.122 249.02 139.779 247.302 134.079 250.988C128.379 254.674 100.214 302.813 100.214 302.813L84.6564 281.875L71.1664 287.932C71.1664 287.932 77.4896 312.404 84.8464 324.579C92.2032 336.754 96.3984 337.986 98.9216 337.583C106.43 336.39 128.182 311.226 128.182 311.226L136.086 337.522L130.72 356.636H230.66L218.538 336.42C218.538 336.42 234.354 263.46 230.326 255.731C226.298 248.002 202.829 249.02 195.449 249.02H174.321C171.119 249.655 167.865 249.991 164.601 250.023C160.427 249.902 156.262 249.567 152.122 249.02Z" stroke="#263238" stroke-width="0.985332"/>
<path d="M128.189 311.226C125.296 305.445 124.172 298.939 124.959 292.522C126.426 282.285 132.764 271.075 132.764 271.075C132.764 271.075 120.118 289.315 120.118 295.395C120.118 301.475 123.88 310.367 123.88 310.367L120.597 319.738L128.189 311.226Z" fill="#263238" stroke="#263238" stroke-width="0.985332" stroke-linecap="round" stroke-linejoin="round"/>
<path d="M162.587 238.935L162.921 249.666L153.87 250C153.87 250 152 289.376 160.056 296.421C168.112 303.466 192.432 249.02 192.432 249.02L184.072 247.34L181.389 225.544L162.587 238.935Z" fill="#CFCFCF" stroke="#263238" stroke-width="0.985332" stroke-linecap="round" stroke-linejoin="round"/>
<path d="M182.354 229.8L162.997 248.04V241.587L182.354 229.8Z" fill="#263238" stroke="#263238" stroke-width="0.985332" stroke-linecap="round" stroke-linejoin="round"/>
<path d="M160.056 296.421C160.056 296.421 161.029 290.083 165.9 281.799L160.056 296.421Z" fill="white"/>
<path d="M160.056 296.421C160.056 296.421 161.029 290.083 165.9 281.799" stroke="#263238" stroke-width="0.985332" stroke-linecap="round" stroke-linejoin="round"/>
<path d="M158.688 178.424L136.648 201.338C138.38 206.215 139.219 211.363 139.126 216.538C138.867 224.655 146.247 236.594 152.281 242.142C158.316 247.69 170.628 239.163 175.226 236.153C178.296 234.072 181.16 231.7 183.776 229.07C185.453 228.997 187.084 228.5 188.517 227.626C189.95 226.751 191.137 225.528 191.968 224.069C191.968 224.069 159.942 189.847 158.688 178.424Z" fill="#CFCFCF" stroke="#263238" stroke-width="0.985332" stroke-linecap="round" stroke-linejoin="round"/>
<path d="M152.714 201.953C153.476 203.506 153.97 205.176 154.174 206.893C154.242 209.014 150.526 218.947 151.058 219.608C151.59 220.269 153.254 222.458 154.554 222.177" stroke="#263238" stroke-width="0.985332" stroke-linecap="round" stroke-linejoin="round"/>
<path d="M161.88 212.814C164.985 211.65 168.4 211.61 171.532 212.7" stroke="#263238" stroke-width="0.492666" stroke-linecap="round" stroke-linejoin="round"/>
<path d="M144.727 213.604C146.387 213.138 148.102 212.898 149.826 212.89" stroke="#263238" stroke-width="0.492666" stroke-linecap="round" stroke-linejoin="round"/>
<path d="M149.933 196.337C149.081 196.274 148.227 196.408 147.436 196.73C146.645 197.052 145.939 197.552 145.373 198.191C143.465 200.388 142.538 202.303 142.059 200.752C141.58 199.202 143.708 196.352 144.461 195.774C145.213 195.197 148.74 192.932 149.933 196.337Z" fill="#263238"/>
<path d="M159.364 195.06C161.6 195.052 163.806 195.573 165.802 196.58C168.712 198.176 167.322 194.938 165.277 194.011C163.233 193.084 159.691 193.175 159.364 195.06Z" fill="#263238"/>
<path d="M193.108 233.174C193.245 235.454 192.067 237.354 190.494 237.445C188.921 237.536 187.53 235.773 187.393 233.508C187.256 231.244 188.206 225.399 189.78 225.308C191.353 225.217 192.979 230.902 193.108 233.174Z" fill="#9D50FB" stroke="#263238" stroke-width="0.985332" stroke-linecap="round" stroke-linejoin="round"/>
<path d="M149.028 209.5C149.135 211.02 148.557 212.251 147.744 212.304C146.931 212.358 146.224 211.195 146.095 209.705C145.966 208.216 146.566 206.954 147.379 206.901C148.192 206.848 148.96 208.041 149.028 209.5Z" fill="#263238"/>
<path d="M165.429 208.915C165.536 210.435 164.958 211.658 164.152 211.719C163.347 211.78 162.632 210.61 162.496 209.112C162.359 207.615 162.974 206.369 163.78 206.316C164.586 206.262 165.33 207.425 165.429 208.915Z" fill="#263238"/>
<path d="M154.447 226.501C154.447 226.501 158.316 227.74 163.567 223.248" stroke="#263238" stroke-width="0.985332" stroke-linecap="round" stroke-linejoin="round"/>
<path d="M84.6564 281.89L77.5808 272.413C77.254 269.89 76.6232 264.676 76.5168 261.157C76.3724 256.369 76.608 253.443 73.8872 249.195C71.1664 244.946 63.574 238.236 62.8596 236.678C62.1452 235.12 60.078 239.512 61.3776 242.362C62.6772 245.212 63.8628 246.086 63.8628 246.086C63.8628 246.086 49.8864 239.14 49.4228 240.272C48.9592 241.405 55.9284 261.431 59.1204 266.713C60.4504 268.917 64.1364 271.866 65.9148 274.419C66.7846 275.679 67.5303 277.021 68.1416 278.424C69.7984 285.47 71.7288 293.222 72.7016 293.503C74.9132 294.149 84.2992 294.301 84.6564 281.89Z" fill="#CFCFCF" stroke="#263238" stroke-width="0.985332" stroke-miterlimit="10"/>
<path d="M64.79 260.116C64.6623 260.15 64.529 260.159 64.3978 260.142C64.2666 260.125 64.1402 260.081 64.0258 260.015C63.9113 259.949 63.8112 259.86 63.731 259.755C63.6509 259.65 63.5924 259.53 63.5588 259.402L52.44 218.293C52.3806 218.045 52.4183 217.783 52.5454 217.561C52.6725 217.339 52.8795 217.174 53.124 217.1C53.381 217.032 53.6542 217.069 53.8846 217.201C54.115 217.333 54.2841 217.551 54.3552 217.807L65.5044 258.9C65.5673 259.156 65.5278 259.426 65.3943 259.653C65.2609 259.88 65.0441 260.046 64.79 260.116Z" fill="#263238" stroke="#263238" stroke-width="0.985332" stroke-miterlimit="10"/>
<path d="M56.772 233.964C56.772 233.964 46.0408 239.634 46.702 240.744C47.3632 241.853 49.324 245.813 50.2208 245.722C51.1176 245.63 57.6308 240.31 58.102 239.642C58.5732 238.973 56.772 233.964 56.772 233.964Z" fill="#CFCFCF" stroke="#263238" stroke-width="0.985332" stroke-miterlimit="10"/>
<path d="M58.6872 240.926C58.6872 240.926 49.7724 247.5 50.0612 248.458C50.35 249.415 54.72 260.747 55.48 261.666C56.24 262.586 63.2168 259.386 63.2168 259.386L58.6872 240.926Z" fill="#CFCFCF" stroke="#263238" stroke-width="0.985332" stroke-miterlimit="10"/>
<path d="M60.04 247.036C60.04 247.036 51.5052 253.74 52.0676 253.952" stroke="#263238" stroke-width="0.985332" stroke-miterlimit="10"/>
<path d="M61.6512 254.302L54.4768 258.505" stroke="#263238" stroke-width="0.985332" stroke-miterlimit="10"/>
<path d="M63.84 246.086L67.7768 249.932C67.7768 249.932 62.548 261.096 67.5564 267.26" stroke="#263238" stroke-width="0.985332" stroke-miterlimit="10"/>
<path d="M219.176 251.399C219.176 251.399 228.73 250.153 232.856 258.049C236.983 265.945 262.77 335.736 263.188 342.409C263.606 349.082 246.149 350.716 240.335 347.812C234.521 344.909 218.295 310.42 216.653 305.845" fill="#9D50FB"/>
<path d="M222.213 299.726L220.798 304.76L221.016 304.822L222.432 299.787L222.213 299.726Z" fill="white"/>
<path d="M225.515 285.531L224.063 280.492L223.843 280.56L225.302 285.591L225.515 285.531Z" fill="white"/>
<path d="M224.804 300.226L223.373 305.271L223.592 305.333L225.024 300.288L224.804 300.226Z" fill="white"/>
<path d="M227.004 296.923L223.683 292.865L223.508 293.009L226.83 297.06L227.004 296.923Z" fill="white"/>
<path d="M234.172 302.36L229.366 304.457L229.457 304.666L234.264 302.569L234.172 302.36Z" fill="white"/>
<path d="M233.723 308.407L233.533 308.285L230.728 312.716L230.918 312.837L233.723 308.407Z" fill="white"/>
<path d="M222.406 280.97L223.858 286.009L224.078 285.941L222.619 280.91L222.406 280.97Z" fill="white"/>
<path d="M229.459 311.91L229.649 312.032L232.454 307.608L232.264 307.487L229.459 311.91Z" fill="white"/>
<path d="M228.16 295.973L224.846 291.914L224.671 292.059L227.985 296.11L228.16 295.973Z" fill="white"/>
<path d="M233.186 286.514L228.994 289.664L229.131 289.847L233.323 286.696L233.186 286.514Z" fill="white"/>
<path d="M232.134 264.197L233.647 269.221L233.86 269.152L232.355 264.136L232.134 264.197Z" fill="white"/>
<path d="M232.416 285.515L232.279 285.333L228.091 288.487L228.228 288.669L232.416 285.515Z" fill="white"/>
<path d="M229.649 258.14L231.222 255.655C231.169 255.602 231.124 255.541 231.07 255.48L229.459 258.018L229.649 258.14Z" fill="white"/>
<path d="M225.051 267.602L225.234 267.739L228.418 263.574L228.243 263.437L225.051 267.602Z" fill="white"/>
<path d="M227.909 274.434L232.735 276.479L232.826 276.274L228 274.229L227.909 274.434Z" fill="white"/>
<path d="M233.571 263.764L235.083 268.788L235.296 268.719L233.791 263.703L233.571 263.764Z" fill="white"/>
<path d="M233.252 297.326L235.858 292.773L235.661 292.667L233.062 297.212L233.252 297.326Z" fill="white"/>
<path d="M227.421 275.627L227.335 275.83L232.163 277.878L232.249 277.675L227.421 275.627Z" fill="white"/>
<path d="M233.56 301.017L228.753 303.113L228.844 303.322L233.651 301.226L233.56 301.017Z" fill="white"/>
<path d="M245.48 347.919L245.396 348.124L247.821 349.158H248.414L245.48 347.919Z" fill="white"/>
<path d="M246.529 331.617L245.054 327.536L244.75 326.692L244.538 326.768L244.819 327.536L246.316 331.693L246.529 331.617Z" fill="white"/>
<path d="M241.482 335.69L244.804 339.749L244.971 339.604L241.657 335.546L241.482 335.69Z" fill="white"/>
<path d="M245.115 332.126L243.466 327.536L243.337 327.201L243.132 327.27L243.223 327.536L244.91 332.202L245.115 332.126Z" fill="white"/>
<path d="M246.59 320.262L241.399 320.992L241.429 321.212L246.62 320.483L246.59 320.262Z" fill="white"/>
<path d="M261.668 342.667L263.074 341.451L263.028 341.2L261.508 342.5L261.668 342.667Z" fill="white"/>
<path d="M223.866 266.69L224.04 266.827L227.232 262.662L227.05 262.525L223.866 266.69Z" fill="white"/>
<path d="M217.883 294.252L217.669 294.329L219.449 299.262L219.664 299.184L217.883 294.252Z" fill="white"/>
<path d="M260.68 341.535L262.686 339.802C262.662 339.722 262.641 339.641 262.626 339.559L260.536 341.368L260.68 341.535Z" fill="white"/>
<path d="M246.134 338.654L242.812 334.604L242.638 334.74L245.959 338.799L246.134 338.654Z" fill="white"/>
<path d="M218.91 280.776L218.605 286.011L218.833 286.024L219.138 280.789L218.91 280.776Z" fill="white"/>
<path d="M242.721 302.737L241.216 297.721L240.996 297.782L242.508 302.805L242.721 302.737Z" fill="white"/>
<path d="M238.384 282.871L238.177 282.945L239.957 287.878L240.164 287.803L238.384 282.871Z" fill="white"/>
<path d="M237.622 273.621L236.9 276.471L237.12 276.524L237.857 273.621L238.412 271.44L238.192 271.387L237.622 273.621Z" fill="white"/>
<path d="M236.079 273.621L235.448 276.099L235.668 276.152L236.307 273.621L236.96 271.075L236.74 271.022L236.079 273.621Z" fill="white"/>
<path d="M239.56 298.215L241.072 303.231L241.285 303.17L239.78 298.146L239.56 298.215Z" fill="white"/>
<path d="M236.963 283.401L236.756 283.476L238.537 288.408L238.744 288.334L236.963 283.401Z" fill="white"/>
<path d="M219.301 293.729L219.087 293.806L220.867 298.739L221.081 298.662L219.301 293.729Z" fill="white"/>
<path d="M230.918 258.9L232.195 256.886L232.058 256.673L230.728 258.786L230.918 258.9Z" fill="white"/>
<path d="M236.9 309.258L241.726 311.302L241.809 311.097L236.983 309.052L236.9 309.258Z" fill="white"/>
<path d="M223.638 255.054L223.44 254.94L220.833 259.485L221.031 259.599L223.638 255.054Z" fill="white"/>
<path d="M259.16 328.288L259.061 328.007L257.351 331.001L257.541 331.108L259.16 328.288Z" fill="white"/>
<path d="M254.258 333.076L254.038 333.053L253.445 338.259L253.673 338.282L254.258 333.076Z" fill="white"/>
<path d="M251.387 318.692L251.301 318.895L256.129 320.943L256.215 320.74L251.387 318.692Z" fill="white"/>
<path d="M257.845 327.536L258.506 326.388L258.415 326.099L257.587 327.536L256.029 330.256L256.226 330.363L257.845 327.536Z" fill="white"/>
<path d="M254.676 341.884L254.501 341.74L251.203 345.814L251.378 345.958L254.676 341.884Z" fill="white"/>
<path d="M255.976 318.993L251.963 317.291L251.879 317.496L256.074 319.274L255.976 318.993Z" fill="white"/>
<path d="M253.506 340.942L253.331 340.798L250.04 344.871L250.215 345.016L253.506 340.942Z" fill="white"/>
<path d="M248.079 310.101L247.859 310.048L246.688 315.155L246.909 315.209L248.079 310.101Z" fill="white"/>
<path d="M251.165 329.641L251.34 329.496L249.736 327.536L248.018 325.438L247.844 325.582L249.447 327.536L251.165 329.641Z" fill="white"/>
<path d="M222.133 260.23L222.33 260.344L224.937 255.792L224.74 255.685L222.133 260.23Z" fill="white"/>
<path d="M236.962 337.312L236.755 337.387L238.535 342.319L238.743 342.244L236.962 337.312Z" fill="white"/>
<path d="M256.804 346.71L256.584 346.65L256.181 348.23L256.432 348.162L256.804 346.71Z" fill="white"/>
<path d="M238.389 336.784L238.182 336.859L239.962 341.792L240.169 341.717L238.389 336.784Z" fill="white"/>
<path d="M245.389 294.21L247.395 295.061C247.395 294.962 247.319 294.863 247.289 294.772L245.472 294.012L245.389 294.21Z" fill="white"/>
<path d="M258.256 347.06L258.035 347.007L257.853 347.714L258.111 347.622L258.256 347.06Z" fill="white"/>
<path d="M232.241 331.571L228.258 329.884L228.426 330.196L232.15 331.776L232.241 331.571Z" fill="white"/>
<path d="M218.629 263.278L221.221 265.976L221.388 265.824L218.644 262.974L218.629 263.278Z" fill="white"/>
<path d="M241.482 281.776L243.261 283.942L243.01 283.288L241.68 281.632L241.482 281.776Z" fill="white"/>
<path d="M220.142 267.017L220.301 266.857L218.553 265.033L218.538 265.345L220.142 267.017Z" fill="white"/>
<path d="M248.984 302.015L250.496 307.039L250.709 306.97L249.204 301.954L248.984 302.015Z" fill="white"/>
<path d="M232.826 330.196L228 328.144L227.909 328.349L232.735 330.401L232.826 330.196Z" fill="white"/>
<path d="M227.232 316.584L227.05 316.447L223.866 320.604L224.04 320.741L227.232 316.584Z" fill="white"/>
<path d="M235.296 322.641L233.791 317.618L233.571 317.686L235.083 322.702L235.296 322.641Z" fill="white"/>
<path d="M233.86 323.074L232.355 318.051L232.134 318.119L233.647 323.135L233.86 323.074Z" fill="white"/>
<path d="M228.418 317.488L228.243 317.359L225.051 321.516L225.234 321.653L228.418 317.488Z" fill="white"/>
<path d="M220.757 276.068L220.978 276.129L221.684 273.621L222.399 271.09L222.186 271.022L221.449 273.621L220.757 276.068Z" fill="white"/>
<path d="M219.891 273.621L219.313 275.666L219.534 275.726L220.126 273.621L220.955 270.68L220.742 270.619L219.891 273.621Z" fill="white"/>
<path d="M223.638 308.969L223.44 308.855L220.833 313.407L221.031 313.514L223.638 308.969Z" fill="white"/>
<path d="M224.937 309.714L224.74 309.6L222.133 314.152L222.33 314.258L224.937 309.714Z" fill="white"/>
<path d="M236.968 293.412L234.361 297.956L234.551 298.07L237.158 293.518L236.968 293.412Z" fill="white"/>
<path d="M246.4 309.714L245.229 314.821L245.45 314.874L246.62 309.767L246.4 309.714Z" fill="white"/>
<path d="M247.996 296.695L244.887 295.38L244.804 295.585L248.102 296.984C248.064 296.9 248.034 296.794 247.996 296.695Z" fill="white"/>
<path d="M246.415 319.001L246.384 318.781L241.194 319.51L241.224 319.731L246.415 319.001Z" fill="white"/>
<path d="M249.181 324.488L249.006 324.632L251.385 327.536L252.328 328.691L252.502 328.546L251.674 327.536L249.181 324.488Z" fill="white"/>
<path d="M237.857 327.536L238.412 325.362L238.192 325.309L237.622 327.536L236.9 330.386L237.12 330.439L237.857 327.536Z" fill="white"/>
<path d="M236.402 310.454L236.316 310.657L241.144 312.705L241.23 312.502L236.402 310.454Z" fill="white"/>
<path d="M236.307 327.536L236.96 324.99L236.74 324.937L236.079 327.536L235.448 330.013L235.668 330.074L236.307 327.536Z" fill="white"/>
<path d="M252.183 338.115L252.768 332.909L252.548 332.886L251.955 338.092L252.183 338.115Z" fill="white"/>
<path d="M219.176 251.399C219.176 251.399 228.73 250.153 232.856 258.049C236.983 265.945 262.77 335.736 263.188 342.409C263.606 349.082 246.149 350.716 240.335 347.812C234.521 344.909 218.295 310.42 216.653 305.845" stroke="#263238" stroke-width="0.985332"/>
<path d="M161.424 346.543C161.424 346.543 141.9 344.05 138.571 344.461C135.242 344.871 120.293 354.85 120.293 354.85H162.64L161.424 346.543Z" fill="#CFCFCF" stroke="#263238" stroke-width="0.985332" stroke-linecap="round" stroke-linejoin="round"/>
<path d="M242.022 333.243L161.462 346.543L162.64 354.85H261.972C262.744 350.739 263.161 346.569 263.218 342.386C263.218 336.154 259.479 329.094 259.479 329.094" fill="#9D50FB"/>
<path d="M248.695 346.961L250.207 351.977L250.42 351.916L248.915 346.893L248.695 346.961Z" fill="white"/>
<path d="M254.212 332.764L250.914 336.838L251.089 336.982L254.387 332.909L254.212 332.764Z" fill="white"/>
<path d="M249.751 335.896L249.926 336.04L253.217 331.966L253.042 331.822L249.751 335.896Z" fill="white"/>
<path d="M239.271 343.154L240.783 348.177L240.996 348.109L239.491 343.093L239.271 343.154Z" fill="white"/>
<path d="M251.856 351.483L250.344 346.46L250.131 346.528L251.644 351.544L251.856 351.483Z" fill="white"/>
<path d="M242.432 347.683L240.928 342.66L240.707 342.728L242.22 347.744L242.432 347.683Z" fill="white"/>
<path d="M256.3 337.677L255.009 342.76L255.23 342.816L256.521 337.733L256.3 337.677Z" fill="white"/>
<path d="M255.375 354.85H255.611L256.713 350.959L256.492 350.898L255.375 354.85Z" fill="white"/>
<path d="M236.694 353.991L236.611 354.196L238.146 354.85H238.724L236.694 353.991Z" fill="white"/>
<path d="M257.732 338.01L256.44 343.092L256.661 343.148L257.953 338.066L257.732 338.01Z" fill="white"/>
<path d="M219.006 338.667L218.791 338.745L220.571 343.677L220.786 343.6L219.006 338.667Z" fill="white"/>
<path d="M244.515 340.532L249.333 342.576L249.424 342.371L244.598 340.319L244.515 340.532Z" fill="white"/>
<path d="M246.111 354.66L246.065 354.85H246.293L246.331 354.706L246.111 354.66Z" fill="white"/>
<path d="M245.185 338.96L245.099 339.163L249.926 341.211L250.012 341.008L245.185 338.96Z" fill="white"/>
<path d="M223.22 337.948L226.541 342.006L226.716 341.862L223.394 337.803L223.22 337.948Z" fill="white"/>
<path d="M227.871 340.912L224.55 336.861L224.382 336.998L227.696 341.056L227.871 340.912Z" fill="white"/>
<path d="M260.399 332.559L260.862 332.156L260.771 331.936L260.254 332.392L260.399 332.559Z" fill="white"/>
<path d="M223.073 344.76L221.642 349.805L221.861 349.868L223.293 344.823L223.073 344.76Z" fill="white"/>
<path d="M261.364 343.351L263.196 343.769C263.196 343.693 263.196 343.617 263.196 343.541L261.402 343.131L261.364 343.351Z" fill="white"/>
<path d="M233.244 353.231L232.218 354.85H232.484L233.434 353.345L233.244 353.231Z" fill="white"/>
<path d="M263.142 345.061L261.083 344.598L261.03 344.81L263.127 345.289C263.135 345.213 263.142 345.137 263.142 345.061Z" fill="white"/>
<path d="M261.379 333.692L261.432 333.646L261.349 333.418L261.235 333.524L261.379 333.692Z" fill="white"/>
<path d="M233.269 345.951L228.462 348.047L228.553 348.256L233.36 346.16L233.269 345.951Z" fill="white"/>
<path d="M232.165 352.547L231.975 352.426L230.44 354.85H230.706L232.165 352.547Z" fill="white"/>
<path d="M224.531 345.209L223.1 350.253L223.319 350.316L224.75 345.271L224.531 345.209Z" fill="white"/>
<path d="M233.884 347.305L229.077 349.402L229.168 349.611L233.975 347.514L233.884 347.305Z" fill="white"/>
<path d="M236.869 338.464L236.679 338.35L234.072 342.903L234.262 343.017L236.869 338.464Z" fill="white"/>
<path d="M232.773 342.158L232.963 342.264L235.57 337.72L235.372 337.606L232.773 342.158Z" fill="white"/>
<path d="M179.357 345.955L174.55 348.051L174.641 348.26L179.448 346.164L179.357 345.955Z" fill="white"/>
<path d="M169.434 353.908L169.237 353.801L168.636 354.85H168.895L169.434 353.908Z" fill="white"/>
<path d="M167.945 349.872L169.252 345.251L169.009 345.289L167.732 349.811L167.945 349.872Z" fill="white"/>
<path d="M170.734 354.652L170.536 354.546L170.362 354.85H170.62L170.734 354.652Z" fill="white"/>
<path d="M196.004 341.193L196.095 340.988L195.806 340.874L195.396 340.934L196.004 341.193Z" fill="white"/>
<path d="M201.461 354.85H201.696L202.791 350.959L202.578 350.898L201.461 354.85Z" fill="white"/>
<path d="M203.429 339.612L202.54 343.123L202.753 343.184L203.672 339.574L203.429 339.612Z" fill="white"/>
<path d="M178.25 352.547L178.06 352.426L176.525 354.85H176.791L178.25 352.547Z" fill="white"/>
<path d="M179.52 353.345L179.33 353.231L178.296 354.85H178.562L179.52 353.345Z" fill="white"/>
<path d="M224.451 354.546L224.276 354.85H224.534L224.648 354.652L224.451 354.546Z" fill="white"/>
<path d="M257.936 351.308L256.933 354.85H257.169L258.149 351.369L257.936 351.308Z" fill="white"/>
<path d="M217.595 339.187L217.38 339.265L219.161 344.197L219.375 344.12L217.595 339.187Z" fill="white"/>
<path d="M204.014 351.308L203.019 354.85H203.247L204.235 351.369L204.014 351.308Z" fill="white"/>
<path d="M182.78 353.991L182.689 354.196L184.232 354.85H184.802L182.78 353.991Z" fill="white"/>
<path d="M223.349 353.908L223.151 353.801L222.551 354.85H222.809L223.349 353.908Z" fill="white"/>
<path d="M169.454 344.858L168.038 349.892L168.257 349.954L169.673 344.919L169.454 344.858Z" fill="white"/>
<path d="M212.686 348.671L212.473 348.588L210.558 353.467L210.763 353.55L212.686 348.671Z" fill="white"/>
<path d="M179.955 347.325L175.148 349.422L175.24 349.631L180.047 347.534L179.955 347.325Z" fill="white"/>
<path d="M214.077 349.211L213.864 349.135L211.949 354.014L212.162 354.09L214.077 349.211Z" fill="white"/>
<path d="M207.115 344.818L209.441 345.342L212.222 345.966L212.276 345.745L209.441 345.107L207.161 344.598L207.115 344.818Z" fill="white"/>
<path d="M212.557 344.506L212.61 344.286L209.441 343.572L207.495 343.131L207.442 343.351L209.441 343.8L212.557 344.506Z" fill="white"/>
<path d="M201.309 342.812L202.061 339.84L201.818 339.878L201.088 342.758L201.309 342.812Z" fill="white"/>
<path d="M195.51 342.371L193.048 341.322L192.637 341.39L195.419 342.576L195.51 342.371Z" fill="white"/>
<path d="M188.298 347.744L188.518 347.683L187.006 342.66L186.793 342.728L188.298 347.744Z" fill="white"/>
<path d="M187.082 348.109L185.569 343.093L185.356 343.154L186.869 348.177L187.082 348.109Z" fill="white"/>
<path d="M194.78 346.961L196.293 351.977L196.506 351.916L194.993 346.893L194.78 346.961Z" fill="white"/>
<path d="M192.189 354.66L192.143 354.85H192.379L192.409 354.706L192.189 354.66Z" fill="white"/>
<path d="M197.942 351.483L196.43 346.46L196.217 346.528L197.722 351.544L197.942 351.483Z" fill="white"/>
<path d="M242.022 333.243L161.462 346.543L162.64 354.85H261.972C262.744 350.739 263.161 346.569 263.218 342.386C263.218 336.154 259.479 329.094 259.479 329.094" stroke="#263238" stroke-width="0.985332"/>
<path d="M259.738 353.505H159.6L156.317 298.42C156.227 297.883 156.256 297.334 156.4 296.809C156.545 296.285 156.802 295.798 157.153 295.383C157.505 294.968 157.942 294.635 158.436 294.406C158.929 294.177 159.466 294.058 160.01 294.058H259.312C259.856 294.057 260.394 294.175 260.888 294.403C261.382 294.632 261.821 294.965 262.172 295.381C262.524 295.796 262.781 296.283 262.925 296.808C263.069 297.333 263.096 297.883 263.006 298.42L259.738 353.505Z" fill="#263238" stroke="#263238" stroke-width="0.985332" stroke-linecap="round" stroke-linejoin="round"/>
<path d="M164.517 295.38H258.59C259.121 295.374 259.647 295.485 260.131 295.704C260.615 295.922 261.046 296.244 261.392 296.647C261.739 297.049 261.994 297.522 262.138 298.034C262.283 298.545 262.315 299.081 262.23 299.606" stroke="white" stroke-width="0.985332" stroke-linecap="round" stroke-linejoin="round"/>
<path d="M157.062 298.762C157.133 297.837 157.552 296.974 158.235 296.346C158.917 295.719 159.813 295.373 160.74 295.38" stroke="white" stroke-width="0.985332" stroke-linecap="round" stroke-linejoin="round"/>
<path d="M260.156 348.139H159.167V353.505H260.156V348.139Z" fill="white" stroke="#263238" stroke-width="0.985332" stroke-linecap="round" stroke-linejoin="round"/>
<path d="M216.463 324.002C216.463 326.373 213.256 328.296 209.304 328.296C205.352 328.296 202.152 326.373 202.152 324.002C202.152 321.63 205.36 319.708 209.304 319.708C213.248 319.708 216.463 321.63 216.463 324.002Z" fill="white" stroke="#263238" stroke-width="0.985332" stroke-linecap="round" stroke-linejoin="round"/>
<path d="M59.9944 347.972C57.872 347.867 55.7874 347.369 53.846 346.505C53.3515 346.267 52.968 345.848 52.7756 345.334C52.5833 344.82 52.5969 344.251 52.8137 343.747C53.0304 343.243 53.4336 342.842 53.9389 342.628C54.4443 342.414 55.0127 342.404 55.5256 342.599C57.4864 343.435 60.002 343.952 60.6784 343.663C61.9096 342.272 63.8172 333.874 61.3548 329.869C61.2255 329.586 61.0304 329.339 60.7857 329.147C60.5411 328.955 60.2541 328.825 59.9488 328.767C58.5504 328.577 56.4832 330.013 55.7536 330.697C55.3376 331.059 54.7974 331.245 54.2469 331.217C53.6963 331.188 53.1783 330.947 52.802 330.544C52.4257 330.141 52.2204 329.608 52.2295 329.057C52.2385 328.505 52.4611 327.979 52.8504 327.589C53.238 327.224 56.7644 324.055 60.5112 324.549C61.4413 324.688 62.3271 325.038 63.1005 325.573C63.8739 326.108 64.5143 326.813 64.9724 327.634C68.5976 333.532 66.12 344.78 63.3308 346.984C62.3624 347.681 61.1863 348.03 59.9944 347.972Z" fill="#263238" stroke="#263238" stroke-width="0.985332" stroke-linecap="round" stroke-linejoin="round"/>
<path d="M56.2324 322.816H32.7864V353.938H56.2324V322.816Z" fill="#263238" stroke="#263238" stroke-width="0.985332" stroke-linecap="round" stroke-linejoin="round"/>
<path d="M34.9144 321.114C34.9144 321.114 34.9144 318.522 39.6644 315.93C44.4144 313.339 47.006 309.455 44.4144 302.114C41.8228 294.772 42.256 289.589 47.4544 285.264" stroke="#263238" stroke-width="0.985332" stroke-linecap="round" stroke-linejoin="round"/>
<path d="M35.9936 293.488C36.2368 290.334 37.6428 287.666 40.5536 285.264" stroke="#263238" stroke-width="0.985332" stroke-linecap="round" stroke-linejoin="round"/>
<path d="M37.506 302.114C37.0315 300.804 36.648 299.463 36.3584 298.101" stroke="#263238" stroke-width="0.985332" stroke-linecap="round" stroke-linejoin="round"/>
<path d="M54.2032 304.644C54.0212 303.785 53.7799 302.94 53.4812 302.114L53.086 300.943" stroke="#263238" stroke-width="0.985332" stroke-linecap="round" stroke-linejoin="round"/>
<path d="M43.9812 321.114C43.9812 321.114 43.9812 318.522 48.7312 315.93C51.8472 314.228 54.0512 311.971 54.4388 308.551" stroke="#263238" stroke-width="0.985332" stroke-linecap="round" stroke-linejoin="round"/>
<path d="M364.823 353.406H11.0884V361.234H364.823V353.406Z" fill="#263238"/>
</svg>
